<?xml version="1.0" encoding="utf-8"?>
<!-- Generator: Adobe Illustrator 19.1.0, SVG Export Plug-In . SVG Version: 6.00 Build 0)  -->
<svg version="1.1" id="Слой_1" xmlns="http://www.w3.org/2000/svg" xmlns:xlink="http://www.w3.org/1999/xlink" x="0px" y="0px"
	 viewBox="-240 205 159 72" style="enable-background:new -240 205 159 72;" xml:space="preserve">
<style type="text/css">
	.st0{fill:url(#SVGID_1_);}
	.st1{enable-background:new    ;}
	.st2{fill:none;}
</style>
<linearGradient id="SVGID_1_" gradientUnits="userSpaceOnUse" x1="-199.6048" y1="568.0571" x2="-199.6048" y2="710.3571" gradientTransform="matrix(6.123234e-017 1 1 -6.123234e-017 -798.8571 424.4048)">
	<stop  offset="0" style="stop-color:#7B3294"/>
	<stop  offset="0.5" style="stop-color:#FFFFFF"/>
	<stop  offset="1" style="stop-color:#008837"/>
</linearGradient>
<rect x="-230.8" y="210.8" class="st0" width="142.3" height="28"/>
<g class="st1">
	<path d="M-116.9,249.4v-3h0.9v3h3v0.9h-3v3h-0.9v-3h-3v-0.9H-116.9z"/>
	<path d="M-110.4,247.2h-1c0.2-0.8,0.5-1.5,1.1-1.9c0.5-0.4,1.2-0.7,1.9-0.7c0.5,0,1,0.1,1.5,0.4c0.5,0.2,0.8,0.6,1.1,1
		c0.2,0.4,0.4,0.8,0.4,1.3c0,0.9-0.4,1.6-1.3,2.1c0.5,0.2,0.9,0.5,1.2,0.9c0.4,0.5,0.7,1.1,0.7,1.8c0,0.6-0.2,1.1-0.5,1.6
		c-0.3,0.5-0.7,0.9-1.2,1.2s-1.1,0.4-1.7,0.4c-0.9,0-1.6-0.2-2.2-0.7c-0.6-0.5-1-1.2-1.1-2.2h1c0.2,0.7,0.4,1.1,0.7,1.4
		c0.4,0.4,0.9,0.6,1.6,0.6c0.7,0,1.3-0.2,1.8-0.7c0.4-0.4,0.7-1,0.7-1.5c0-0.4-0.1-0.8-0.3-1.1c-0.2-0.3-0.5-0.6-0.9-0.8
		c-0.4-0.2-0.9-0.3-1.7-0.3v-0.9c0.5,0,0.9-0.1,1.3-0.2c0.4-0.2,0.7-0.4,0.8-0.6s0.3-0.5,0.3-0.8c0-0.4-0.2-0.8-0.5-1.1
		s-0.8-0.5-1.3-0.5c-0.4,0-0.8,0.1-1.1,0.4C-109.9,246.2-110.2,246.6-110.4,247.2z"/>
	<path d="M-97.6,244.8v1h-3.6l-0.5,2.7c0.4-0.1,0.8-0.2,1.2-0.2c0.9,0,1.7,0.3,2.3,0.9c0.6,0.6,0.9,1.4,0.9,2.4
		c0,0.7-0.2,1.3-0.5,1.8c-0.3,0.6-0.7,1-1.2,1.3c-0.5,0.3-1.1,0.4-1.8,0.4c-0.8,0-1.5-0.2-2.1-0.7c-0.6-0.5-0.9-1.1-1-1.9h1
		c0.1,0.4,0.2,0.7,0.4,0.9s0.4,0.4,0.7,0.6c0.3,0.1,0.6,0.2,1,0.2c0.7,0,1.2-0.3,1.7-0.8c0.5-0.5,0.7-1.1,0.7-1.9
		c0-0.7-0.2-1.2-0.6-1.7c-0.4-0.4-1-0.6-1.7-0.6c-0.6,0-1.3,0.2-2.2,0.5l0.9-5H-97.6z"/>
	<path d="M-96.3,249.9c0-1.3,0.1-2.4,0.4-3.1c0.3-0.7,0.7-1.3,1.2-1.6s1.1-0.6,1.7-0.6c0.7,0,1.2,0.2,1.8,0.6
		c0.5,0.4,0.9,0.9,1.3,1.7s0.5,1.8,0.5,3c0,1.3-0.2,2.3-0.5,3c-0.3,0.7-0.7,1.3-1.3,1.7c-0.5,0.4-1.1,0.6-1.8,0.6
		c-0.6,0-1.2-0.2-1.7-0.6c-0.5-0.4-0.9-0.9-1.2-1.7C-96.1,252.2-96.3,251.2-96.3,249.9z M-95.3,249.9c0,1.1,0.1,2,0.3,2.6
		c0.2,0.6,0.5,1,0.9,1.3c0.4,0.3,0.8,0.5,1.3,0.5c0.4,0,0.9-0.1,1.3-0.4c0.4-0.3,0.7-0.7,0.9-1.3c0.3-0.7,0.4-1.6,0.4-2.6
		c0-1-0.1-1.8-0.3-2.5c-0.2-0.6-0.5-1.1-0.9-1.4c-0.4-0.3-0.8-0.4-1.2-0.4c-0.4,0-0.9,0.1-1.3,0.4c-0.4,0.3-0.7,0.7-0.9,1.3
		C-95.2,247.9-95.3,248.8-95.3,249.9z"/>
</g>
<g class="st1">
	<path d="M-162.6,248.2c0-1.3,0.1-2.4,0.4-3.1s0.7-1.3,1.2-1.6s1.1-0.6,1.7-0.6c0.7,0,1.2,0.2,1.8,0.6c0.5,0.4,0.9,0.9,1.3,1.7
		s0.5,1.8,0.5,3c0,1.3-0.2,2.3-0.5,3c-0.3,0.7-0.7,1.3-1.3,1.7c-0.5,0.4-1.1,0.6-1.8,0.6c-0.6,0-1.2-0.2-1.7-0.6s-0.9-0.9-1.2-1.7
		C-162.4,250.6-162.6,249.5-162.6,248.2z M-161.6,248.2c0,1.1,0.1,2,0.3,2.6c0.2,0.6,0.5,1,0.9,1.3c0.4,0.3,0.8,0.5,1.3,0.5
		c0.4,0,0.9-0.1,1.3-0.4c0.4-0.3,0.7-0.7,0.9-1.3c0.3-0.7,0.4-1.6,0.4-2.6c0-1-0.1-1.8-0.3-2.5c-0.2-0.6-0.5-1.1-0.9-1.4
		c-0.4-0.3-0.8-0.4-1.2-0.4c-0.4,0-0.9,0.1-1.3,0.4s-0.7,0.7-0.9,1.3C-161.5,246.2-161.6,247.1-161.6,248.2z"/>
</g>
<g class="st1">
	<path d="M-130.3,262.3h4.9v0.8h-2v6.6h-1v-6.6h-2V262.3z"/>
	<path d="M-110.7,261.5l-0.8,0.6c-0.4-0.6-1-1-1.6-1.3c-0.6-0.3-1.3-0.4-2-0.4c-0.8,0-1.5,0.2-2.2,0.6c-0.7,0.4-1.2,0.9-1.6,1.6
		c-0.4,0.6-0.6,1.4-0.6,2.2c0,1.2,0.4,2.2,1.3,3.1s1.9,1.2,3.2,1.2c1.4,0,2.6-0.6,3.5-1.7l0.8,0.6c-0.5,0.6-1.1,1.1-1.9,1.5
		c-0.8,0.3-1.6,0.5-2.5,0.5c-1.8,0-3.1-0.6-4.2-1.8c-0.9-1-1.3-2.2-1.3-3.6c0-1.5,0.5-2.7,1.5-3.7c1-1,2.3-1.5,3.9-1.5
		c0.9,0,1.8,0.2,2.5,0.6C-111.8,260.3-111.1,260.8-110.7,261.5z"/>
	<path d="M-104.2,259.4l-4.2,11.7h-1l4.2-11.7H-104.2z"/>
	<path d="M-101.7,263.1v6.6h-1v-7.4h3.8v0.8H-101.7z"/>
	<path d="M-90.2,262.3v7.4h-0.9v-1.3c-0.4,0.5-0.9,0.9-1.3,1.1s-1,0.4-1.6,0.4c-1.1,0-2-0.4-2.7-1.1C-97.6,268-98,267-98,266
		c0-1.1,0.4-2,1.1-2.7s1.7-1.1,2.7-1.1c0.6,0,1.2,0.1,1.7,0.4c0.5,0.3,0.9,0.6,1.3,1.2v-1.4H-90.2z M-94,263c-0.5,0-1,0.1-1.5,0.4
		c-0.5,0.3-0.8,0.6-1.1,1.1c-0.3,0.5-0.4,1-0.4,1.5c0,0.5,0.1,1,0.4,1.5c0.3,0.5,0.6,0.8,1.1,1.1s0.9,0.4,1.5,0.4
		c0.5,0,1-0.1,1.5-0.4c0.5-0.3,0.8-0.6,1.1-1.1c0.3-0.5,0.4-1,0.4-1.5c0-0.9-0.3-1.6-0.8-2.2C-92.5,263.3-93.2,263-94,263z"/>
</g>
<g class="st1">
	<path d="M-231.6,250.7h3.8v0.8h-3.8V250.7z"/>
	<path d="M-225.5,247.2h-1c0.2-0.8,0.5-1.5,1.1-1.9s1.2-0.7,1.9-0.7c0.5,0,1,0.1,1.5,0.4c0.5,0.2,0.8,0.6,1.1,1s0.4,0.8,0.4,1.3
		c0,0.9-0.4,1.6-1.3,2.1c0.5,0.2,0.9,0.5,1.2,0.9c0.4,0.5,0.7,1.1,0.7,1.8c0,0.6-0.2,1.1-0.5,1.6c-0.3,0.5-0.7,0.9-1.2,1.2
		s-1.1,0.4-1.7,0.4c-0.9,0-1.6-0.2-2.2-0.7c-0.6-0.5-1-1.2-1.1-2.2h1c0.2,0.7,0.4,1.1,0.7,1.4c0.4,0.4,0.9,0.6,1.6,0.6
		c0.7,0,1.3-0.2,1.8-0.7s0.7-1,0.7-1.5c0-0.4-0.1-0.8-0.3-1.1s-0.5-0.6-0.9-0.8s-0.9-0.3-1.7-0.3v-0.9c0.5,0,0.9-0.1,1.3-0.2
		c0.4-0.2,0.7-0.4,0.8-0.6s0.3-0.5,0.3-0.8c0-0.4-0.2-0.8-0.5-1.1s-0.8-0.5-1.3-0.5c-0.4,0-0.8,0.1-1.1,0.4
		C-225,246.2-225.3,246.6-225.5,247.2z"/>
	<path d="M-212.7,244.8v1h-3.6l-0.5,2.7c0.4-0.1,0.8-0.2,1.2-0.2c0.9,0,1.7,0.3,2.3,0.9c0.6,0.6,0.9,1.4,0.9,2.4
		c0,0.7-0.2,1.3-0.5,1.8s-0.7,1-1.2,1.3c-0.5,0.3-1.1,0.4-1.8,0.4c-0.8,0-1.5-0.2-2.1-0.7c-0.6-0.5-0.9-1.1-1-1.9h1
		c0.1,0.4,0.2,0.7,0.4,0.9s0.4,0.4,0.7,0.6c0.3,0.1,0.6,0.2,1,0.2c0.7,0,1.2-0.3,1.7-0.8c0.5-0.5,0.7-1.1,0.7-1.9
		c0-0.7-0.2-1.2-0.6-1.7s-1-0.6-1.7-0.6c-0.6,0-1.3,0.2-2.2,0.5l0.9-5H-212.7z"/>
	<path d="M-211.4,249.9c0-1.3,0.1-2.4,0.4-3.1s0.7-1.3,1.2-1.6s1.1-0.6,1.7-0.6c0.7,0,1.2,0.2,1.8,0.6c0.5,0.4,0.9,0.9,1.3,1.7
		s0.5,1.8,0.5,3c0,1.3-0.2,2.3-0.5,3s-0.7,1.3-1.3,1.7c-0.5,0.4-1.1,0.6-1.8,0.6c-0.6,0-1.2-0.2-1.7-0.6s-0.9-0.9-1.2-1.7
		C-211.2,252.2-211.4,251.2-211.4,249.9z M-210.4,249.9c0,1.1,0.1,2,0.3,2.6c0.2,0.6,0.5,1,0.9,1.3c0.4,0.3,0.8,0.5,1.3,0.5
		c0.4,0,0.9-0.1,1.3-0.4s0.7-0.7,0.9-1.3c0.3-0.7,0.4-1.6,0.4-2.6c0-1-0.1-1.8-0.3-2.5s-0.5-1.1-0.9-1.4s-0.8-0.4-1.2-0.4
		c-0.4,0-0.9,0.1-1.3,0.4s-0.7,0.7-0.9,1.3C-210.3,247.9-210.4,248.8-210.4,249.9z"/>
</g>
<rect x="-240" y="205" class="st2" width="159" height="72"/>
</svg>
