<?xml version="1.0" encoding="utf-8"?>
<!-- Generator: Adobe Illustrator 19.1.0, SVG Export Plug-In . SVG Version: 6.00 Build 0)  -->
<svg version="1.1" id="Слой_1" xmlns="http://www.w3.org/2000/svg" xmlns:xlink="http://www.w3.org/1999/xlink" x="0px" y="0px"
	 viewBox="0 0 247 339" style="enable-background:new 0 0 247 339;" xml:space="preserve">
<style type="text/css">
	.st0{fill:#205E17;}
	.st1{fill:#139006;}
	.st2{fill:#15CF02;}
	.st3{fill:#A1DE9A;}
	.st4{fill:#F6F68F;}
	.st5{fill:#2C6569;}
	.st6{fill:#43A0A7;}
	.st7{fill:#6FC8B9;}
	.st8{fill:#8BB2FF;}
	.st9{fill:#CFCFCF;}
</style>
<rect x="13.4" y="13.2" class="st0" width="41.1" height="22.6"/>
<rect x="13.4" y="46.4" class="st1" width="41.1" height="22.6"/>
<rect x="13.4" y="76" class="st2" width="41.1" height="22.6"/>
<g>
	<path d="M67.7,19.1h1.2l2.4,3.9l2.4-3.9h1.2l-3,4.9l3.2,5.2h-1.2l-2.6-4.2l-2.6,4.2h-1.2l3.2-5.2L67.7,19.1z"/>
	<path d="M78.8,29.2h-2.2v-7.4h2.1c0.8,0,1.4,0.2,1.8,0.6c0.4,0.4,0.5,0.8,0.5,1.3c0,0.8-0.3,1.3-1,1.5c1,0.3,1.4,1,1.4,2
		C81.5,28.5,80.6,29.2,78.8,29.2z M77.5,22.6v2.3h0.6c0.6,0,0.9,0,1.1-0.1c0.2,0,0.3-0.2,0.5-0.3c0.2-0.2,0.2-0.4,0.2-0.7
		c0-0.3-0.1-0.6-0.2-0.8c-0.2-0.2-0.3-0.3-0.5-0.4c-0.2,0-0.5-0.1-1.1-0.1H77.5z M77.5,25.8v2.6h1c0.5,0,0.8,0,1-0.1
		c0.2-0.1,0.4-0.2,0.5-0.4s0.2-0.5,0.2-0.8c0-0.4-0.1-0.7-0.4-1s-0.6-0.4-1-0.4H77.5z"/>
	<path d="M86.7,21.5c1.1,0,2.1,0.4,2.8,1.2c0.7,0.8,1,1.7,1,2.7c0,1-0.4,1.9-1.1,2.7s-1.7,1.2-2.8,1.2c-1.1,0-2.1-0.4-2.8-1.2
		s-1.1-1.7-1.1-2.7c0-1,0.3-1.9,1-2.7C84.6,22,85.5,21.5,86.7,21.5z M86.7,22.5c-0.8,0-1.5,0.3-2.1,0.9s-0.9,1.3-0.9,2.1
		c0,0.5,0.1,1,0.4,1.5s0.6,0.8,1.1,1.1c0.4,0.3,0.9,0.4,1.5,0.4c0.5,0,1-0.1,1.5-0.4c0.4-0.3,0.8-0.6,1.1-1.1s0.4-1,0.4-1.5
		c0-0.8-0.3-1.5-0.9-2.1C88.1,22.8,87.4,22.5,86.7,22.5z"/>
	<path d="M93.3,21.7v5.5l5.5-5.5h0.1v7.4h-1v-5.5l-5.4,5.5h-0.1v-7.4H93.3z M93.1,18.7H94c0.2,0.2,0.4,0.4,0.6,0.5s0.6,0.2,0.9,0.2
		c0.4,0,0.7-0.1,0.9-0.2s0.4-0.3,0.6-0.6H98c-0.1,0.4-0.4,0.8-0.8,1s-1,0.4-1.6,0.4c-0.7,0-1.2-0.1-1.6-0.4S93.2,19.2,93.1,18.7z"/>
	<path d="M106.2,25.6h-4.3v3.6h-1v-7.4h1v3h4.3v-3h1v7.4h-1V25.6z"/>
	<path d="M110.3,24.7h0.9c0.7,0,1.3,0.1,1.7,0.2c0.4,0.1,0.8,0.4,1.1,0.8c0.3,0.4,0.4,0.8,0.4,1.3c0,0.6-0.2,1.1-0.6,1.6
		c-0.4,0.4-1.1,0.7-2,0.7h-2.5v-7.4h1V24.7z M110.3,25.6v2.8h1.1c1.3,0,1.9-0.5,1.9-1.4c0-0.3-0.1-0.5-0.2-0.8s-0.3-0.4-0.6-0.5
		s-0.7-0.2-1.4-0.2H110.3z M115.7,21.7h1v7.4h-1V21.7z"/>
	<path d="M125,26.7l0.8,0.4c-0.3,0.5-0.6,0.9-0.9,1.3s-0.7,0.6-1.2,0.7s-0.9,0.2-1.5,0.2c-1.2,0-2.2-0.4-2.8-1.2s-1-1.7-1-2.7
		c0-0.9,0.3-1.8,0.9-2.5c0.7-0.9,1.7-1.4,2.9-1.4c1.3,0,2.3,0.5,3,1.4c0.5,0.7,0.8,1.5,0.8,2.5h-6.7c0,0.9,0.3,1.6,0.8,2.1
		s1.2,0.8,2,0.8c0.4,0,0.7-0.1,1.1-0.2c0.4-0.1,0.7-0.3,0.9-0.5C124.4,27.5,124.7,27.2,125,26.7z M125,24.7
		c-0.1-0.5-0.3-0.9-0.6-1.2c-0.2-0.3-0.6-0.6-1-0.7s-0.8-0.3-1.3-0.3c-0.7,0-1.4,0.2-1.9,0.7c-0.4,0.3-0.7,0.9-0.9,1.5H125z"/>
	<path d="M138,29.2h-1l-2.5-5.4l-2.5,5.4h-1l3.4-7.4h0.2L138,29.2z"/>
	<path d="M145.7,26.7l0.8,0.4c-0.3,0.5-0.6,0.9-0.9,1.3s-0.7,0.6-1.2,0.7s-0.9,0.2-1.5,0.2c-1.2,0-2.2-0.4-2.8-1.2s-1-1.7-1-2.7
		c0-0.9,0.3-1.8,0.9-2.5c0.7-0.9,1.7-1.4,2.9-1.4c1.3,0,2.3,0.5,3,1.4c0.5,0.7,0.8,1.5,0.8,2.5h-6.7c0,0.9,0.3,1.6,0.8,2.1
		s1.2,0.8,2,0.8c0.4,0,0.7-0.1,1.1-0.2c0.4-0.1,0.7-0.3,0.9-0.5C145.1,27.5,145.4,27.2,145.7,26.7z M145.7,24.7
		c-0.1-0.5-0.3-0.9-0.6-1.2c-0.2-0.3-0.6-0.6-1-0.7s-0.8-0.3-1.3-0.3c-0.7,0-1.4,0.2-1.9,0.7c-0.4,0.3-0.7,0.9-0.9,1.5H145.7z"/>
	<path d="M155.8,23.3l-0.8,0.5c-0.7-0.9-1.5-1.3-2.7-1.3c-0.9,0-1.7,0.3-2.3,0.9s-0.9,1.3-0.9,2.1c0,0.5,0.1,1.1,0.4,1.5
		c0.3,0.5,0.7,0.8,1.1,1.1c0.5,0.3,1,0.4,1.6,0.4c1.1,0,2-0.4,2.7-1.3l0.8,0.5c-0.4,0.5-0.8,1-1.4,1.2c-0.6,0.3-1.3,0.4-2,0.4
		c-1.2,0-2.2-0.4-2.9-1.1s-1.2-1.7-1.2-2.7c0-0.7,0.2-1.4,0.5-2s0.9-1.1,1.5-1.4s1.3-0.5,2.1-0.5c0.5,0,1,0.1,1.4,0.2
		s0.8,0.3,1.2,0.6S155.5,22.9,155.8,23.3z"/>
	<path d="M165,21.7v7.4h-0.9v-1.3c-0.4,0.5-0.9,0.9-1.4,1.1s-1,0.4-1.6,0.4c-1.1,0-2-0.4-2.7-1.1s-1.1-1.7-1.1-2.8
		c0-1.1,0.4-2,1.1-2.7s1.7-1.1,2.7-1.1c0.6,0,1.2,0.1,1.7,0.4s0.9,0.6,1.3,1.2v-1.4H165z M161.2,22.5c-0.5,0-1,0.1-1.5,0.4
		s-0.8,0.6-1.1,1.1c-0.3,0.5-0.4,1-0.4,1.5c0,0.5,0.1,1,0.4,1.5c0.3,0.5,0.6,0.9,1.1,1.1c0.5,0.3,0.9,0.4,1.5,0.4
		c0.5,0,1-0.1,1.5-0.4c0.5-0.3,0.8-0.6,1.1-1.1c0.3-0.5,0.4-1,0.4-1.5c0-0.9-0.3-1.6-0.9-2.2S162,22.5,161.2,22.5z"/>
</g>
<g>
	<path d="M77.6,54l-0.8,0.6c-0.4-0.6-1-1-1.6-1.3s-1.3-0.4-2-0.4c-0.8,0-1.5,0.2-2.2,0.6s-1.2,0.9-1.6,1.6s-0.6,1.4-0.6,2.2
		c0,1.2,0.4,2.2,1.3,3.1s1.9,1.2,3.2,1.2c1.4,0,2.6-0.6,3.5-1.7l0.8,0.6c-0.5,0.6-1.1,1.1-1.9,1.5s-1.6,0.5-2.5,0.5
		c-1.8,0-3.1-0.6-4.2-1.8c-0.9-1-1.3-2.2-1.3-3.6c0-1.5,0.5-2.7,1.5-3.7s2.3-1.5,3.9-1.5c0.9,0,1.8,0.2,2.5,0.6S77.1,53.4,77.6,54z"
		/>
	<path d="M87.5,54.8h0.3l2.5,7.4h-1l-1.8-5.5l-2.9,5.5h-0.2l-2.9-5.5l-1.8,5.5h-1l2.5-7.4h0.3l3,5.8L87.5,54.8z"/>
	<path d="M98,59.8l0.8,0.4c-0.3,0.5-0.6,0.9-0.9,1.3s-0.7,0.6-1.2,0.7s-0.9,0.2-1.5,0.2c-1.2,0-2.2-0.4-2.8-1.2s-1-1.7-1-2.7
		c0-0.9,0.3-1.8,0.9-2.5c0.7-0.9,1.7-1.4,2.9-1.4c1.3,0,2.3,0.5,3,1.4c0.5,0.7,0.8,1.5,0.8,2.5h-6.7c0,0.9,0.3,1.6,0.8,2.1
		s1.2,0.8,2,0.8c0.4,0,0.7-0.1,1.1-0.2c0.4-0.1,0.7-0.3,0.9-0.5C97.5,60.6,97.7,60.3,98,59.8z M98,57.8c-0.1-0.5-0.3-0.9-0.6-1.2
		c-0.2-0.3-0.6-0.6-1-0.7s-0.8-0.3-1.3-0.3c-0.7,0-1.4,0.2-1.9,0.7c-0.4,0.3-0.7,0.9-0.9,1.5H98z"/>
	<path d="M112,62.2h-11.1v-7.4h1v6.5h4.1v-6.5h1v6.5h4.1v-6.5h1V62.2z"/>
	<path d="M121.5,54.8v7.4h-0.9V61c-0.4,0.5-0.9,0.9-1.4,1.1s-1,0.4-1.6,0.4c-1.1,0-2-0.4-2.7-1.1s-1.1-1.7-1.1-2.8
		c0-1.1,0.4-2,1.1-2.7s1.7-1.1,2.7-1.1c0.6,0,1.2,0.1,1.7,0.4s0.9,0.6,1.3,1.2v-1.4H121.5z M117.7,55.5c-0.5,0-1,0.1-1.5,0.4
		s-0.8,0.6-1.1,1.1c-0.3,0.5-0.4,1-0.4,1.5c0,0.5,0.1,1,0.4,1.5c0.3,0.5,0.6,0.9,1.1,1.1c0.5,0.3,0.9,0.4,1.5,0.4
		c0.5,0,1-0.1,1.5-0.4c0.5-0.3,0.8-0.6,1.1-1.1c0.3-0.5,0.4-1,0.4-1.5c0-0.9-0.3-1.6-0.9-2.2S118.5,55.5,117.7,55.5z"/>
	<path d="M128.9,58.7h-4.3v3.6h-1v-7.4h1v3h4.3v-3h1v7.4h-1V58.7z"/>
	<path d="M137.3,58.7H133v3.6h-1v-7.4h1v3h4.3v-3h1v7.4h-1V58.7z"/>
	<path d="M141.4,57.7h0.9c0.7,0,1.3,0.1,1.7,0.2c0.4,0.1,0.8,0.4,1.1,0.8c0.3,0.4,0.4,0.8,0.4,1.3c0,0.6-0.2,1.1-0.6,1.6
		c-0.4,0.4-1.1,0.7-2,0.7h-2.5v-7.4h1V57.7z M141.4,58.6v2.8h1.1c1.3,0,1.9-0.5,1.9-1.4c0-0.3-0.1-0.5-0.2-0.8s-0.3-0.4-0.6-0.5
		s-0.7-0.2-1.4-0.2H141.4z M146.8,54.8h1v7.4h-1V54.8z"/>
	<path d="M156.1,59.8l0.8,0.4c-0.3,0.5-0.6,0.9-0.9,1.3s-0.7,0.6-1.2,0.7s-0.9,0.2-1.5,0.2c-1.2,0-2.2-0.4-2.8-1.2s-1-1.7-1-2.7
		c0-0.9,0.3-1.8,0.9-2.5c0.7-0.9,1.7-1.4,2.9-1.4c1.3,0,2.3,0.5,3,1.4c0.5,0.7,0.8,1.5,0.8,2.5h-6.7c0,0.9,0.3,1.6,0.8,2.1
		s1.2,0.8,2,0.8c0.4,0,0.7-0.1,1.1-0.2c0.4-0.1,0.7-0.3,0.9-0.5C155.5,60.6,155.8,60.3,156.1,59.8z M156.1,57.8
		c-0.1-0.5-0.3-0.9-0.6-1.2c-0.2-0.3-0.6-0.6-1-0.7s-0.8-0.3-1.3-0.3c-0.7,0-1.4,0.2-1.9,0.7c-0.4,0.3-0.7,0.9-0.9,1.5H156.1z"/>
	<path d="M169.1,62.2h-1l-2.5-5.4l-2.5,5.4h-1l3.4-7.4h0.2L169.1,62.2z"/>
	<path d="M176.8,59.8l0.8,0.4c-0.3,0.5-0.6,0.9-0.9,1.3s-0.7,0.6-1.2,0.7s-0.9,0.2-1.5,0.2c-1.2,0-2.2-0.4-2.8-1.2s-1-1.7-1-2.7
		c0-0.9,0.3-1.8,0.9-2.5c0.7-0.9,1.7-1.4,2.9-1.4c1.3,0,2.3,0.5,3,1.4c0.5,0.7,0.8,1.5,0.8,2.5h-6.7c0,0.9,0.3,1.6,0.8,2.1
		s1.2,0.8,2,0.8c0.4,0,0.7-0.1,1.1-0.2c0.4-0.1,0.7-0.3,0.9-0.5C176.2,60.6,176.5,60.3,176.8,59.8z M176.8,57.8
		c-0.1-0.5-0.3-0.9-0.6-1.2c-0.2-0.3-0.6-0.6-1-0.7s-0.8-0.3-1.3-0.3c-0.7,0-1.4,0.2-1.9,0.7c-0.4,0.3-0.7,0.9-0.9,1.5H176.8z"/>
	<path d="M186.8,56.3l-0.8,0.5c-0.7-0.9-1.5-1.3-2.7-1.3c-0.9,0-1.7,0.3-2.3,0.9s-0.9,1.3-0.9,2.1c0,0.5,0.1,1.1,0.4,1.5
		c0.3,0.5,0.7,0.8,1.1,1.1c0.5,0.3,1,0.4,1.6,0.4c1.1,0,2-0.4,2.7-1.3l0.8,0.5c-0.4,0.5-0.8,1-1.4,1.2c-0.6,0.3-1.3,0.4-2,0.4
		c-1.2,0-2.2-0.4-2.9-1.1s-1.2-1.7-1.2-2.7c0-0.7,0.2-1.4,0.5-2s0.9-1.1,1.5-1.4s1.3-0.5,2.1-0.5c0.5,0,1,0.1,1.4,0.2
		s0.8,0.3,1.2,0.6S186.6,56,186.8,56.3z"/>
	<path d="M196.1,54.8v7.4h-0.9V61c-0.4,0.5-0.9,0.9-1.4,1.1s-1,0.4-1.6,0.4c-1.1,0-2-0.4-2.7-1.1s-1.1-1.7-1.1-2.8
		c0-1.1,0.4-2,1.1-2.7s1.7-1.1,2.7-1.1c0.6,0,1.2,0.1,1.7,0.4s0.9,0.6,1.3,1.2v-1.4H196.1z M192.3,55.5c-0.5,0-1,0.1-1.5,0.4
		s-0.8,0.6-1.1,1.1c-0.3,0.5-0.4,1-0.4,1.5c0,0.5,0.1,1,0.4,1.5c0.3,0.5,0.6,0.9,1.1,1.1c0.5,0.3,0.9,0.4,1.5,0.4
		c0.5,0,1-0.1,1.5-0.4c0.5-0.3,0.8-0.6,1.1-1.1c0.3-0.5,0.4-1,0.4-1.5c0-0.9-0.3-1.6-0.9-2.2S193.1,55.5,192.3,55.5z"/>
</g>
<g>
	<path d="M76.4,91.3h-1.1l-3.3-7.8l-3.4,7.8h-1.1l4.4-10.1h0.2L76.4,91.3z"/>
	<path d="M78.9,83.8v5.5l5.5-5.5h0.1v7.4h-1v-5.5L78,91.3h-0.1v-7.4H78.9z"/>
	<path d="M93.7,85.4L93,85.9c-0.7-0.9-1.5-1.3-2.7-1.3c-0.9,0-1.7,0.3-2.3,0.9s-0.9,1.3-0.9,2.1c0,0.5,0.1,1.1,0.4,1.5
		c0.3,0.5,0.7,0.8,1.1,1.1c0.5,0.3,1,0.4,1.6,0.4c1.1,0,2-0.4,2.7-1.3l0.8,0.5c-0.4,0.5-0.8,1-1.4,1.2c-0.6,0.3-1.3,0.4-2,0.4
		c-1.2,0-2.2-0.4-2.9-1.1s-1.2-1.7-1.2-2.7c0-0.7,0.2-1.4,0.5-2s0.9-1.1,1.5-1.4s1.3-0.5,2.1-0.5c0.5,0,1,0.1,1.4,0.2
		s0.8,0.3,1.2,0.6S93.5,85,93.7,85.4z"/>
	<path d="M94.7,83.8h4.9v0.8h-2v6.6h-1v-6.6h-2V83.8z"/>
	<path d="M103.1,91.3h-2.2v-7.4h2.1c0.8,0,1.4,0.2,1.8,0.6c0.4,0.4,0.5,0.8,0.5,1.3c0,0.8-0.3,1.3-1,1.5c1,0.3,1.4,1,1.4,2
		C105.8,90.6,104.9,91.3,103.1,91.3z M101.9,84.7V87h0.6c0.6,0,0.9,0,1.1-0.1c0.2,0,0.3-0.2,0.5-0.3c0.2-0.2,0.2-0.4,0.2-0.7
		c0-0.3-0.1-0.6-0.2-0.8c-0.2-0.2-0.3-0.3-0.5-0.4c-0.2,0-0.5-0.1-1.1-0.1H101.9z M101.9,87.9v2.6h1c0.5,0,0.8,0,1-0.1
		c0.2-0.1,0.4-0.2,0.5-0.4s0.2-0.5,0.2-0.8c0-0.4-0.1-0.7-0.4-1s-0.6-0.4-1-0.4H101.9z"/>
	<path d="M113.8,88.8l0.8,0.4c-0.3,0.5-0.6,0.9-0.9,1.3s-0.7,0.6-1.2,0.7s-0.9,0.2-1.5,0.2c-1.2,0-2.2-0.4-2.8-1.2s-1-1.7-1-2.7
		c0-0.9,0.3-1.8,0.9-2.5c0.7-0.9,1.7-1.4,2.9-1.4c1.3,0,2.3,0.5,3,1.4c0.5,0.7,0.8,1.5,0.8,2.5h-6.7c0,0.9,0.3,1.6,0.8,2.1
		s1.2,0.8,2,0.8c0.4,0,0.7-0.1,1.1-0.2c0.4-0.1,0.7-0.3,0.9-0.5C113.2,89.7,113.5,89.3,113.8,88.8z M113.8,86.8
		c-0.1-0.5-0.3-0.9-0.6-1.2c-0.2-0.3-0.6-0.6-1-0.7s-0.8-0.3-1.3-0.3c-0.7,0-1.4,0.2-1.9,0.7c-0.4,0.3-0.7,0.9-0.9,1.5H113.8z"/>
	<path d="M121.9,87.7h-4.3v3.6h-1v-7.4h1v3h4.3v-3h1v7.4h-1V87.7z"/>
	<path d="M130.2,87.7h-4.3v3.6h-1v-7.4h1v3h4.3v-3h1v7.4h-1V87.7z"/>
	<path d="M134.3,86.8h0.9c0.7,0,1.3,0.1,1.7,0.2c0.4,0.1,0.8,0.4,1.1,0.8c0.3,0.4,0.4,0.8,0.4,1.3c0,0.6-0.2,1.1-0.6,1.6
		c-0.4,0.4-1.1,0.7-2,0.7h-2.5v-7.4h1V86.8z M134.3,87.7v2.8h1.1c1.3,0,1.9-0.5,1.9-1.4c0-0.3-0.1-0.5-0.2-0.8s-0.3-0.4-0.6-0.5
		s-0.7-0.2-1.4-0.2H134.3z M139.7,83.8h1v7.4h-1V83.8z"/>
	<path d="M149,88.8l0.8,0.4c-0.3,0.5-0.6,0.9-0.9,1.3s-0.7,0.6-1.2,0.7s-0.9,0.2-1.5,0.2c-1.2,0-2.2-0.4-2.8-1.2s-1-1.7-1-2.7
		c0-0.9,0.3-1.8,0.9-2.5c0.7-0.9,1.7-1.4,2.9-1.4c1.3,0,2.3,0.5,3,1.4c0.5,0.7,0.8,1.5,0.8,2.5h-6.7c0,0.9,0.3,1.6,0.8,2.1
		s1.2,0.8,2,0.8c0.4,0,0.7-0.1,1.1-0.2c0.4-0.1,0.7-0.3,0.9-0.5C148.4,89.7,148.7,89.3,149,88.8z M149,86.8
		c-0.1-0.5-0.3-0.9-0.6-1.2c-0.2-0.3-0.6-0.6-1-0.7s-0.8-0.3-1.3-0.3c-0.7,0-1.4,0.2-1.9,0.7c-0.4,0.3-0.7,0.9-0.9,1.5H149z"/>
	<path d="M162,91.3h-1l-2.5-5.4l-2.5,5.4h-1l3.4-7.4h0.2L162,91.3z"/>
	<path d="M169.7,88.8l0.8,0.4c-0.3,0.5-0.6,0.9-0.9,1.3s-0.7,0.6-1.2,0.7s-0.9,0.2-1.5,0.2c-1.2,0-2.2-0.4-2.8-1.2s-1-1.7-1-2.7
		c0-0.9,0.3-1.8,0.9-2.5c0.7-0.9,1.7-1.4,2.9-1.4c1.3,0,2.3,0.5,3,1.4c0.5,0.7,0.8,1.5,0.8,2.5h-6.7c0,0.9,0.3,1.6,0.8,2.1
		s1.2,0.8,2,0.8c0.4,0,0.7-0.1,1.1-0.2c0.4-0.1,0.7-0.3,0.9-0.5C169.2,89.7,169.4,89.3,169.7,88.8z M169.7,86.8
		c-0.1-0.5-0.3-0.9-0.6-1.2c-0.2-0.3-0.6-0.6-1-0.7s-0.8-0.3-1.3-0.3c-0.7,0-1.4,0.2-1.9,0.7c-0.4,0.3-0.7,0.9-0.9,1.5H169.7z"/>
	<path d="M179.8,85.4l-0.8,0.5c-0.7-0.9-1.5-1.3-2.7-1.3c-0.9,0-1.7,0.3-2.3,0.9s-0.9,1.3-0.9,2.1c0,0.5,0.1,1.1,0.4,1.5
		c0.3,0.5,0.7,0.8,1.1,1.1c0.5,0.3,1,0.4,1.6,0.4c1.1,0,2-0.4,2.7-1.3l0.8,0.5c-0.4,0.5-0.8,1-1.4,1.2c-0.6,0.3-1.3,0.4-2,0.4
		c-1.2,0-2.2-0.4-2.9-1.1s-1.2-1.7-1.2-2.7c0-0.7,0.2-1.4,0.5-2s0.9-1.1,1.5-1.4s1.3-0.5,2.1-0.5c0.5,0,1,0.1,1.4,0.2
		s0.8,0.3,1.2,0.6S179.6,85,179.8,85.4z"/>
	<path d="M189,83.8v7.4h-0.9V90c-0.4,0.5-0.9,0.9-1.4,1.1s-1,0.4-1.6,0.4c-1.1,0-2-0.4-2.7-1.1s-1.1-1.7-1.1-2.8
		c0-1.1,0.4-2,1.1-2.7s1.7-1.1,2.7-1.1c0.6,0,1.2,0.1,1.7,0.4s0.9,0.6,1.3,1.2v-1.4H189z M185.2,84.6c-0.5,0-1,0.1-1.5,0.4
		s-0.8,0.6-1.1,1.1c-0.3,0.5-0.4,1-0.4,1.5c0,0.5,0.1,1,0.4,1.5c0.3,0.5,0.6,0.9,1.1,1.1c0.5,0.3,0.9,0.4,1.5,0.4
		c0.5,0,1-0.1,1.5-0.4c0.5-0.3,0.8-0.6,1.1-1.1c0.3-0.5,0.4-1,0.4-1.5c0-0.9-0.3-1.6-0.9-2.2S186,84.6,185.2,84.6z"/>
</g>
<rect x="13" y="108" class="st3" width="41.1" height="22.6"/>
<rect x="13.4" y="140.7" class="st4" width="41.1" height="22.6"/>
<rect x="13.4" y="172" class="st5" width="41.1" height="22.6"/>
<rect x="13.4" y="204" class="st6" width="41.1" height="22.6"/>
<rect x="13" y="236" class="st7" width="41.1" height="22.6"/>
<rect x="13.4" y="268" class="st8" width="41.1" height="22.6"/>
<rect x="13" y="300" class="st9" width="41.1" height="22.6"/>
<g>
	<path d="M76.4,123.1h-1.1l-3.3-7.8l-3.4,7.8h-1.1l4.4-10.1h0.2L76.4,123.1z"/>
	<path d="M77.1,115.7h1l2.6,5.7l2.5-5.7h1l-4.4,10.2h-1l1.4-3.3L77.1,115.7z"/>
	<path d="M86.4,116.5v6.6h-1v-7.4h3.8v0.8H86.4z"/>
	<path d="M94,115.5c1.1,0,2.1,0.4,2.8,1.2c0.7,0.8,1,1.7,1,2.7c0,1-0.4,1.9-1.1,2.7s-1.7,1.2-2.8,1.2c-1.1,0-2.1-0.4-2.8-1.2
		s-1.1-1.7-1.1-2.7c0-1,0.3-1.9,1-2.7C91.9,115.9,92.8,115.5,94,115.5z M94,116.4c-0.8,0-1.5,0.3-2.1,0.9s-0.9,1.3-0.9,2.1
		c0,0.5,0.1,1,0.4,1.5s0.6,0.8,1.1,1.1c0.4,0.3,0.9,0.4,1.5,0.4c0.5,0,1-0.1,1.5-0.4c0.4-0.3,0.8-0.6,1.1-1.1s0.4-1,0.4-1.5
		c0-0.8-0.3-1.5-0.9-2.1C95.4,116.7,94.8,116.4,94,116.4z"/>
	<path d="M101.8,123.1h-2.2v-7.4h2.1c0.8,0,1.4,0.2,1.8,0.6c0.4,0.4,0.5,0.8,0.5,1.3c0,0.8-0.3,1.3-1,1.5c1,0.3,1.4,1,1.4,2
		C104.5,122.4,103.6,123.1,101.8,123.1z M100.6,116.5v2.3h0.6c0.6,0,0.9,0,1.1-0.1c0.2,0,0.3-0.2,0.5-0.3c0.2-0.2,0.2-0.4,0.2-0.7
		c0-0.3-0.1-0.6-0.2-0.8c-0.2-0.2-0.3-0.3-0.5-0.4c-0.2,0-0.5-0.1-1.1-0.1H100.6z M100.6,119.7v2.6h1c0.5,0,0.8,0,1-0.1
		c0.2-0.1,0.4-0.2,0.5-0.4s0.2-0.5,0.2-0.8c0-0.4-0.1-0.7-0.4-1s-0.6-0.4-1-0.4H100.6z"/>
	<path d="M113.6,115.7v7.4h-0.9v-1.3c-0.4,0.5-0.9,0.9-1.4,1.1s-1,0.4-1.6,0.4c-1.1,0-2-0.4-2.7-1.1s-1.1-1.7-1.1-2.8
		c0-1.1,0.4-2,1.1-2.7s1.7-1.1,2.7-1.1c0.6,0,1.2,0.1,1.7,0.4s0.9,0.6,1.3,1.2v-1.4H113.6z M109.8,116.4c-0.5,0-1,0.1-1.5,0.4
		s-0.8,0.6-1.1,1.1c-0.3,0.5-0.4,1-0.4,1.5c0,0.5,0.1,1,0.4,1.5c0.3,0.5,0.6,0.9,1.1,1.1c0.5,0.3,0.9,0.4,1.5,0.4
		c0.5,0,1-0.1,1.5-0.4c0.5-0.3,0.8-0.6,1.1-1.1c0.3-0.5,0.4-1,0.4-1.5c0-0.9-0.3-1.6-0.9-2.2S110.6,116.4,109.8,116.4z"/>
	<path d="M118.9,119.8h-0.7l-2.1,3.3h-1l2.2-3.4c-0.6-0.1-1-0.3-1.4-0.6c-0.3-0.4-0.5-0.8-0.5-1.3c0-0.7,0.2-1.2,0.6-1.5
		s0.9-0.5,1.6-0.5h2.3v7.4h-1V119.8z M118.9,116.5h-0.6c-0.6,0-1,0-1.2,0.1s-0.4,0.2-0.5,0.4s-0.2,0.4-0.2,0.8
		c0,0.3,0.1,0.6,0.2,0.8s0.3,0.3,0.5,0.4s0.6,0.1,1.1,0.1h0.6V116.5z"/>
	<path d="M125.9,115.7h1v1.4c0.4-0.5,0.8-0.9,1.3-1.2s1-0.4,1.6-0.4c1.1,0,2,0.4,2.7,1.1c0.8,0.8,1.1,1.7,1.1,2.7
		c0,1.1-0.4,2-1.1,2.8c-0.7,0.8-1.6,1.1-2.7,1.1c-0.6,0-1.1-0.1-1.6-0.4s-0.9-0.6-1.3-1.1v4h-1V115.7z M129.7,116.4
		c-0.8,0-1.5,0.3-2.1,0.9c-0.6,0.6-0.8,1.3-0.8,2.2c0,0.6,0.1,1.1,0.4,1.5c0.3,0.5,0.6,0.8,1.1,1.1s1,0.4,1.5,0.4
		c0.5,0,1-0.1,1.4-0.4s0.8-0.6,1.1-1.1c0.3-0.5,0.4-1,0.4-1.5c0-0.5-0.1-1-0.4-1.5c-0.3-0.5-0.6-0.8-1.1-1.1
		S130.2,116.4,129.7,116.4z"/>
	<path d="M142.8,115.7v7.4h-0.9v-1.3c-0.4,0.5-0.9,0.9-1.4,1.1s-1,0.4-1.6,0.4c-1.1,0-2-0.4-2.7-1.1s-1.1-1.7-1.1-2.8
		c0-1.1,0.4-2,1.1-2.7s1.7-1.1,2.7-1.1c0.6,0,1.2,0.1,1.7,0.4s0.9,0.6,1.3,1.2v-1.4H142.8z M139,116.4c-0.5,0-1,0.1-1.5,0.4
		s-0.8,0.6-1.1,1.1c-0.3,0.5-0.4,1-0.4,1.5c0,0.5,0.1,1,0.4,1.5c0.3,0.5,0.6,0.9,1.1,1.1c0.5,0.3,0.9,0.4,1.5,0.4
		c0.5,0,1-0.1,1.5-0.4c0.5-0.3,0.8-0.6,1.1-1.1c0.3-0.5,0.4-1,0.4-1.5c0-0.9-0.3-1.6-0.9-2.2S139.8,116.4,139,116.4z"/>
	<path d="M152.2,117.2l-0.8,0.5c-0.7-0.9-1.5-1.3-2.7-1.3c-0.9,0-1.7,0.3-2.3,0.9s-0.9,1.3-0.9,2.1c0,0.5,0.1,1.1,0.4,1.5
		c0.3,0.5,0.7,0.8,1.1,1.1c0.5,0.3,1,0.4,1.6,0.4c1.1,0,2-0.4,2.7-1.3l0.8,0.5c-0.4,0.5-0.8,1-1.4,1.2c-0.6,0.3-1.3,0.4-2,0.4
		c-1.2,0-2.2-0.4-2.9-1.1s-1.2-1.7-1.2-2.7c0-0.7,0.2-1.4,0.5-2s0.9-1.1,1.5-1.4s1.3-0.5,2.1-0.5c0.5,0,1,0.1,1.4,0.2
		s0.8,0.3,1.2,0.6S151.9,116.9,152.2,117.2z"/>
	<path d="M153.2,115.7h4.9v0.8h-2v6.6h-1v-6.6h-2V115.7z"/>
	<path d="M160.3,115.7v5.5l5.5-5.5h0.1v7.4h-1v-5.5l-5.4,5.5h-0.1v-7.4H160.3z"/>
	<path d="M167.2,115.7h4.9v0.8h-2v6.6h-1v-6.6h-2V115.7z"/>
	<path d="M179.6,120.7l0.8,0.4c-0.3,0.5-0.6,0.9-0.9,1.3s-0.7,0.6-1.2,0.7s-0.9,0.2-1.5,0.2c-1.2,0-2.2-0.4-2.8-1.2s-1-1.7-1-2.7
		c0-0.9,0.3-1.8,0.9-2.5c0.7-0.9,1.7-1.4,2.9-1.4c1.3,0,2.3,0.5,3,1.4c0.5,0.7,0.8,1.5,0.8,2.5H174c0,0.9,0.3,1.6,0.8,2.1
		s1.2,0.8,2,0.8c0.4,0,0.7-0.1,1.1-0.2c0.4-0.1,0.7-0.3,0.9-0.5C179.1,121.5,179.3,121.1,179.6,120.7z M179.6,118.6
		c-0.1-0.5-0.3-0.9-0.6-1.2c-0.2-0.3-0.6-0.6-1-0.7s-0.8-0.3-1.3-0.3c-0.7,0-1.4,0.2-1.9,0.7c-0.4,0.3-0.7,0.9-0.9,1.5H179.6z"/>
	<path d="M188.8,123.1h-1l-2.5-5.4l-2.5,5.4h-1l3.4-7.4h0.2L188.8,123.1z"/>
	<path d="M191.2,118.6h0.9c0.7,0,1.3,0.1,1.7,0.2s0.8,0.4,1.1,0.8s0.4,0.8,0.4,1.3c0,0.6-0.2,1.1-0.6,1.6s-1.1,0.7-1.9,0.7h-2.5
		v-7.4h1V118.6z M191.2,119.5v2.8h1.1c1.3,0,1.9-0.5,1.9-1.4c0-0.3-0.1-0.5-0.2-0.8s-0.3-0.4-0.6-0.5s-0.7-0.2-1.4-0.2H191.2z"/>
	<path d="M202.1,119.5h-4.3v3.6h-1v-7.4h1v3h4.3v-3h1v7.4h-1V119.5z"/>
	<path d="M208.7,115.5c1.1,0,2.1,0.4,2.8,1.2c0.7,0.8,1,1.7,1,2.7c0,1-0.4,1.9-1.1,2.7s-1.7,1.2-2.8,1.2c-1.1,0-2.1-0.4-2.8-1.2
		s-1.1-1.7-1.1-2.7c0-1,0.3-1.9,1-2.7C206.6,115.9,207.6,115.5,208.7,115.5z M208.7,116.4c-0.8,0-1.5,0.3-2.1,0.9s-0.9,1.3-0.9,2.1
		c0,0.5,0.1,1,0.4,1.5s0.6,0.8,1.1,1.1c0.4,0.3,0.9,0.4,1.5,0.4c0.5,0,1-0.1,1.5-0.4c0.4-0.3,0.8-0.6,1.1-1.1s0.4-1,0.4-1.5
		c0-0.8-0.3-1.5-0.9-2.1C210.2,116.7,209.5,116.4,208.7,116.4z"/>
	<path d="M221.6,117.2l-0.8,0.5c-0.7-0.9-1.5-1.3-2.7-1.3c-0.9,0-1.7,0.3-2.3,0.9s-0.9,1.3-0.9,2.1c0,0.5,0.1,1.1,0.4,1.5
		c0.3,0.5,0.7,0.8,1.1,1.1c0.5,0.3,1,0.4,1.6,0.4c1.1,0,2-0.4,2.7-1.3l0.8,0.5c-0.4,0.5-0.8,1-1.4,1.2c-0.6,0.3-1.3,0.4-2,0.4
		c-1.2,0-2.2-0.4-2.9-1.1s-1.2-1.7-1.2-2.7c0-0.7,0.2-1.4,0.5-2s0.9-1.1,1.5-1.4s1.3-0.5,2.1-0.5c0.5,0,1,0.1,1.4,0.2
		s0.8,0.3,1.2,0.6S221.3,116.9,221.6,117.2z"/>
	<path d="M222.6,115.7h4.9v0.8h-2v6.6h-1v-6.6h-2V115.7z"/>
	<path d="M229.7,118.6h0.9c0.7,0,1.3,0.1,1.7,0.2s0.8,0.4,1.1,0.8s0.4,0.8,0.4,1.3c0,0.6-0.2,1.1-0.6,1.6s-1.1,0.7-1.9,0.7h-2.5
		v-7.4h1V118.6z M229.8,119.5v2.8h1.1c1.3,0,1.9-0.5,1.9-1.4c0-0.3-0.1-0.5-0.2-0.8s-0.3-0.4-0.6-0.5s-0.7-0.2-1.4-0.2H229.8z"/>
</g>
<g>
	<path d="M68.2,145.2h7.1v10.1h-1v-9.1h-5.1v9.1h-1V145.2z"/>
	<path d="M85,147.8v7.4h-0.9V154c-0.4,0.5-0.9,0.9-1.4,1.1s-1,0.4-1.6,0.4c-1.1,0-2-0.4-2.7-1.1s-1.1-1.7-1.1-2.8
		c0-1.1,0.4-2,1.1-2.7s1.7-1.1,2.7-1.1c0.6,0,1.2,0.1,1.7,0.4s0.9,0.6,1.3,1.2v-1.4H85z M81.2,148.5c-0.5,0-1,0.1-1.5,0.4
		s-0.8,0.6-1.1,1.1c-0.3,0.5-0.4,1-0.4,1.5c0,0.5,0.1,1,0.4,1.5c0.3,0.5,0.6,0.9,1.1,1.1c0.5,0.3,0.9,0.4,1.5,0.4
		c0.5,0,1-0.1,1.5-0.4c0.5-0.3,0.8-0.6,1.1-1.1c0.3-0.5,0.4-1,0.4-1.5c0-0.9-0.3-1.6-0.9-2.2S82,148.5,81.2,148.5z"/>
	<path d="M86.3,147.8h1.1l2,2.7l2-2.7h1.2l-2.5,3.5l2.9,3.9h-1.2l-2.3-3.1l-2.3,3.1h-1.1l2.8-3.9L86.3,147.8z"/>
	<path d="M97.4,147.6c1.1,0,2.1,0.4,2.8,1.2c0.7,0.8,1,1.7,1,2.7c0,1-0.4,1.9-1.1,2.7s-1.7,1.2-2.8,1.2c-1.1,0-2.1-0.4-2.8-1.2
		s-1.1-1.7-1.1-2.7c0-1,0.3-1.9,1-2.7C95.3,148,96.3,147.6,97.4,147.6z M97.4,148.5c-0.8,0-1.5,0.3-2.1,0.9s-0.9,1.3-0.9,2.1
		c0,0.5,0.1,1,0.4,1.5s0.6,0.8,1.1,1.1c0.4,0.3,0.9,0.4,1.5,0.4c0.5,0,1-0.1,1.5-0.4c0.4-0.3,0.8-0.6,1.1-1.1s0.4-1,0.4-1.5
		c0-0.8-0.3-1.5-0.9-2.1C98.9,148.8,98.2,148.5,97.4,148.5z"/>
	<path d="M102.2,147.8h4.9v0.8h-2v6.6h-1v-6.6h-2V147.8z"/>
	<path d="M113.7,151.7h-4.3v3.6h-1v-7.4h1v3h4.3v-3h1v7.4h-1V151.7z"/>
	<path d="M117.8,150.7h0.9c0.7,0,1.3,0.1,1.7,0.2c0.4,0.1,0.8,0.4,1.1,0.8c0.3,0.4,0.4,0.8,0.4,1.3c0,0.6-0.2,1.1-0.6,1.6
		c-0.4,0.4-1.1,0.7-2,0.7h-2.5v-7.4h1V150.7z M117.8,151.6v2.8h1.1c1.3,0,1.9-0.5,1.9-1.4c0-0.3-0.1-0.5-0.2-0.8s-0.3-0.4-0.6-0.5
		s-0.7-0.2-1.4-0.2H117.8z M123.2,147.8h1v7.4h-1V147.8z"/>
	<path d="M132.5,152.8l0.8,0.4c-0.3,0.5-0.6,0.9-0.9,1.3s-0.7,0.6-1.2,0.7s-0.9,0.2-1.5,0.2c-1.2,0-2.2-0.4-2.8-1.2s-1-1.7-1-2.7
		c0-0.9,0.3-1.8,0.9-2.5c0.7-0.9,1.7-1.4,2.9-1.4c1.3,0,2.3,0.5,3,1.4c0.5,0.7,0.8,1.5,0.8,2.5h-6.7c0,0.9,0.3,1.6,0.8,2.1
		s1.2,0.8,2,0.8c0.4,0,0.7-0.1,1.1-0.2c0.4-0.1,0.7-0.3,0.9-0.5C131.9,153.6,132.2,153.3,132.5,152.8z M132.5,150.8
		c-0.1-0.5-0.3-0.9-0.6-1.2c-0.2-0.3-0.6-0.6-1-0.7s-0.8-0.3-1.3-0.3c-0.7,0-1.4,0.2-1.9,0.7c-0.4,0.3-0.7,0.9-0.9,1.5H132.5z"/>
	<path d="M140.4,150.9h0.5c0.3,0,0.6-0.1,0.9-0.3s0.4-0.5,0.4-0.9c0-0.3-0.1-0.6-0.3-0.9c-0.2-0.2-0.5-0.4-1-0.4
		c-0.5,0-1,0.2-1.5,0.6l-0.5-0.7c0.7-0.6,1.4-0.8,2.1-0.8c0.6,0,1.1,0.2,1.6,0.6s0.6,0.8,0.6,1.4c0,0.8-0.3,1.3-1,1.6
		c0.9,0.4,1.3,1,1.3,2c0,0.6-0.2,1.1-0.6,1.6s-1,0.7-1.9,0.7c-1,0-1.8-0.3-2.5-1l0.6-0.7c0.5,0.5,1,0.8,1.8,0.8
		c0.5,0,0.9-0.1,1.1-0.4s0.4-0.6,0.4-1c0-0.4-0.1-0.7-0.4-1s-0.6-0.4-1-0.4h-0.6V150.9z"/>
	<path d="M151.4,152.8l0.8,0.4c-0.3,0.5-0.6,0.9-0.9,1.3s-0.7,0.6-1.2,0.7s-0.9,0.2-1.5,0.2c-1.2,0-2.2-0.4-2.8-1.2s-1-1.7-1-2.7
		c0-0.9,0.3-1.8,0.9-2.5c0.7-0.9,1.7-1.4,2.9-1.4c1.3,0,2.3,0.5,3,1.4c0.5,0.7,0.8,1.5,0.8,2.5h-6.7c0,0.9,0.3,1.6,0.8,2.1
		s1.2,0.8,2,0.8c0.4,0,0.7-0.1,1.1-0.2c0.4-0.1,0.7-0.3,0.9-0.5C150.8,153.6,151.1,153.3,151.4,152.8z M151.4,150.8
		c-0.1-0.5-0.3-0.9-0.6-1.2c-0.2-0.3-0.6-0.6-1-0.7s-0.8-0.3-1.3-0.3c-0.7,0-1.4,0.2-1.9,0.7c-0.4,0.3-0.7,0.9-0.9,1.5H151.4z"/>
	<path d="M162.3,147.8h0.3l2.5,7.4h-1l-1.8-5.5l-2.9,5.5h-0.2l-2.9-5.5l-1.8,5.5h-1l2.5-7.4h0.3l3,5.8L162.3,147.8z"/>
	<path d="M172.8,155.2h-1l-2.5-5.4l-2.5,5.4h-1l3.4-7.4h0.2L172.8,155.2z"/>
	<path d="M175.2,147.8v5.5l5.5-5.5h0.1v7.4h-1v-5.5l-5.4,5.5h-0.1v-7.4H175.2z"/>
</g>
<g>
	<path d="M68.2,187.5v-10.1h5v1h-4v3.2h0.5c1.3,0,2.2,0.1,2.7,0.3s1,0.6,1.3,1s0.5,1,0.5,1.6c0,0.8-0.3,1.4-0.9,2s-1.4,0.9-2.4,0.9
		H68.2z M69.2,182.7v3.9h1.2c0.7,0,1.3-0.1,1.6-0.2s0.6-0.4,0.8-0.7s0.3-0.6,0.3-1c0-0.5-0.1-0.9-0.4-1.2s-0.6-0.5-1.1-0.6
		s-1.1-0.2-1.9-0.2H69.2z"/>
	<path d="M79.6,179.9c1.1,0,2.1,0.4,2.8,1.2c0.7,0.8,1,1.7,1,2.7c0,1-0.4,1.9-1.1,2.7s-1.7,1.2-2.8,1.2c-1.1,0-2.1-0.4-2.8-1.2
		s-1.1-1.7-1.1-2.7c0-1,0.3-1.9,1-2.7C77.5,180.3,78.5,179.9,79.6,179.9z M79.6,180.8c-0.8,0-1.5,0.3-2.1,0.9s-0.9,1.3-0.9,2.1
		c0,0.5,0.1,1,0.4,1.5s0.6,0.8,1.1,1.1c0.4,0.3,0.9,0.4,1.5,0.4c0.5,0,1-0.1,1.5-0.4c0.4-0.3,0.8-0.6,1.1-1.1s0.4-1,0.4-1.5
		c0-0.8-0.3-1.5-0.9-2.1C81.1,181.1,80.4,180.8,79.6,180.8z"/>
	<path d="M91.6,187.5h-1l-2.5-5.4l-2.5,5.4h-1l3.4-7.4h0.2L91.6,187.5z"/>
	<path d="M96.5,179.9c1.1,0,2.1,0.4,2.8,1.2c0.7,0.8,1,1.7,1,2.7c0,1-0.4,1.9-1.1,2.7s-1.7,1.2-2.8,1.2c-1.1,0-2.1-0.4-2.8-1.2
		s-1.1-1.7-1.1-2.7c0-1,0.3-1.9,1-2.7C94.4,180.3,95.4,179.9,96.5,179.9z M96.5,180.8c-0.8,0-1.5,0.3-2.1,0.9s-0.9,1.3-0.9,2.1
		c0,0.5,0.1,1,0.4,1.5s0.6,0.8,1.1,1.1c0.4,0.3,0.9,0.4,1.5,0.4c0.5,0,1-0.1,1.5-0.4c0.4-0.3,0.8-0.6,1.1-1.1s0.4-1,0.4-1.5
		c0-0.8-0.3-1.5-0.9-2.1C98,181.1,97.3,180.8,96.5,180.8z"/>
	<path d="M101.3,180.1h4.9v0.8h-2v6.6h-1v-6.6h-2V180.1z"/>
	<path d="M114.9,180.1v7.4H114v-1.3c-0.4,0.5-0.9,0.9-1.4,1.1s-1,0.4-1.6,0.4c-1.1,0-2-0.4-2.7-1.1s-1.1-1.7-1.1-2.8
		c0-1.1,0.4-2,1.1-2.7s1.7-1.1,2.7-1.1c0.6,0,1.2,0.1,1.7,0.4s0.9,0.6,1.3,1.2v-1.4H114.9z M111.1,180.8c-0.5,0-1,0.1-1.5,0.4
		s-0.8,0.6-1.1,1.1c-0.3,0.5-0.4,1-0.4,1.5c0,0.5,0.1,1,0.4,1.5c0.3,0.5,0.6,0.9,1.1,1.1c0.5,0.3,0.9,0.4,1.5,0.4
		c0.5,0,1-0.1,1.5-0.4c0.5-0.3,0.8-0.6,1.1-1.1c0.3-0.5,0.4-1,0.4-1.5c0-0.9-0.3-1.6-0.9-2.2S112,180.8,111.1,180.8z"/>
	<path d="M123.1,187.5H121v-7.4h2.1c0.8,0,1.4,0.2,1.8,0.6c0.4,0.4,0.5,0.8,0.5,1.3c0,0.8-0.3,1.3-1,1.5c1,0.3,1.4,1,1.4,2
		C125.8,186.8,124.9,187.5,123.1,187.5z M121.9,180.9v2.3h0.6c0.6,0,0.9,0,1.1-0.1c0.2,0,0.3-0.2,0.5-0.3c0.2-0.2,0.2-0.4,0.2-0.7
		c0-0.3-0.1-0.6-0.2-0.8c-0.2-0.2-0.3-0.3-0.5-0.4c-0.2,0-0.5-0.1-1.1-0.1H121.9z M121.9,184.1v2.6h1c0.5,0,0.8,0,1-0.1
		c0.2-0.1,0.4-0.2,0.5-0.4s0.2-0.5,0.2-0.8c0-0.4-0.1-0.7-0.4-1s-0.6-0.4-1-0.4H121.9z"/>
	<path d="M133.8,185l0.8,0.4c-0.3,0.5-0.6,0.9-0.9,1.3s-0.7,0.6-1.2,0.7s-0.9,0.2-1.5,0.2c-1.2,0-2.2-0.4-2.8-1.2s-1-1.7-1-2.7
		c0-0.9,0.3-1.8,0.9-2.5c0.7-0.9,1.7-1.4,2.9-1.4c1.3,0,2.3,0.5,3,1.4c0.5,0.7,0.8,1.5,0.8,2.5h-6.7c0,0.9,0.3,1.6,0.8,2.1
		s1.2,0.8,2,0.8c0.4,0,0.7-0.1,1.1-0.2c0.4-0.1,0.7-0.3,0.9-0.5C133.2,185.9,133.5,185.5,133.8,185z M133.8,183
		c-0.1-0.5-0.3-0.9-0.6-1.2c-0.2-0.3-0.6-0.6-1-0.7s-0.8-0.3-1.3-0.3c-0.7,0-1.4,0.2-1.9,0.7c-0.4,0.3-0.7,0.9-0.9,1.5H133.8z"/>
	<path d="M136.6,180.1h1v1.4c0.4-0.5,0.8-0.9,1.3-1.2s1-0.4,1.6-0.4c1.1,0,2,0.4,2.7,1.1c0.8,0.8,1.1,1.7,1.1,2.7
		c0,1.1-0.4,2-1.1,2.8c-0.7,0.8-1.6,1.1-2.7,1.1c-0.6,0-1.1-0.1-1.6-0.4s-0.9-0.6-1.3-1.1v4h-1V180.1z M140.5,180.8
		c-0.8,0-1.5,0.3-2.1,0.9c-0.6,0.6-0.8,1.3-0.8,2.2c0,0.6,0.1,1.1,0.4,1.5c0.3,0.5,0.6,0.8,1.1,1.1s1,0.4,1.5,0.4
		c0.5,0,1-0.1,1.4-0.4s0.8-0.6,1.1-1.1c0.3-0.5,0.4-1,0.4-1.5c0-0.5-0.1-1-0.4-1.5c-0.3-0.5-0.6-0.8-1.1-1.1S141,180.8,140.5,180.8z
		"/>
	<path d="M145.3,180.1h1.1l2,2.7l2-2.7h1.2l-2.5,3.5l2.9,3.9h-1.2l-2.3-3.1l-2.3,3.1h-1.1l2.8-3.9L145.3,180.1z"/>
	<path d="M156.4,179.9c1.1,0,2.1,0.4,2.8,1.2c0.7,0.8,1,1.7,1,2.7c0,1-0.4,1.9-1.1,2.7s-1.7,1.2-2.8,1.2c-1.1,0-2.1-0.4-2.8-1.2
		s-1.1-1.7-1.1-2.7c0-1,0.3-1.9,1-2.7C154.3,180.3,155.3,179.9,156.4,179.9z M156.4,180.8c-0.8,0-1.5,0.3-2.1,0.9s-0.9,1.3-0.9,2.1
		c0,0.5,0.1,1,0.4,1.5s0.6,0.8,1.1,1.1c0.4,0.3,0.9,0.4,1.5,0.4c0.5,0,1-0.1,1.5-0.4c0.4-0.3,0.8-0.6,1.1-1.1s0.4-1,0.4-1.5
		c0-0.8-0.3-1.5-0.9-2.1C157.9,181.1,157.2,180.8,156.4,180.8z"/>
	<path d="M164.2,187.5h-2.2v-7.4h2.1c0.8,0,1.4,0.2,1.8,0.6c0.4,0.4,0.5,0.8,0.5,1.3c0,0.8-0.3,1.3-1,1.5c1,0.3,1.4,1,1.4,2
		C166.9,186.8,166,187.5,164.2,187.5z M163,180.9v2.3h0.6c0.6,0,0.9,0,1.1-0.1c0.2,0,0.3-0.2,0.5-0.3c0.2-0.2,0.2-0.4,0.2-0.7
		c0-0.3-0.1-0.6-0.2-0.8c-0.2-0.2-0.3-0.3-0.5-0.4c-0.2,0-0.5-0.1-1.1-0.1H163z M163,184.1v2.6h1c0.5,0,0.8,0,1-0.1
		c0.2-0.1,0.4-0.2,0.5-0.4s0.2-0.5,0.2-0.8c0-0.4-0.1-0.7-0.4-1s-0.6-0.4-1-0.4H163z"/>
	<path d="M169.6,183h0.9c0.7,0,1.3,0.1,1.7,0.2c0.4,0.1,0.8,0.4,1.1,0.8c0.3,0.4,0.4,0.8,0.4,1.3c0,0.6-0.2,1.1-0.6,1.6
		c-0.4,0.4-1.1,0.7-2,0.7h-2.5v-7.4h1V183z M169.6,183.9v2.8h1.1c1.3,0,1.9-0.5,1.9-1.4c0-0.3-0.1-0.5-0.2-0.8s-0.3-0.4-0.6-0.5
		s-0.7-0.2-1.4-0.2H169.6z M175,180.1h1v7.4h-1V180.1z"/>
	<path d="M184.3,185l0.8,0.4c-0.3,0.5-0.6,0.9-0.9,1.3s-0.7,0.6-1.2,0.7s-0.9,0.2-1.5,0.2c-1.2,0-2.2-0.4-2.8-1.2s-1-1.7-1-2.7
		c0-0.9,0.3-1.8,0.9-2.5c0.7-0.9,1.7-1.4,2.9-1.4c1.3,0,2.3,0.5,3,1.4c0.5,0.7,0.8,1.5,0.8,2.5h-6.7c0,0.9,0.3,1.6,0.8,2.1
		s1.2,0.8,2,0.8c0.4,0,0.7-0.1,1.1-0.2c0.4-0.1,0.7-0.3,0.9-0.5C183.7,185.9,184,185.5,184.3,185z M184.3,183
		c-0.1-0.5-0.3-0.9-0.6-1.2c-0.2-0.3-0.6-0.6-1-0.7s-0.8-0.3-1.3-0.3c-0.7,0-1.4,0.2-1.9,0.7c-0.4,0.3-0.7,0.9-0.9,1.5H184.3z"/>
</g>
<g>
	<path d="M68.2,221.3v-10.1h5v1h-4v3.2h0.5c1.3,0,2.2,0.1,2.7,0.3c0.6,0.2,1,0.6,1.3,1c0.3,0.5,0.5,1,0.5,1.6c0,0.8-0.3,1.4-0.9,2
		c-0.6,0.6-1.4,0.9-2.4,0.9H68.2z M69.2,216.5v3.9h1.2c0.7,0,1.3-0.1,1.6-0.2s0.6-0.4,0.8-0.7c0.2-0.3,0.3-0.6,0.3-1
		c0-0.5-0.1-0.9-0.4-1.2c-0.3-0.3-0.6-0.5-1.1-0.6s-1.1-0.2-1.9-0.2H69.2z"/>
	<path d="M79.6,213.7c1.1,0,2.1,0.4,2.8,1.2c0.7,0.8,1,1.7,1,2.7c0,1-0.4,1.9-1.1,2.7c-0.7,0.8-1.7,1.2-2.8,1.2
		c-1.1,0-2.1-0.4-2.8-1.2c-0.7-0.8-1.1-1.7-1.1-2.7c0-1,0.3-1.9,1-2.7C77.5,214.1,78.5,213.7,79.6,213.7z M79.6,214.6
		c-0.8,0-1.5,0.3-2.1,0.9s-0.9,1.3-0.9,2.1c0,0.5,0.1,1,0.4,1.5s0.6,0.8,1.1,1.1c0.4,0.3,0.9,0.4,1.5,0.4c0.5,0,1-0.1,1.5-0.4
		c0.4-0.3,0.8-0.6,1.1-1.1s0.4-1,0.4-1.5c0-0.8-0.3-1.5-0.9-2.1C81.1,214.9,80.4,214.6,79.6,214.6z"/>
	<path d="M91.5,221.3h-1l-2.5-5.4l-2.5,5.4h-1l3.4-7.4h0.2L91.5,221.3z"/>
	<path d="M96.5,213.7c1.1,0,2.1,0.4,2.8,1.2c0.7,0.8,1,1.7,1,2.7c0,1-0.4,1.9-1.1,2.7c-0.7,0.8-1.7,1.2-2.8,1.2
		c-1.1,0-2.1-0.4-2.8-1.2c-0.7-0.8-1.1-1.7-1.1-2.7c0-1,0.3-1.9,1-2.7C94.4,214.1,95.4,213.7,96.5,213.7z M96.5,214.6
		c-0.8,0-1.5,0.3-2.1,0.9s-0.9,1.3-0.9,2.1c0,0.5,0.1,1,0.4,1.5s0.6,0.8,1.1,1.1c0.4,0.3,0.9,0.4,1.5,0.4c0.5,0,1-0.1,1.5-0.4
		c0.4-0.3,0.8-0.6,1.1-1.1s0.4-1,0.4-1.5c0-0.8-0.3-1.5-0.9-2.1C98,214.9,97.3,214.6,96.5,214.6z"/>
	<path d="M101.3,213.9h4.9v0.8h-2v6.6h-1v-6.6h-2V213.9z"/>
	<path d="M114.9,213.9v7.4H114v-1.3c-0.4,0.5-0.9,0.9-1.4,1.1s-1,0.4-1.6,0.4c-1.1,0-2-0.4-2.7-1.1c-0.7-0.8-1.1-1.7-1.1-2.8
		c0-1.1,0.4-2,1.1-2.7c0.8-0.8,1.7-1.1,2.7-1.1c0.6,0,1.2,0.1,1.7,0.4s0.9,0.6,1.3,1.2v-1.4H114.9z M111.1,214.6
		c-0.5,0-1,0.1-1.5,0.4s-0.8,0.6-1.1,1.1c-0.3,0.5-0.4,1-0.4,1.5c0,0.5,0.1,1,0.4,1.5s0.6,0.9,1.1,1.1c0.5,0.3,0.9,0.4,1.5,0.4
		c0.5,0,1-0.1,1.5-0.4c0.5-0.3,0.8-0.6,1.1-1.1c0.3-0.5,0.4-1,0.4-1.5c0-0.9-0.3-1.6-0.9-2.2S111.9,214.6,111.1,214.6z"/>
	<path d="M121,213.9h6.2v7.4h-1v-6.5h-4.3v6.5h-1V213.9z"/>
	<path d="M135.6,218.9l0.8,0.4c-0.3,0.5-0.6,0.9-0.9,1.3c-0.3,0.3-0.7,0.6-1.2,0.7c-0.4,0.2-0.9,0.2-1.5,0.2c-1.2,0-2.2-0.4-2.8-1.2
		c-0.7-0.8-1-1.7-1-2.7c0-0.9,0.3-1.8,0.9-2.5c0.7-0.9,1.7-1.4,2.9-1.4c1.3,0,2.3,0.5,3,1.4c0.5,0.7,0.8,1.5,0.8,2.5H130
		c0,0.9,0.3,1.6,0.8,2.1c0.5,0.6,1.2,0.8,2,0.8c0.4,0,0.7-0.1,1.1-0.2c0.4-0.1,0.7-0.3,0.9-0.5S135.3,219.4,135.6,218.9z
		 M135.6,216.9c-0.1-0.5-0.3-0.9-0.6-1.2c-0.2-0.3-0.6-0.6-1-0.7c-0.4-0.2-0.8-0.3-1.3-0.3c-0.7,0-1.4,0.2-1.9,0.7
		c-0.4,0.3-0.7,0.9-0.9,1.5H135.6z"/>
	<path d="M138.5,213.9h1v1.4c0.4-0.5,0.8-0.9,1.3-1.2s1-0.4,1.6-0.4c1.1,0,2,0.4,2.7,1.1c0.8,0.8,1.1,1.7,1.1,2.7
		c0,1.1-0.4,2-1.1,2.8c-0.7,0.8-1.6,1.1-2.7,1.1c-0.6,0-1.1-0.1-1.6-0.4s-0.9-0.6-1.3-1.1v4h-1V213.9z M142.3,214.6
		c-0.8,0-1.5,0.3-2.1,0.9c-0.6,0.6-0.8,1.3-0.8,2.2c0,0.6,0.1,1.1,0.4,1.5s0.6,0.8,1.1,1.1c0.5,0.3,1,0.4,1.5,0.4
		c0.5,0,1-0.1,1.4-0.4c0.5-0.3,0.8-0.6,1.1-1.1c0.3-0.5,0.4-1,0.4-1.5c0-0.5-0.1-1-0.4-1.5c-0.3-0.5-0.6-0.8-1.1-1.1
		S142.8,214.6,142.3,214.6z"/>
	<path d="M154.3,218.9l0.8,0.4c-0.3,0.5-0.6,0.9-0.9,1.3c-0.3,0.3-0.7,0.6-1.2,0.7c-0.4,0.2-0.9,0.2-1.5,0.2c-1.2,0-2.2-0.4-2.8-1.2
		c-0.7-0.8-1-1.7-1-2.7c0-0.9,0.3-1.8,0.9-2.5c0.7-0.9,1.7-1.4,2.9-1.4c1.3,0,2.3,0.5,3,1.4c0.5,0.7,0.8,1.5,0.8,2.5h-6.7
		c0,0.9,0.3,1.6,0.8,2.1c0.5,0.6,1.2,0.8,2,0.8c0.4,0,0.7-0.1,1.1-0.2c0.4-0.1,0.7-0.3,0.9-0.5S154,219.4,154.3,218.9z M154.3,216.9
		c-0.1-0.5-0.3-0.9-0.6-1.2c-0.2-0.3-0.6-0.6-1-0.7c-0.4-0.2-0.8-0.3-1.3-0.3c-0.7,0-1.4,0.2-1.9,0.7c-0.4,0.3-0.7,0.9-0.9,1.5
		H154.3z"/>
	<path d="M156.2,213.9h1.1l2,2.7l2-2.7h1.2l-2.5,3.5l2.9,3.9h-1.2l-2.3-3.1l-2.3,3.1H156l2.8-3.9L156.2,213.9z"/>
	<path d="M167.3,213.7c1.1,0,2.1,0.4,2.8,1.2c0.7,0.8,1,1.7,1,2.7c0,1-0.4,1.9-1.1,2.7c-0.7,0.8-1.7,1.2-2.8,1.2
		c-1.1,0-2.1-0.4-2.8-1.2c-0.7-0.8-1.1-1.7-1.1-2.7c0-1,0.3-1.9,1-2.7C165.2,214.1,166.2,213.7,167.3,213.7z M167.3,214.6
		c-0.8,0-1.5,0.3-2.1,0.9s-0.9,1.3-0.9,2.1c0,0.5,0.1,1,0.4,1.5s0.6,0.8,1.1,1.1c0.4,0.3,0.9,0.4,1.5,0.4c0.5,0,1-0.1,1.5-0.4
		c0.4-0.3,0.8-0.6,1.1-1.1s0.4-1,0.4-1.5c0-0.8-0.3-1.5-0.9-2.1C168.8,214.9,168.1,214.6,167.3,214.6z"/>
	<path d="M173,220.5l2.9-6.6h0.5l2.9,6.6h0.9v1.8h-0.9v-1h-6.2v1h-0.9v-1.8H173z M176.1,215.4l-2.2,5.1h4.3L176.1,215.4z"/>
	<path d="M186.7,217.8h-4.3v3.6h-1v-7.4h1v3h4.3v-3h1v7.4h-1V217.8z"/>
	<path d="M190.8,216.8h0.9c0.7,0,1.3,0.1,1.7,0.2c0.4,0.1,0.8,0.4,1.1,0.8c0.3,0.4,0.4,0.8,0.4,1.3c0,0.6-0.2,1.1-0.6,1.6
		c-0.4,0.4-1.1,0.7-2,0.7h-2.5v-7.4h1V216.8z M190.8,217.7v2.8h1.1c1.3,0,1.9-0.5,1.9-1.4c0-0.3-0.1-0.5-0.2-0.8
		c-0.1-0.3-0.3-0.4-0.6-0.5c-0.3-0.1-0.7-0.2-1.4-0.2H190.8z M196.2,213.9h1v7.4h-1V213.9z"/>
	<path d="M205.5,218.9l0.8,0.4c-0.3,0.5-0.6,0.9-0.9,1.3c-0.3,0.3-0.7,0.6-1.2,0.7c-0.4,0.2-0.9,0.2-1.5,0.2c-1.2,0-2.2-0.4-2.8-1.2
		c-0.7-0.8-1-1.7-1-2.7c0-0.9,0.3-1.8,0.9-2.5c0.7-0.9,1.7-1.4,2.9-1.4c1.3,0,2.3,0.5,3,1.4c0.5,0.7,0.8,1.5,0.8,2.5h-6.7
		c0,0.9,0.3,1.6,0.8,2.1c0.5,0.6,1.2,0.8,2,0.8c0.4,0,0.7-0.1,1.1-0.2c0.4-0.1,0.7-0.3,0.9-0.5S205.2,219.4,205.5,218.9z
		 M205.5,216.9c-0.1-0.5-0.3-0.9-0.6-1.2c-0.2-0.3-0.6-0.6-1-0.7c-0.4-0.2-0.8-0.3-1.3-0.3c-0.7,0-1.4,0.2-1.9,0.7
		c-0.4,0.3-0.7,0.9-0.9,1.5H205.5z"/>
</g>
<g>
	<path d="M68.2,251.8v-10.1h5v1h-4v3.2h0.5c1.3,0,2.2,0.1,2.7,0.3c0.6,0.2,1,0.6,1.3,1c0.3,0.5,0.5,1,0.5,1.6c0,0.8-0.3,1.4-0.9,2
		c-0.6,0.6-1.4,0.9-2.4,0.9H68.2z M69.2,246.9v3.9h1.2c0.7,0,1.3-0.1,1.6-0.2s0.6-0.4,0.8-0.7c0.2-0.3,0.3-0.6,0.3-1
		c0-0.5-0.1-0.9-0.4-1.2c-0.3-0.3-0.6-0.5-1.1-0.6s-1.1-0.2-1.9-0.2H69.2z"/>
	<path d="M79.6,244.1c1.1,0,2.1,0.4,2.8,1.2c0.7,0.8,1,1.7,1,2.7c0,1-0.4,1.9-1.1,2.7c-0.7,0.8-1.7,1.2-2.8,1.2
		c-1.1,0-2.1-0.4-2.8-1.2c-0.7-0.8-1.1-1.7-1.1-2.7c0-1,0.3-1.9,1-2.7C77.5,244.5,78.5,244.1,79.6,244.1z M79.6,245.1
		c-0.8,0-1.5,0.3-2.1,0.9s-0.9,1.3-0.9,2.1c0,0.5,0.1,1,0.4,1.5s0.6,0.8,1.1,1.1c0.4,0.3,0.9,0.4,1.5,0.4c0.5,0,1-0.1,1.5-0.4
		c0.4-0.3,0.8-0.6,1.1-1.1s0.4-1,0.4-1.5c0-0.8-0.3-1.5-0.9-2.1C81.1,245.4,80.4,245.1,79.6,245.1z"/>
	<path d="M91.5,251.8h-1l-2.5-5.4l-2.5,5.4h-1l3.4-7.4h0.2L91.5,251.8z"/>
	<path d="M96.5,244.1c1.1,0,2.1,0.4,2.8,1.2c0.7,0.8,1,1.7,1,2.7c0,1-0.4,1.9-1.1,2.7c-0.7,0.8-1.7,1.2-2.8,1.2
		c-1.1,0-2.1-0.4-2.8-1.2c-0.7-0.8-1.1-1.7-1.1-2.7c0-1,0.3-1.9,1-2.7C94.4,244.5,95.4,244.1,96.5,244.1z M96.5,245.1
		c-0.8,0-1.5,0.3-2.1,0.9s-0.9,1.3-0.9,2.1c0,0.5,0.1,1,0.4,1.5s0.6,0.8,1.1,1.1c0.4,0.3,0.9,0.4,1.5,0.4c0.5,0,1-0.1,1.5-0.4
		c0.4-0.3,0.8-0.6,1.1-1.1s0.4-1,0.4-1.5c0-0.8-0.3-1.5-0.9-2.1C98,245.4,97.3,245.1,96.5,245.1z"/>
	<path d="M101.3,244.3h4.9v0.8h-2v6.6h-1v-6.6h-2V244.3z"/>
	<path d="M114.9,244.3v7.4H114v-1.3c-0.4,0.5-0.9,0.9-1.4,1.1s-1,0.4-1.6,0.4c-1.1,0-2-0.4-2.7-1.1c-0.7-0.8-1.1-1.7-1.1-2.8
		c0-1.1,0.4-2,1.1-2.7c0.8-0.8,1.7-1.1,2.7-1.1c0.6,0,1.2,0.1,1.7,0.4s0.9,0.6,1.3,1.2v-1.4H114.9z M111.1,245.1
		c-0.5,0-1,0.1-1.5,0.4s-0.8,0.6-1.1,1.1c-0.3,0.5-0.4,1-0.4,1.5c0,0.5,0.1,1,0.4,1.5s0.6,0.9,1.1,1.1c0.5,0.3,0.9,0.4,1.5,0.4
		c0.5,0,1-0.1,1.5-0.4c0.5-0.3,0.8-0.6,1.1-1.1c0.3-0.5,0.4-1,0.4-1.5c0-0.9-0.3-1.6-0.9-2.2S111.9,245.1,111.1,245.1z"/>
	<path d="M126.3,248.2h-4.3v3.6h-1v-7.4h1v3h4.3v-3h1v7.4h-1V248.2z"/>
	<path d="M130.3,244.3v5.5l5.5-5.5h0.1v7.4h-1v-5.5l-5.4,5.5h-0.1v-7.4H130.3z"/>
	<path d="M139.2,247.4h0.5c0.3,0,0.6-0.1,0.9-0.3c0.3-0.2,0.4-0.5,0.4-0.9c0-0.3-0.1-0.6-0.3-0.9c-0.2-0.2-0.5-0.4-1-0.4
		c-0.5,0-1,0.2-1.5,0.6l-0.5-0.7c0.7-0.6,1.4-0.8,2.1-0.8c0.6,0,1.1,0.2,1.6,0.6s0.6,0.8,0.6,1.4c0,0.8-0.3,1.3-1,1.6
		c0.9,0.4,1.3,1,1.3,2c0,0.6-0.2,1.1-0.6,1.6s-1,0.7-1.9,0.7c-1,0-1.8-0.3-2.5-1l0.6-0.7c0.5,0.5,1,0.8,1.8,0.8
		c0.5,0,0.9-0.1,1.1-0.4s0.4-0.6,0.4-1c0-0.4-0.1-0.7-0.4-1c-0.3-0.3-0.6-0.4-1-0.4h-0.6V247.4z"/>
	<path d="M144.9,244.3v5.5l5.5-5.5h0.1v7.4h-1v-5.5l-5.4,5.5h-0.1v-7.4H144.9z"/>
	<path d="M157.8,248.2h-4.3v3.6h-1v-7.4h1v3h4.3v-3h1v7.4h-1V248.2z"/>
	<path d="M166.2,248.2h-4.3v3.6h-1v-7.4h1v3h4.3v-3h1v7.4h-1V248.2z"/>
	<path d="M170.2,247.3h0.9c0.7,0,1.3,0.1,1.7,0.2c0.4,0.1,0.8,0.4,1.1,0.8c0.3,0.4,0.4,0.8,0.4,1.3c0,0.6-0.2,1.1-0.6,1.6
		c-0.4,0.4-1.1,0.7-2,0.7h-2.5v-7.4h1V247.3z M170.3,248.1v2.8h1.1c1.3,0,1.9-0.5,1.9-1.4c0-0.3-0.1-0.5-0.2-0.8
		c-0.1-0.3-0.3-0.4-0.6-0.5c-0.3-0.1-0.7-0.2-1.4-0.2H170.3z M175.7,244.3h1v7.4h-1V244.3z"/>
	<path d="M184.9,249.3l0.8,0.4c-0.3,0.5-0.6,0.9-0.9,1.3c-0.3,0.3-0.7,0.6-1.2,0.7c-0.4,0.2-0.9,0.2-1.5,0.2c-1.2,0-2.2-0.4-2.8-1.2
		c-0.7-0.8-1-1.7-1-2.7c0-0.9,0.3-1.8,0.9-2.5c0.7-0.9,1.7-1.4,2.9-1.4c1.3,0,2.3,0.5,3,1.4c0.5,0.7,0.8,1.5,0.8,2.5h-6.7
		c0,0.9,0.3,1.6,0.8,2.1c0.5,0.6,1.2,0.8,2,0.8c0.4,0,0.7-0.1,1.1-0.2c0.4-0.1,0.7-0.3,0.9-0.5S184.6,249.8,184.9,249.3z
		 M184.9,247.3c-0.1-0.5-0.3-0.9-0.6-1.2c-0.2-0.3-0.6-0.6-1-0.7c-0.4-0.2-0.8-0.3-1.3-0.3c-0.7,0-1.4,0.2-1.9,0.7
		c-0.4,0.3-0.7,0.9-0.9,1.5H184.9z"/>
</g>
<g>
	<path d="M68.2,273.4h2c0.8,0,1.4,0.1,1.8,0.3c0.4,0.2,0.8,0.5,1,0.9c0.2,0.4,0.4,0.8,0.4,1.3c0,0.4-0.1,0.9-0.3,1.2
		c-0.2,0.4-0.5,0.7-1,0.9c0.5,0.2,0.9,0.4,1.2,0.6s0.5,0.5,0.7,0.9c0.2,0.3,0.2,0.7,0.2,1.1c0,0.8-0.3,1.5-0.9,2
		c-0.6,0.6-1.4,0.8-2.4,0.8h-2.8V273.4z M69.2,274.4v3.2h0.6c0.7,0,1.2-0.1,1.5-0.2s0.6-0.3,0.8-0.6s0.3-0.6,0.3-0.9
		c0-0.5-0.2-0.8-0.5-1.1c-0.3-0.3-0.8-0.4-1.5-0.4H69.2z M69.2,278.6v3.9h1.2c0.7,0,1.3-0.1,1.6-0.2s0.6-0.4,0.8-0.7
		c0.2-0.3,0.3-0.6,0.3-1c0-0.4-0.1-0.8-0.4-1.2c-0.3-0.3-0.7-0.6-1.2-0.7c-0.3-0.1-0.9-0.1-1.8-0.1H69.2z"/>
	<path d="M79.6,275.8c1.1,0,2.1,0.4,2.8,1.2c0.7,0.8,1,1.7,1,2.7c0,1-0.4,1.9-1.1,2.7c-0.7,0.8-1.7,1.2-2.8,1.2
		c-1.1,0-2.1-0.4-2.8-1.2c-0.7-0.8-1.1-1.7-1.1-2.7c0-1,0.3-1.9,1-2.7C77.5,276.2,78.5,275.8,79.6,275.8z M79.6,276.7
		c-0.8,0-1.5,0.3-2.1,0.9s-0.9,1.3-0.9,2.1c0,0.5,0.1,1,0.4,1.5s0.6,0.8,1.1,1.1c0.4,0.3,0.9,0.4,1.5,0.4c0.5,0,1-0.1,1.5-0.4
		c0.4-0.3,0.8-0.6,1.1-1.1s0.4-1,0.4-1.5c0-0.8-0.3-1.5-0.9-2.1C81.1,277,80.4,276.7,79.6,276.7z"/>
	<path d="M85.3,282.6l2.9-6.6h0.5l2.9,6.6h0.9v1.8h-0.9v-1h-6.2v1h-0.9v-1.8H85.3z M88.4,277.5l-2.2,5.1h4.3L88.4,277.5z"/>
	<path d="M99,279.8h-4.3v3.6h-1V276h1v3H99v-3h1v7.4h-1V279.8z"/>
	<path d="M103.1,278.9h0.9c0.7,0,1.3,0.1,1.7,0.2c0.4,0.1,0.8,0.4,1.1,0.8c0.3,0.4,0.4,0.8,0.4,1.3c0,0.6-0.2,1.1-0.6,1.6
		c-0.4,0.4-1.1,0.7-2,0.7h-2.5V276h1V278.9z M103.1,279.8v2.8h1.1c1.3,0,1.9-0.5,1.9-1.4c0-0.3-0.1-0.5-0.2-0.8
		c-0.1-0.3-0.3-0.4-0.6-0.5c-0.3-0.1-0.7-0.2-1.4-0.2H103.1z M108.5,276h1v7.4h-1V276z"/>
	<path d="M117.8,281l0.8,0.4c-0.3,0.5-0.6,0.9-0.9,1.3c-0.3,0.3-0.7,0.6-1.2,0.7c-0.4,0.2-0.9,0.3-1.5,0.3c-1.2,0-2.2-0.4-2.8-1.2
		c-0.7-0.8-1-1.7-1-2.7c0-0.9,0.3-1.8,0.9-2.5c0.7-0.9,1.7-1.4,2.9-1.4c1.3,0,2.3,0.5,3,1.4c0.5,0.7,0.8,1.5,0.8,2.5h-6.7
		c0,0.9,0.3,1.6,0.8,2.1c0.5,0.6,1.2,0.8,2,0.8c0.4,0,0.7-0.1,1.1-0.2c0.4-0.1,0.7-0.3,0.9-0.5C117.2,281.8,117.5,281.4,117.8,281z
		 M117.8,279c-0.1-0.5-0.3-0.9-0.6-1.2c-0.2-0.3-0.6-0.6-1-0.7c-0.4-0.2-0.8-0.3-1.3-0.3c-0.7,0-1.4,0.2-1.9,0.7
		c-0.4,0.3-0.7,0.9-0.9,1.5H117.8z"/>
	<path d="M128,275.8c1.1,0,2.1,0.4,2.8,1.2c0.7,0.8,1,1.7,1,2.7c0,1-0.4,1.9-1.1,2.7c-0.7,0.8-1.7,1.2-2.8,1.2
		c-1.1,0-2.1-0.4-2.8-1.2c-0.7-0.8-1.1-1.7-1.1-2.7c0-1,0.3-1.9,1-2.7C125.9,276.2,126.9,275.8,128,275.8z M128,276.7
		c-0.8,0-1.5,0.3-2.1,0.9s-0.9,1.3-0.9,2.1c0,0.5,0.1,1,0.4,1.5s0.6,0.8,1.1,1.1c0.4,0.3,0.9,0.4,1.5,0.4c0.5,0,1-0.1,1.5-0.4
		c0.4-0.3,0.8-0.6,1.1-1.1s0.4-1,0.4-1.5c0-0.8-0.3-1.5-0.9-2.1C129.5,277,128.8,276.7,128,276.7z"/>
	<path d="M140.8,273v0.9c-0.5,0.1-1.2,0.1-2.3,0.2c-0.8,0-1.4,0.1-1.9,0.2c-0.4,0.1-0.8,0.2-1.1,0.5c-0.3,0.2-0.6,0.6-0.8,1
		s-0.4,1-0.4,1.5l-0.1,1c0.3-0.9,0.7-1.5,1.3-1.9s1.3-0.6,2-0.6c1.1,0,2,0.4,2.8,1.2c0.7,0.8,1.1,1.7,1.1,2.8c0,1.1-0.4,2-1.1,2.7
		s-1.7,1.1-2.8,1.1c-1.1,0-2.1-0.4-2.9-1.3c-0.8-0.8-1.2-2.2-1.2-4c0-1.3,0.1-2.2,0.4-2.9c0.3-0.7,0.6-1.1,1-1.4
		c0.4-0.3,0.9-0.5,1.5-0.7c0.6-0.2,1.7-0.3,3.3-0.3C140,273,140.4,273,140.8,273z M140.3,279.8c0-0.8-0.3-1.5-0.9-2.1
		c-0.6-0.6-1.3-0.9-2-0.9c-0.8,0-1.5,0.3-2,0.9c-0.6,0.6-0.9,1.3-0.9,2.1c0,0.8,0.3,1.5,0.8,2.1c0.6,0.6,1.2,0.9,2.1,0.9
		c0.8,0,1.5-0.3,2.1-0.9C140,281.3,140.3,280.6,140.3,279.8z"/>
	<path d="M144.6,278.9h0.9c0.7,0,1.3,0.1,1.7,0.2c0.4,0.1,0.8,0.4,1.1,0.8s0.4,0.8,0.4,1.3c0,0.6-0.2,1.1-0.6,1.6
		c-0.4,0.4-1.1,0.7-1.9,0.7h-2.5v-6.6h-1.4V276h2.3V278.9z M144.6,279.7v2.9h1.1c1.3,0,2-0.5,2-1.4c0-0.3-0.1-0.6-0.3-0.9
		c-0.2-0.2-0.4-0.4-0.7-0.5c-0.3-0.1-0.7-0.1-1.3-0.1H144.6z"/>
	<path d="M156.5,281l0.8,0.4c-0.3,0.5-0.6,0.9-0.9,1.3c-0.3,0.3-0.7,0.6-1.2,0.7c-0.4,0.2-0.9,0.3-1.5,0.3c-1.2,0-2.2-0.4-2.8-1.2
		c-0.7-0.8-1-1.7-1-2.7c0-0.9,0.3-1.8,0.9-2.5c0.7-0.9,1.7-1.4,2.9-1.4c1.3,0,2.3,0.5,3,1.4c0.5,0.7,0.8,1.5,0.8,2.5h-6.7
		c0,0.9,0.3,1.6,0.8,2.1c0.5,0.6,1.2,0.8,2,0.8c0.4,0,0.7-0.1,1.1-0.2c0.4-0.1,0.7-0.3,0.9-0.5C156,281.8,156.3,281.4,156.5,281z
		 M156.5,279c-0.1-0.5-0.3-0.9-0.6-1.2c-0.2-0.3-0.6-0.6-1-0.7c-0.4-0.2-0.8-0.3-1.3-0.3c-0.7,0-1.4,0.2-1.9,0.7
		c-0.4,0.3-0.7,0.9-0.9,1.5H156.5z"/>
	<path d="M159.4,276h1v3.1l3.4-3.1h1.3l-3.8,3.4l4.1,4h-1.4l-3.4-3.4l-0.3,0.3v3.2h-1V276z"/>
	<path d="M165.6,276h4.9v0.8h-2v6.6h-1v-6.6h-2V276z"/>
	<path d="M172.7,278.9h0.9c0.7,0,1.3,0.1,1.7,0.2c0.4,0.1,0.8,0.4,1.1,0.8c0.3,0.4,0.4,0.8,0.4,1.3c0,0.6-0.2,1.1-0.6,1.6
		c-0.4,0.4-1.1,0.7-2,0.7h-2.5V276h1V278.9z M172.8,279.8v2.8h1.1c1.3,0,1.9-0.5,1.9-1.4c0-0.3-0.1-0.5-0.2-0.8
		c-0.1-0.3-0.3-0.4-0.6-0.5c-0.3-0.1-0.7-0.2-1.4-0.2H172.8z M178.2,276h1v7.4h-1V276z"/>
</g>
<g>
	<path d="M67.5,297.7h1.1l3,6.8l2.8-6.9h1.1l-3.8,9c-0.4,0.8-1,1.3-1.9,1.3c-0.4,0-0.7-0.1-1-0.2c-0.3-0.1-0.7-0.5-1.2-1l0.7-0.6
		c0.5,0.5,0.8,0.8,1,0.8s0.3,0.1,0.5,0.1c0.3,0,0.5-0.1,0.7-0.2c0.2-0.1,0.4-0.5,0.6-1.1L67.5,297.7z"/>
	<path d="M77.1,300.3h1v1.4c0.4-0.5,0.8-0.9,1.3-1.2s1-0.4,1.6-0.4c1.1,0,2,0.4,2.7,1.1c0.8,0.8,1.1,1.7,1.1,2.7
		c0,1.1-0.4,2-1.1,2.8c-0.7,0.8-1.6,1.1-2.7,1.1c-0.6,0-1.1-0.1-1.6-0.4s-0.9-0.6-1.3-1.1v4h-1V300.3z M81,301
		c-0.8,0-1.5,0.3-2.1,0.9c-0.6,0.6-0.8,1.3-0.8,2.2c0,0.6,0.1,1.1,0.4,1.5s0.6,0.8,1.1,1.1c0.5,0.3,1,0.4,1.5,0.4
		c0.5,0,1-0.1,1.4-0.4c0.5-0.3,0.8-0.6,1.1-1.1c0.3-0.5,0.4-1,0.4-1.5c0-0.5-0.1-1-0.4-1.5c-0.3-0.5-0.6-0.8-1.1-1.1
		S81.5,301,81,301z"/>
	<path d="M93.8,297.3v0.9c-0.5,0.1-1.2,0.1-2.3,0.2c-0.8,0-1.4,0.1-1.9,0.2c-0.4,0.1-0.8,0.2-1.1,0.5c-0.3,0.2-0.6,0.6-0.8,1
		s-0.4,1-0.4,1.5l-0.1,1c0.3-0.9,0.7-1.5,1.3-1.9s1.3-0.6,2-0.6c1.1,0,2,0.4,2.8,1.2c0.7,0.8,1.1,1.7,1.1,2.8c0,1.1-0.4,2-1.1,2.7
		s-1.7,1.1-2.8,1.1c-1.1,0-2.1-0.4-2.9-1.3c-0.8-0.8-1.2-2.2-1.2-4c0-1.3,0.1-2.2,0.4-2.9c0.3-0.7,0.6-1.1,1-1.4
		c0.4-0.3,0.9-0.5,1.5-0.7c0.6-0.2,1.7-0.3,3.3-0.3C93,297.4,93.4,297.3,93.8,297.3z M93.3,304.1c0-0.8-0.3-1.5-0.9-2.1
		c-0.6-0.6-1.3-0.9-2-0.9c-0.8,0-1.5,0.3-2,0.9c-0.6,0.6-0.9,1.3-0.9,2.1c0,0.8,0.3,1.5,0.8,2.1c0.6,0.6,1.2,0.9,2.1,0.9
		c0.8,0,1.5-0.3,2.1-0.9C93,305.6,93.3,304.9,93.3,304.1z"/>
	<path d="M103.4,300.3v7.4h-0.9v-1.3c-0.4,0.5-0.9,0.9-1.4,1.1s-1,0.4-1.6,0.4c-1.1,0-2-0.4-2.7-1.1c-0.7-0.8-1.1-1.7-1.1-2.8
		c0-1.1,0.4-2,1.1-2.7c0.8-0.8,1.7-1.1,2.7-1.1c0.6,0,1.2,0.1,1.7,0.4s0.9,0.6,1.3,1.2v-1.4H103.4z M99.6,301c-0.5,0-1,0.1-1.5,0.4
		s-0.8,0.6-1.1,1.1c-0.3,0.5-0.4,1-0.4,1.5c0,0.5,0.1,1,0.4,1.5s0.6,0.9,1.1,1.1c0.5,0.3,0.9,0.4,1.5,0.4c0.5,0,1-0.1,1.5-0.4
		c0.5-0.3,0.8-0.6,1.1-1.1c0.3-0.5,0.4-1,0.4-1.5c0-0.9-0.3-1.6-0.9-2.2S100.4,301,99.6,301z"/>
	<path d="M110.9,304.2h-4.3v3.6h-1v-7.4h1v3h4.3v-3h1v7.4h-1V304.2z"/>
	<path d="M114.9,300.3v5.5l5.5-5.5h0.1v7.4h-1v-5.5l-5.4,5.5H114v-7.4H114.9z"/>
	<path d="M123.8,303.4h0.5c0.3,0,0.6-0.1,0.9-0.3c0.3-0.2,0.4-0.5,0.4-0.9c0-0.3-0.1-0.6-0.3-0.9c-0.2-0.2-0.5-0.4-1-0.4
		c-0.5,0-1,0.2-1.5,0.6l-0.5-0.7c0.7-0.6,1.4-0.8,2.1-0.8c0.6,0,1.1,0.2,1.6,0.6s0.6,0.8,0.6,1.4c0,0.8-0.3,1.3-1,1.6
		c0.9,0.4,1.3,1,1.3,2c0,0.6-0.2,1.1-0.6,1.6s-1,0.7-1.9,0.7c-1,0-1.8-0.3-2.5-1l0.6-0.7c0.5,0.5,1,0.8,1.8,0.8
		c0.5,0,0.9-0.1,1.1-0.4s0.4-0.6,0.4-1c0-0.4-0.1-0.7-0.4-1c-0.3-0.3-0.6-0.4-1-0.4h-0.6V303.4z"/>
	<path d="M129.5,300.3v5.5l5.5-5.5h0.1v7.4h-1v-5.5l-5.4,5.5h-0.1v-7.4H129.5z"/>
	<path d="M137.2,300.3h1v1.4c0.4-0.5,0.8-0.9,1.3-1.2s1-0.4,1.6-0.4c1.1,0,2,0.4,2.7,1.1c0.8,0.8,1.1,1.7,1.1,2.7
		c0,1.1-0.4,2-1.1,2.8c-0.7,0.8-1.6,1.1-2.7,1.1c-0.6,0-1.1-0.1-1.6-0.4s-0.9-0.6-1.3-1.1v4h-1V300.3z M141,301
		c-0.8,0-1.5,0.3-2.1,0.9c-0.6,0.6-0.8,1.3-0.8,2.2c0,0.6,0.1,1.1,0.4,1.5s0.6,0.8,1.1,1.1c0.5,0.3,1,0.4,1.5,0.4
		c0.5,0,1-0.1,1.4-0.4c0.5-0.3,0.8-0.6,1.1-1.1c0.3-0.5,0.4-1,0.4-1.5c0-0.5-0.1-1-0.4-1.5c-0.3-0.5-0.6-0.8-1.1-1.1
		S141.5,301,141,301z"/>
	<path d="M150.2,300.1c1.1,0,2.1,0.4,2.8,1.2c0.7,0.8,1,1.7,1,2.7c0,1-0.4,1.9-1.1,2.7c-0.7,0.8-1.7,1.2-2.8,1.2
		c-1.1,0-2.1-0.4-2.8-1.2c-0.7-0.8-1.1-1.7-1.1-2.7c0-1,0.3-1.9,1-2.7C148.1,300.5,149.1,300.1,150.2,300.1z M150.2,301
		c-0.8,0-1.5,0.3-2.1,0.9s-0.9,1.3-0.9,2.1c0,0.5,0.1,1,0.4,1.5s0.6,0.8,1.1,1.1c0.4,0.3,0.9,0.4,1.5,0.4c0.5,0,1-0.1,1.5-0.4
		c0.4-0.3,0.8-0.6,1.1-1.1s0.4-1,0.4-1.5c0-0.8-0.3-1.5-0.9-2.1C151.7,301.3,151,301,150.2,301z"/>
	<path d="M158,307.7h-2.2v-7.4h2.1c0.8,0,1.4,0.2,1.8,0.6c0.4,0.4,0.5,0.8,0.5,1.3c0,0.8-0.3,1.3-1,1.5c1,0.3,1.4,1,1.4,2
		C160.7,307.1,159.8,307.7,158,307.7z M156.8,301.1v2.3h0.6c0.6,0,0.9,0,1.1-0.1c0.2,0,0.3-0.2,0.5-0.3c0.2-0.2,0.2-0.4,0.2-0.7
		c0-0.3-0.1-0.6-0.2-0.8c-0.2-0.2-0.3-0.3-0.5-0.4c-0.2,0-0.5-0.1-1.1-0.1H156.8z M156.8,304.3v2.6h1c0.5,0,0.8,0,1-0.1
		c0.2-0.1,0.4-0.2,0.5-0.4s0.2-0.5,0.2-0.8c0-0.4-0.1-0.7-0.4-1c-0.3-0.2-0.6-0.4-1-0.4H156.8z"/>
	<path d="M169.8,300.3v7.4h-0.9v-1.3c-0.4,0.5-0.9,0.9-1.4,1.1s-1,0.4-1.6,0.4c-1.1,0-2-0.4-2.7-1.1c-0.7-0.8-1.1-1.7-1.1-2.8
		c0-1.1,0.4-2,1.1-2.7c0.8-0.8,1.7-1.1,2.7-1.1c0.6,0,1.2,0.1,1.7,0.4s0.9,0.6,1.3,1.2v-1.4H169.8z M166,301c-0.5,0-1,0.1-1.5,0.4
		s-0.8,0.6-1.1,1.1c-0.3,0.5-0.4,1-0.4,1.5c0,0.5,0.1,1,0.4,1.5s0.6,0.9,1.1,1.1c0.5,0.3,0.9,0.4,1.5,0.4c0.5,0,1-0.1,1.5-0.4
		c0.5-0.3,0.8-0.6,1.1-1.1c0.3-0.5,0.4-1,0.4-1.5c0-0.9-0.3-1.6-0.9-2.2S166.8,301,166,301z"/>
	<path d="M177.3,304.2h-4.3v3.6h-1v-7.4h1v3h4.3v-3h1v7.4h-1V304.2z"/>
	<path d="M185.6,304.2h-4.3v3.6h-1v-7.4h1v3h4.3v-3h1v7.4h-1V304.2z"/>
	<path d="M189.7,303.2h0.9c0.7,0,1.3,0.1,1.7,0.2c0.4,0.1,0.8,0.4,1.1,0.8c0.3,0.4,0.4,0.8,0.4,1.3c0,0.6-0.2,1.1-0.6,1.6
		c-0.4,0.4-1.1,0.7-2,0.7h-2.5v-7.4h1V303.2z M189.7,304.1v2.8h1.1c1.3,0,1.9-0.5,1.9-1.4c0-0.3-0.1-0.5-0.2-0.8
		c-0.1-0.3-0.3-0.4-0.6-0.5c-0.3-0.1-0.7-0.2-1.4-0.2H189.7z M195.1,300.3h1v7.4h-1V300.3z"/>
	<path d="M204.4,305.3l0.8,0.4c-0.3,0.5-0.6,0.9-0.9,1.3c-0.3,0.3-0.7,0.6-1.2,0.7c-0.4,0.2-0.9,0.2-1.5,0.2c-1.2,0-2.2-0.4-2.8-1.2
		c-0.7-0.8-1-1.7-1-2.7c0-0.9,0.3-1.8,0.9-2.5c0.7-0.9,1.7-1.4,2.9-1.4c1.3,0,2.3,0.5,3,1.4c0.5,0.7,0.8,1.5,0.8,2.5h-6.7
		c0,0.9,0.3,1.6,0.8,2.1c0.5,0.6,1.2,0.8,2,0.8c0.4,0,0.7-0.1,1.1-0.2c0.4-0.1,0.7-0.3,0.9-0.5S204.1,305.8,204.4,305.3z
		 M204.4,303.3c-0.1-0.5-0.3-0.9-0.6-1.2c-0.2-0.3-0.6-0.6-1-0.7c-0.4-0.2-0.8-0.3-1.3-0.3c-0.7,0-1.4,0.2-1.9,0.7
		c-0.4,0.3-0.7,0.9-0.9,1.5H204.4z"/>
	<path d="M67.2,317.1h4.9v0.8h-2v6.6h-1v-6.6h-2V317.1z"/>
	<path d="M79.7,322.1l0.8,0.4c-0.3,0.5-0.6,0.9-0.9,1.3c-0.3,0.3-0.7,0.6-1.2,0.7c-0.4,0.2-0.9,0.2-1.5,0.2c-1.2,0-2.2-0.4-2.8-1.2
		c-0.7-0.8-1-1.7-1-2.7c0-0.9,0.3-1.8,0.9-2.5c0.7-0.9,1.7-1.4,2.9-1.4c1.3,0,2.3,0.5,3,1.4c0.5,0.7,0.8,1.5,0.8,2.5H74
		c0,0.9,0.3,1.6,0.8,2.1c0.5,0.6,1.2,0.8,2,0.8c0.4,0,0.7-0.1,1.1-0.2c0.4-0.1,0.7-0.3,0.9-0.5S79.4,322.6,79.7,322.1z M79.7,320.1
		c-0.1-0.5-0.3-0.9-0.6-1.2c-0.2-0.3-0.6-0.6-1-0.7c-0.4-0.2-0.8-0.3-1.3-0.3c-0.7,0-1.4,0.2-1.9,0.7c-0.4,0.3-0.7,0.9-0.9,1.5H79.7
		z"/>
	<path d="M82.5,317.1h1v1.4c0.4-0.5,0.8-0.9,1.3-1.2s1-0.4,1.6-0.4c1.1,0,2,0.4,2.7,1.1c0.8,0.8,1.1,1.7,1.1,2.7
		c0,1.1-0.4,2-1.1,2.8c-0.7,0.8-1.6,1.1-2.7,1.1c-0.6,0-1.1-0.1-1.6-0.4s-0.9-0.6-1.3-1.1v4h-1V317.1z M86.4,317.8
		c-0.8,0-1.5,0.3-2.1,0.9c-0.6,0.6-0.8,1.3-0.8,2.2c0,0.6,0.1,1.1,0.4,1.5s0.6,0.8,1.1,1.1c0.5,0.3,1,0.4,1.5,0.4
		c0.5,0,1-0.1,1.4-0.4c0.5-0.3,0.8-0.6,1.1-1.1c0.3-0.5,0.4-1,0.4-1.5c0-0.5-0.1-1-0.4-1.5c-0.3-0.5-0.6-0.8-1.1-1.1
		S86.9,317.8,86.4,317.8z"/>
	<path d="M92.1,317.1h1v1.4c0.4-0.5,0.8-0.9,1.3-1.2s1-0.4,1.6-0.4c1.1,0,2,0.4,2.7,1.1c0.8,0.8,1.1,1.7,1.1,2.7
		c0,1.1-0.4,2-1.1,2.8c-0.7,0.8-1.6,1.1-2.7,1.1c-0.6,0-1.1-0.1-1.6-0.4s-0.9-0.6-1.3-1.1v4h-1V317.1z M95.9,317.8
		c-0.8,0-1.5,0.3-2.1,0.9c-0.6,0.6-0.8,1.3-0.8,2.2c0,0.6,0.1,1.1,0.4,1.5s0.6,0.8,1.1,1.1c0.5,0.3,1,0.4,1.5,0.4
		c0.5,0,1-0.1,1.4-0.4c0.5-0.3,0.8-0.6,1.1-1.1c0.3-0.5,0.4-1,0.4-1.5c0-0.5-0.1-1-0.4-1.5c-0.3-0.5-0.6-0.8-1.1-1.1
		S96.4,317.8,95.9,317.8z"/>
	<path d="M102.6,317.1v5.5l5.5-5.5h0.1v7.4h-1v-5.5l-5.4,5.5h-0.1v-7.4H102.6z"/>
	<path d="M109.4,317.1h4.9v0.8h-2v6.6h-1v-6.6h-2V317.1z"/>
	<path d="M119.1,316.9c1.1,0,2.1,0.4,2.8,1.2c0.7,0.8,1,1.7,1,2.7c0,1-0.4,1.9-1.1,2.7c-0.7,0.8-1.7,1.2-2.8,1.2
		c-1.1,0-2.1-0.4-2.8-1.2c-0.7-0.8-1.1-1.7-1.1-2.7c0-1,0.3-1.9,1-2.7C117,317.3,118,316.9,119.1,316.9z M119.1,317.8
		c-0.8,0-1.5,0.3-2.1,0.9s-0.9,1.3-0.9,2.1c0,0.5,0.1,1,0.4,1.5s0.6,0.8,1.1,1.1c0.4,0.3,0.9,0.4,1.5,0.4c0.5,0,1-0.1,1.5-0.4
		c0.4-0.3,0.8-0.6,1.1-1.1s0.4-1,0.4-1.5c0-0.8-0.3-1.5-0.9-2.1C120.6,318.1,119.9,317.8,119.1,317.8z"/>
	<path d="M124.8,317.1h1v1.4c0.4-0.5,0.8-0.9,1.3-1.2s1-0.4,1.6-0.4c1.1,0,2,0.4,2.7,1.1c0.8,0.8,1.1,1.7,1.1,2.7
		c0,1.1-0.4,2-1.1,2.8c-0.7,0.8-1.6,1.1-2.7,1.1c-0.6,0-1.1-0.1-1.6-0.4s-0.9-0.6-1.3-1.1v4h-1V317.1z M128.6,317.8
		c-0.8,0-1.5,0.3-2.1,0.9c-0.6,0.6-0.8,1.3-0.8,2.2c0,0.6,0.1,1.1,0.4,1.5s0.6,0.8,1.1,1.1c0.5,0.3,1,0.4,1.5,0.4
		c0.5,0,1-0.1,1.4-0.4c0.5-0.3,0.8-0.6,1.1-1.1c0.3-0.5,0.4-1,0.4-1.5c0-0.5-0.1-1-0.4-1.5c-0.3-0.5-0.6-0.8-1.1-1.1
		S129.2,317.8,128.6,317.8z"/>
	<path d="M135.3,317.1v5.5l5.5-5.5h0.1v7.4h-1v-5.5l-5.4,5.5h-0.1v-7.4H135.3z"/>
	<path d="M143.9,317.1v5.5l5.5-5.5h0.1v7.4h-1v-5.5l-5.4,5.5H143v-7.4H143.9z"/>
</g>
</svg>
