<?xml version="1.0" encoding="utf-8"?>
<!-- Generator: Adobe Illustrator 19.1.0, SVG Export Plug-In . SVG Version: 6.00 Build 0)  -->
<svg version="1.1" id="Слой_1" xmlns="http://www.w3.org/2000/svg" xmlns:xlink="http://www.w3.org/1999/xlink" x="0px" y="0px"
	 viewBox="0 0 475 188.3" style="enable-background:new 0 0 475 188.3;" xml:space="preserve">
<style type="text/css">
	.st0{fill:#205E17;}
	.st1{fill:#139006;}
	.st2{fill:#15CF02;}
	.st3{fill:#A1DE9A;}
	.st4{fill:#F6F68F;}
	.st5{fill:#2C6569;}
	.st6{fill:#43A0A7;}
	.st7{fill:#6FC8B9;}
	.st8{fill:#8BB2FF;}
	.st9{fill:#CFCFCF;}
</style>
<rect x="14.4" y="14.2" class="st0" width="41.1" height="22.6"/>
<rect x="14.4" y="47.4" class="st1" width="41.1" height="22.6"/>
<rect x="14.4" y="77" class="st2" width="41.1" height="22.6"/>
<g>
	<path d="M68.7,20.1h1.2l2.4,3.9l2.4-3.9h1.2l-3,4.9l3.2,5.2h-1.2l-2.6-4.2l-2.6,4.2h-1.2l3.2-5.2L68.7,20.1z"/>
	<path d="M79.8,30.2h-2.2v-7.4h2.1c0.8,0,1.4,0.2,1.8,0.6c0.4,0.4,0.5,0.8,0.5,1.3c0,0.8-0.3,1.3-1,1.5c1,0.3,1.4,1,1.4,2
		C82.5,29.5,81.6,30.2,79.8,30.2z M78.5,23.6v2.3h0.6c0.6,0,0.9,0,1.1-0.1c0.2,0,0.3-0.2,0.5-0.3c0.2-0.2,0.2-0.4,0.2-0.7
		c0-0.3-0.1-0.6-0.2-0.8c-0.2-0.2-0.3-0.3-0.5-0.4c-0.2,0-0.5-0.1-1.1-0.1H78.5z M78.5,26.8v2.6h1c0.5,0,0.8,0,1-0.1
		c0.2-0.1,0.4-0.2,0.5-0.4s0.2-0.5,0.2-0.8c0-0.4-0.1-0.7-0.4-1s-0.6-0.4-1-0.4H78.5z"/>
	<path d="M87.7,22.5c1.1,0,2.1,0.4,2.8,1.2c0.7,0.8,1,1.7,1,2.7c0,1-0.4,1.9-1.1,2.7s-1.7,1.2-2.8,1.2c-1.1,0-2.1-0.4-2.8-1.2
		s-1.1-1.7-1.1-2.7c0-1,0.3-1.9,1-2.7C85.6,23,86.5,22.5,87.7,22.5z M87.7,23.5c-0.8,0-1.5,0.3-2.1,0.9s-0.9,1.3-0.9,2.1
		c0,0.5,0.1,1,0.4,1.5s0.6,0.8,1.1,1.1c0.4,0.3,0.9,0.4,1.5,0.4c0.5,0,1-0.1,1.5-0.4c0.4-0.3,0.8-0.6,1.1-1.1s0.4-1,0.4-1.5
		c0-0.8-0.3-1.5-0.9-2.1C89.1,23.8,88.4,23.5,87.7,23.5z"/>
	<path d="M94.3,22.7v5.5l5.5-5.5h0.1v7.4h-1v-5.5l-5.4,5.5h-0.1v-7.4H94.3z M94.1,19.7H95c0.2,0.2,0.4,0.4,0.6,0.5s0.6,0.2,0.9,0.2
		c0.4,0,0.7-0.1,0.9-0.2s0.4-0.3,0.6-0.6H99c-0.1,0.4-0.4,0.8-0.8,1s-1,0.4-1.6,0.4c-0.7,0-1.2-0.1-1.6-0.4S94.2,20.2,94.1,19.7z"/>
	<path d="M107.2,26.6h-4.3v3.6h-1v-7.4h1v3h4.3v-3h1v7.4h-1V26.6z"/>
	<path d="M111.3,25.7h0.9c0.7,0,1.3,0.1,1.7,0.2c0.4,0.1,0.8,0.4,1.1,0.8c0.3,0.4,0.4,0.8,0.4,1.3c0,0.6-0.2,1.1-0.6,1.6
		c-0.4,0.4-1.1,0.7-2,0.7h-2.5v-7.4h1V25.7z M111.3,26.6v2.8h1.1c1.3,0,1.9-0.5,1.9-1.4c0-0.3-0.1-0.5-0.2-0.8s-0.3-0.4-0.6-0.5
		s-0.7-0.2-1.4-0.2H111.3z M116.7,22.7h1v7.4h-1V22.7z"/>
	<path d="M126,27.7l0.8,0.4c-0.3,0.5-0.6,0.9-0.9,1.3s-0.7,0.6-1.2,0.7s-0.9,0.2-1.5,0.2c-1.2,0-2.2-0.4-2.8-1.2s-1-1.7-1-2.7
		c0-0.9,0.3-1.8,0.9-2.5c0.7-0.9,1.7-1.4,2.9-1.4c1.3,0,2.3,0.5,3,1.4c0.5,0.7,0.8,1.5,0.8,2.5h-6.7c0,0.9,0.3,1.6,0.8,2.1
		s1.2,0.8,2,0.8c0.4,0,0.7-0.1,1.1-0.2c0.4-0.1,0.7-0.3,0.9-0.5C125.4,28.5,125.7,28.2,126,27.7z M126,25.7
		c-0.1-0.5-0.3-0.9-0.6-1.2c-0.2-0.3-0.6-0.6-1-0.7s-0.8-0.3-1.3-0.3c-0.7,0-1.4,0.2-1.9,0.7c-0.4,0.3-0.7,0.9-0.9,1.5H126z"/>
	<path d="M139,30.2h-1l-2.5-5.4l-2.5,5.4h-1l3.4-7.4h0.2L139,30.2z"/>
	<path d="M146.7,27.7l0.8,0.4c-0.3,0.5-0.6,0.9-0.9,1.3s-0.7,0.6-1.2,0.7s-0.9,0.2-1.5,0.2c-1.2,0-2.2-0.4-2.8-1.2s-1-1.7-1-2.7
		c0-0.9,0.3-1.8,0.9-2.5c0.7-0.9,1.7-1.4,2.9-1.4c1.3,0,2.3,0.5,3,1.4c0.5,0.7,0.8,1.5,0.8,2.5h-6.7c0,0.9,0.3,1.6,0.8,2.1
		s1.2,0.8,2,0.8c0.4,0,0.7-0.1,1.1-0.2c0.4-0.1,0.7-0.3,0.9-0.5C146.1,28.5,146.4,28.2,146.7,27.7z M146.7,25.7
		c-0.1-0.5-0.3-0.9-0.6-1.2c-0.2-0.3-0.6-0.6-1-0.7s-0.8-0.3-1.3-0.3c-0.7,0-1.4,0.2-1.9,0.7c-0.4,0.3-0.7,0.9-0.9,1.5H146.7z"/>
	<path d="M156.8,24.3l-0.8,0.5c-0.7-0.9-1.5-1.3-2.7-1.3c-0.9,0-1.7,0.3-2.3,0.9s-0.9,1.3-0.9,2.1c0,0.5,0.1,1.1,0.4,1.5
		c0.3,0.5,0.7,0.8,1.1,1.1c0.5,0.3,1,0.4,1.6,0.4c1.1,0,2-0.4,2.7-1.3l0.8,0.5c-0.4,0.5-0.8,1-1.4,1.2c-0.6,0.3-1.3,0.4-2,0.4
		c-1.2,0-2.2-0.4-2.9-1.1s-1.2-1.7-1.2-2.7c0-0.7,0.2-1.4,0.5-2s0.9-1.1,1.5-1.4s1.3-0.5,2.1-0.5c0.5,0,1,0.1,1.4,0.2
		s0.8,0.3,1.2,0.6S156.5,23.9,156.8,24.3z"/>
	<path d="M166,22.7v7.4h-0.9v-1.3c-0.4,0.5-0.9,0.9-1.4,1.1s-1,0.4-1.6,0.4c-1.1,0-2-0.4-2.7-1.1s-1.1-1.7-1.1-2.8
		c0-1.1,0.4-2,1.1-2.7s1.7-1.1,2.7-1.1c0.6,0,1.2,0.1,1.7,0.4s0.9,0.6,1.3,1.2v-1.4H166z M162.2,23.5c-0.5,0-1,0.1-1.5,0.4
		s-0.8,0.6-1.1,1.1c-0.3,0.5-0.4,1-0.4,1.5c0,0.5,0.1,1,0.4,1.5c0.3,0.5,0.6,0.9,1.1,1.1c0.5,0.3,0.9,0.4,1.5,0.4
		c0.5,0,1-0.1,1.5-0.4c0.5-0.3,0.8-0.6,1.1-1.1c0.3-0.5,0.4-1,0.4-1.5c0-0.9-0.3-1.6-0.9-2.2S163,23.5,162.2,23.5z"/>
</g>
<g>
	<path d="M78.6,55l-0.8,0.6c-0.4-0.6-1-1-1.6-1.3s-1.3-0.4-2-0.4c-0.8,0-1.5,0.2-2.2,0.6s-1.2,0.9-1.6,1.6s-0.6,1.4-0.6,2.2
		c0,1.2,0.4,2.2,1.3,3.1s1.9,1.2,3.2,1.2c1.4,0,2.6-0.6,3.5-1.7l0.8,0.6c-0.5,0.6-1.1,1.1-1.9,1.5s-1.6,0.5-2.5,0.5
		c-1.8,0-3.1-0.6-4.2-1.8c-0.9-1-1.3-2.2-1.3-3.6c0-1.5,0.5-2.7,1.5-3.7s2.3-1.5,3.9-1.5c0.9,0,1.8,0.2,2.5,0.6S78.1,54.4,78.6,55z"
		/>
	<path d="M88.5,55.8h0.3l2.5,7.4h-1l-1.8-5.5l-2.9,5.5h-0.2l-2.9-5.5l-1.8,5.5h-1l2.5-7.4h0.3l3,5.8L88.5,55.8z"/>
	<path d="M99,60.8l0.8,0.4c-0.3,0.5-0.6,0.9-0.9,1.3s-0.7,0.6-1.2,0.7s-0.9,0.2-1.5,0.2c-1.2,0-2.2-0.4-2.8-1.2s-1-1.7-1-2.7
		c0-0.9,0.3-1.8,0.9-2.5c0.7-0.9,1.7-1.4,2.9-1.4c1.3,0,2.3,0.5,3,1.4c0.5,0.7,0.8,1.5,0.8,2.5h-6.7c0,0.9,0.3,1.6,0.8,2.1
		s1.2,0.8,2,0.8c0.4,0,0.7-0.1,1.1-0.2c0.4-0.1,0.7-0.3,0.9-0.5C98.5,61.6,98.7,61.3,99,60.8z M99,58.8c-0.1-0.5-0.3-0.9-0.6-1.2
		c-0.2-0.3-0.6-0.6-1-0.7s-0.8-0.3-1.3-0.3c-0.7,0-1.4,0.2-1.9,0.7c-0.4,0.3-0.7,0.9-0.9,1.5H99z"/>
	<path d="M113,63.2h-11.1v-7.4h1v6.5h4.1v-6.5h1v6.5h4.1v-6.5h1V63.2z"/>
	<path d="M122.5,55.8v7.4h-0.9V62c-0.4,0.5-0.9,0.9-1.4,1.1s-1,0.4-1.6,0.4c-1.1,0-2-0.4-2.7-1.1s-1.1-1.7-1.1-2.8
		c0-1.1,0.4-2,1.1-2.7s1.7-1.1,2.7-1.1c0.6,0,1.2,0.1,1.7,0.4s0.9,0.6,1.3,1.2v-1.4H122.5z M118.7,56.5c-0.5,0-1,0.1-1.5,0.4
		s-0.8,0.6-1.1,1.1c-0.3,0.5-0.4,1-0.4,1.5c0,0.5,0.1,1,0.4,1.5c0.3,0.5,0.6,0.9,1.1,1.1c0.5,0.3,0.9,0.4,1.5,0.4
		c0.5,0,1-0.1,1.5-0.4c0.5-0.3,0.8-0.6,1.1-1.1c0.3-0.5,0.4-1,0.4-1.5c0-0.9-0.3-1.6-0.9-2.2S119.5,56.5,118.7,56.5z"/>
	<path d="M129.9,59.7h-4.3v3.6h-1v-7.4h1v3h4.3v-3h1v7.4h-1V59.7z"/>
	<path d="M138.3,59.7H134v3.6h-1v-7.4h1v3h4.3v-3h1v7.4h-1V59.7z"/>
	<path d="M142.4,58.7h0.9c0.7,0,1.3,0.1,1.7,0.2c0.4,0.1,0.8,0.4,1.1,0.8c0.3,0.4,0.4,0.8,0.4,1.3c0,0.6-0.2,1.1-0.6,1.6
		c-0.4,0.4-1.1,0.7-2,0.7h-2.5v-7.4h1V58.7z M142.4,59.6v2.8h1.1c1.3,0,1.9-0.5,1.9-1.4c0-0.3-0.1-0.5-0.2-0.8s-0.3-0.4-0.6-0.5
		s-0.7-0.2-1.4-0.2H142.4z M147.8,55.8h1v7.4h-1V55.8z"/>
	<path d="M157.1,60.8l0.8,0.4c-0.3,0.5-0.6,0.9-0.9,1.3s-0.7,0.6-1.2,0.7s-0.9,0.2-1.5,0.2c-1.2,0-2.2-0.4-2.8-1.2s-1-1.7-1-2.7
		c0-0.9,0.3-1.8,0.9-2.5c0.7-0.9,1.7-1.4,2.9-1.4c1.3,0,2.3,0.5,3,1.4c0.5,0.7,0.8,1.5,0.8,2.5h-6.7c0,0.9,0.3,1.6,0.8,2.1
		s1.2,0.8,2,0.8c0.4,0,0.7-0.1,1.1-0.2c0.4-0.1,0.7-0.3,0.9-0.5C156.5,61.6,156.8,61.3,157.1,60.8z M157.1,58.8
		c-0.1-0.5-0.3-0.9-0.6-1.2c-0.2-0.3-0.6-0.6-1-0.7s-0.8-0.3-1.3-0.3c-0.7,0-1.4,0.2-1.9,0.7c-0.4,0.3-0.7,0.9-0.9,1.5H157.1z"/>
	<path d="M170.1,63.2h-1l-2.5-5.4l-2.5,5.4h-1l3.4-7.4h0.2L170.1,63.2z"/>
	<path d="M177.8,60.8l0.8,0.4c-0.3,0.5-0.6,0.9-0.9,1.3s-0.7,0.6-1.2,0.7s-0.9,0.2-1.5,0.2c-1.2,0-2.2-0.4-2.8-1.2s-1-1.7-1-2.7
		c0-0.9,0.3-1.8,0.9-2.5c0.7-0.9,1.7-1.4,2.9-1.4c1.3,0,2.3,0.5,3,1.4c0.5,0.7,0.8,1.5,0.8,2.5h-6.7c0,0.9,0.3,1.6,0.8,2.1
		s1.2,0.8,2,0.8c0.4,0,0.7-0.1,1.1-0.2c0.4-0.1,0.7-0.3,0.9-0.5C177.2,61.6,177.5,61.3,177.8,60.8z M177.8,58.8
		c-0.1-0.5-0.3-0.9-0.6-1.2c-0.2-0.3-0.6-0.6-1-0.7s-0.8-0.3-1.3-0.3c-0.7,0-1.4,0.2-1.9,0.7c-0.4,0.3-0.7,0.9-0.9,1.5H177.8z"/>
	<path d="M187.8,57.3l-0.8,0.5c-0.7-0.9-1.5-1.3-2.7-1.3c-0.9,0-1.7,0.3-2.3,0.9s-0.9,1.3-0.9,2.1c0,0.5,0.1,1.1,0.4,1.5
		c0.3,0.5,0.7,0.8,1.1,1.1c0.5,0.3,1,0.4,1.6,0.4c1.1,0,2-0.4,2.7-1.3l0.8,0.5c-0.4,0.5-0.8,1-1.4,1.2c-0.6,0.3-1.3,0.4-2,0.4
		c-1.2,0-2.2-0.4-2.9-1.1s-1.2-1.7-1.2-2.7c0-0.7,0.2-1.4,0.5-2s0.9-1.1,1.5-1.4s1.3-0.5,2.1-0.5c0.5,0,1,0.1,1.4,0.2
		s0.8,0.3,1.2,0.6S187.6,57,187.8,57.3z"/>
	<path d="M197.1,55.8v7.4h-0.9V62c-0.4,0.5-0.9,0.9-1.4,1.1s-1,0.4-1.6,0.4c-1.1,0-2-0.4-2.7-1.1s-1.1-1.7-1.1-2.8
		c0-1.1,0.4-2,1.1-2.7s1.7-1.1,2.7-1.1c0.6,0,1.2,0.1,1.7,0.4s0.9,0.6,1.3,1.2v-1.4H197.1z M193.3,56.5c-0.5,0-1,0.1-1.5,0.4
		s-0.8,0.6-1.1,1.1c-0.3,0.5-0.4,1-0.4,1.5c0,0.5,0.1,1,0.4,1.5c0.3,0.5,0.6,0.9,1.1,1.1c0.5,0.3,0.9,0.4,1.5,0.4
		c0.5,0,1-0.1,1.5-0.4c0.5-0.3,0.8-0.6,1.1-1.1c0.3-0.5,0.4-1,0.4-1.5c0-0.9-0.3-1.6-0.9-2.2S194.1,56.5,193.3,56.5z"/>
</g>
<g>
	<path d="M77.4,92.3h-1.1l-3.3-7.8l-3.4,7.8h-1.1l4.4-10.1h0.2L77.4,92.3z"/>
	<path d="M79.9,84.8v5.5l5.5-5.5h0.1v7.4h-1v-5.5L79,92.3h-0.1v-7.4H79.9z"/>
	<path d="M94.7,86.4L94,86.9c-0.7-0.9-1.5-1.3-2.7-1.3c-0.9,0-1.7,0.3-2.3,0.9s-0.9,1.3-0.9,2.1c0,0.5,0.1,1.1,0.4,1.5
		c0.3,0.5,0.7,0.8,1.1,1.1c0.5,0.3,1,0.4,1.6,0.4c1.1,0,2-0.4,2.7-1.3l0.8,0.5c-0.4,0.5-0.8,1-1.4,1.2c-0.6,0.3-1.3,0.4-2,0.4
		c-1.2,0-2.2-0.4-2.9-1.1s-1.2-1.7-1.2-2.7c0-0.7,0.2-1.4,0.5-2s0.9-1.1,1.5-1.4s1.3-0.5,2.1-0.5c0.5,0,1,0.1,1.4,0.2
		s0.8,0.3,1.2,0.6S94.5,86,94.7,86.4z"/>
	<path d="M95.7,84.8h4.9v0.8h-2v6.6h-1v-6.6h-2V84.8z"/>
	<path d="M104.1,92.3h-2.2v-7.4h2.1c0.8,0,1.4,0.2,1.8,0.6c0.4,0.4,0.5,0.8,0.5,1.3c0,0.8-0.3,1.3-1,1.5c1,0.3,1.4,1,1.4,2
		C106.8,91.6,105.9,92.3,104.1,92.3z M102.9,85.7V88h0.6c0.6,0,0.9,0,1.1-0.1c0.2,0,0.3-0.2,0.5-0.3c0.2-0.2,0.2-0.4,0.2-0.7
		c0-0.3-0.1-0.6-0.2-0.8c-0.2-0.2-0.3-0.3-0.5-0.4c-0.2,0-0.5-0.1-1.1-0.1H102.9z M102.9,88.9v2.6h1c0.5,0,0.8,0,1-0.1
		c0.2-0.1,0.4-0.2,0.5-0.4s0.2-0.5,0.2-0.8c0-0.4-0.1-0.7-0.4-1s-0.6-0.4-1-0.4H102.9z"/>
	<path d="M114.8,89.8l0.8,0.4c-0.3,0.5-0.6,0.9-0.9,1.3s-0.7,0.6-1.2,0.7s-0.9,0.2-1.5,0.2c-1.2,0-2.2-0.4-2.8-1.2s-1-1.7-1-2.7
		c0-0.9,0.3-1.8,0.9-2.5c0.7-0.9,1.7-1.4,2.9-1.4c1.3,0,2.3,0.5,3,1.4c0.5,0.7,0.8,1.5,0.8,2.5h-6.7c0,0.9,0.3,1.6,0.8,2.1
		s1.2,0.8,2,0.8c0.4,0,0.7-0.1,1.1-0.2c0.4-0.1,0.7-0.3,0.9-0.5C114.2,90.7,114.5,90.3,114.8,89.8z M114.8,87.8
		c-0.1-0.5-0.3-0.9-0.6-1.2c-0.2-0.3-0.6-0.6-1-0.7s-0.8-0.3-1.3-0.3c-0.7,0-1.4,0.2-1.9,0.7c-0.4,0.3-0.7,0.9-0.9,1.5H114.8z"/>
	<path d="M122.9,88.7h-4.3v3.6h-1v-7.4h1v3h4.3v-3h1v7.4h-1V88.7z"/>
	<path d="M131.2,88.7h-4.3v3.6h-1v-7.4h1v3h4.3v-3h1v7.4h-1V88.7z"/>
	<path d="M135.3,87.8h0.9c0.7,0,1.3,0.1,1.7,0.2c0.4,0.1,0.8,0.4,1.1,0.8c0.3,0.4,0.4,0.8,0.4,1.3c0,0.6-0.2,1.1-0.6,1.6
		c-0.4,0.4-1.1,0.7-2,0.7h-2.5v-7.4h1V87.8z M135.3,88.7v2.8h1.1c1.3,0,1.9-0.5,1.9-1.4c0-0.3-0.1-0.5-0.2-0.8s-0.3-0.4-0.6-0.5
		s-0.7-0.2-1.4-0.2H135.3z M140.7,84.8h1v7.4h-1V84.8z"/>
	<path d="M150,89.8l0.8,0.4c-0.3,0.5-0.6,0.9-0.9,1.3s-0.7,0.6-1.2,0.7s-0.9,0.2-1.5,0.2c-1.2,0-2.2-0.4-2.8-1.2s-1-1.7-1-2.7
		c0-0.9,0.3-1.8,0.9-2.5c0.7-0.9,1.7-1.4,2.9-1.4c1.3,0,2.3,0.5,3,1.4c0.5,0.7,0.8,1.5,0.8,2.5h-6.7c0,0.9,0.3,1.6,0.8,2.1
		s1.2,0.8,2,0.8c0.4,0,0.7-0.1,1.1-0.2c0.4-0.1,0.7-0.3,0.9-0.5C149.4,90.7,149.7,90.3,150,89.8z M150,87.8
		c-0.1-0.5-0.3-0.9-0.6-1.2c-0.2-0.3-0.6-0.6-1-0.7s-0.8-0.3-1.3-0.3c-0.7,0-1.4,0.2-1.9,0.7c-0.4,0.3-0.7,0.9-0.9,1.5H150z"/>
	<path d="M163,92.3h-1l-2.5-5.4l-2.5,5.4h-1l3.4-7.4h0.2L163,92.3z"/>
	<path d="M170.7,89.8l0.8,0.4c-0.3,0.5-0.6,0.9-0.9,1.3s-0.7,0.6-1.2,0.7s-0.9,0.2-1.5,0.2c-1.2,0-2.2-0.4-2.8-1.2s-1-1.7-1-2.7
		c0-0.9,0.3-1.8,0.9-2.5c0.7-0.9,1.7-1.4,2.9-1.4c1.3,0,2.3,0.5,3,1.4c0.5,0.7,0.8,1.5,0.8,2.5h-6.7c0,0.9,0.3,1.6,0.8,2.1
		s1.2,0.8,2,0.8c0.4,0,0.7-0.1,1.1-0.2c0.4-0.1,0.7-0.3,0.9-0.5C170.2,90.7,170.4,90.3,170.7,89.8z M170.7,87.8
		c-0.1-0.5-0.3-0.9-0.6-1.2c-0.2-0.3-0.6-0.6-1-0.7s-0.8-0.3-1.3-0.3c-0.7,0-1.4,0.2-1.9,0.7c-0.4,0.3-0.7,0.9-0.9,1.5H170.7z"/>
	<path d="M180.8,86.4l-0.8,0.5c-0.7-0.9-1.5-1.3-2.7-1.3c-0.9,0-1.7,0.3-2.3,0.9s-0.9,1.3-0.9,2.1c0,0.5,0.1,1.1,0.4,1.5
		c0.3,0.5,0.7,0.8,1.1,1.1c0.5,0.3,1,0.4,1.6,0.4c1.1,0,2-0.4,2.7-1.3l0.8,0.5c-0.4,0.5-0.8,1-1.4,1.2c-0.6,0.3-1.3,0.4-2,0.4
		c-1.2,0-2.2-0.4-2.9-1.1s-1.2-1.7-1.2-2.7c0-0.7,0.2-1.4,0.5-2s0.9-1.1,1.5-1.4s1.3-0.5,2.1-0.5c0.5,0,1,0.1,1.4,0.2
		s0.8,0.3,1.2,0.6S180.6,86,180.8,86.4z"/>
	<path d="M190,84.8v7.4h-0.9V91c-0.4,0.5-0.9,0.9-1.4,1.1s-1,0.4-1.6,0.4c-1.1,0-2-0.4-2.7-1.1s-1.1-1.7-1.1-2.8
		c0-1.1,0.4-2,1.1-2.7s1.7-1.1,2.7-1.1c0.6,0,1.2,0.1,1.7,0.4s0.9,0.6,1.3,1.2v-1.4H190z M186.2,85.6c-0.5,0-1,0.1-1.5,0.4
		s-0.8,0.6-1.1,1.1c-0.3,0.5-0.4,1-0.4,1.5c0,0.5,0.1,1,0.4,1.5c0.3,0.5,0.6,0.9,1.1,1.1c0.5,0.3,0.9,0.4,1.5,0.4
		c0.5,0,1-0.1,1.5-0.4c0.5-0.3,0.8-0.6,1.1-1.1c0.3-0.5,0.4-1,0.4-1.5c0-0.9-0.3-1.6-0.9-2.2S187,85.6,186.2,85.6z"/>
</g>
<rect x="14" y="109" class="st3" width="41.1" height="22.6"/>
<rect x="14.4" y="141.7" class="st4" width="41.1" height="22.6"/>
<rect x="256" y="14.7" class="st5" width="41.1" height="22.6"/>
<rect x="256" y="46.7" class="st6" width="41.1" height="22.6"/>
<rect x="255.6" y="78.7" class="st7" width="41.1" height="22.6"/>
<rect x="256" y="110.7" class="st8" width="41.1" height="22.6"/>
<rect x="255.6" y="142.7" class="st9" width="41.1" height="22.6"/>
<g>
	<path d="M77.4,124.1h-1.1l-3.3-7.8l-3.4,7.8h-1.1l4.4-10.1h0.2L77.4,124.1z"/>
	<path d="M78.1,116.7h1l2.6,5.7l2.5-5.7h1l-4.4,10.2h-1l1.4-3.3L78.1,116.7z"/>
	<path d="M87.4,117.5v6.6h-1v-7.4h3.8v0.8H87.4z"/>
	<path d="M95,116.5c1.1,0,2.1,0.4,2.8,1.2c0.7,0.8,1,1.7,1,2.7c0,1-0.4,1.9-1.1,2.7s-1.7,1.2-2.8,1.2c-1.1,0-2.1-0.4-2.8-1.2
		s-1.1-1.7-1.1-2.7c0-1,0.3-1.9,1-2.7C92.9,116.9,93.8,116.5,95,116.5z M95,117.4c-0.8,0-1.5,0.3-2.1,0.9s-0.9,1.3-0.9,2.1
		c0,0.5,0.1,1,0.4,1.5s0.6,0.8,1.1,1.1c0.4,0.3,0.9,0.4,1.5,0.4c0.5,0,1-0.1,1.5-0.4c0.4-0.3,0.8-0.6,1.1-1.1s0.4-1,0.4-1.5
		c0-0.8-0.3-1.5-0.9-2.1C96.4,117.7,95.8,117.4,95,117.4z"/>
	<path d="M102.8,124.1h-2.2v-7.4h2.1c0.8,0,1.4,0.2,1.8,0.6c0.4,0.4,0.5,0.8,0.5,1.3c0,0.8-0.3,1.3-1,1.5c1,0.3,1.4,1,1.4,2
		C105.5,123.4,104.6,124.1,102.8,124.1z M101.6,117.5v2.3h0.6c0.6,0,0.9,0,1.1-0.1c0.2,0,0.3-0.2,0.5-0.3c0.2-0.2,0.2-0.4,0.2-0.7
		c0-0.3-0.1-0.6-0.2-0.8c-0.2-0.2-0.3-0.3-0.5-0.4c-0.2,0-0.5-0.1-1.1-0.1H101.6z M101.6,120.7v2.6h1c0.5,0,0.8,0,1-0.1
		c0.2-0.1,0.4-0.2,0.5-0.4s0.2-0.5,0.2-0.8c0-0.4-0.1-0.7-0.4-1s-0.6-0.4-1-0.4H101.6z"/>
	<path d="M114.6,116.7v7.4h-0.9v-1.3c-0.4,0.5-0.9,0.9-1.4,1.1s-1,0.4-1.6,0.4c-1.1,0-2-0.4-2.7-1.1s-1.1-1.7-1.1-2.8
		c0-1.1,0.4-2,1.1-2.7s1.7-1.1,2.7-1.1c0.6,0,1.2,0.1,1.7,0.4s0.9,0.6,1.3,1.2v-1.4H114.6z M110.8,117.4c-0.5,0-1,0.1-1.5,0.4
		s-0.8,0.6-1.1,1.1c-0.3,0.5-0.4,1-0.4,1.5c0,0.5,0.1,1,0.4,1.5c0.3,0.5,0.6,0.9,1.1,1.1c0.5,0.3,0.9,0.4,1.5,0.4
		c0.5,0,1-0.1,1.5-0.4c0.5-0.3,0.8-0.6,1.1-1.1c0.3-0.5,0.4-1,0.4-1.5c0-0.9-0.3-1.6-0.9-2.2S111.6,117.4,110.8,117.4z"/>
	<path d="M119.9,120.8h-0.7l-2.1,3.3h-1l2.2-3.4c-0.6-0.1-1-0.3-1.4-0.6c-0.3-0.4-0.5-0.8-0.5-1.3c0-0.7,0.2-1.2,0.6-1.5
		s0.9-0.5,1.6-0.5h2.3v7.4h-1V120.8z M119.9,117.5h-0.6c-0.6,0-1,0-1.2,0.1s-0.4,0.2-0.5,0.4s-0.2,0.4-0.2,0.8
		c0,0.3,0.1,0.6,0.2,0.8s0.3,0.3,0.5,0.4s0.6,0.1,1.1,0.1h0.6V117.5z"/>
	<path d="M126.9,116.7h1v1.4c0.4-0.5,0.8-0.9,1.3-1.2s1-0.4,1.6-0.4c1.1,0,2,0.4,2.7,1.1c0.8,0.8,1.1,1.7,1.1,2.7
		c0,1.1-0.4,2-1.1,2.8c-0.7,0.8-1.6,1.1-2.7,1.1c-0.6,0-1.1-0.1-1.6-0.4s-0.9-0.6-1.3-1.1v4h-1V116.7z M130.7,117.4
		c-0.8,0-1.5,0.3-2.1,0.9c-0.6,0.6-0.8,1.3-0.8,2.2c0,0.6,0.1,1.1,0.4,1.5c0.3,0.5,0.6,0.8,1.1,1.1s1,0.4,1.5,0.4
		c0.5,0,1-0.1,1.4-0.4s0.8-0.6,1.1-1.1c0.3-0.5,0.4-1,0.4-1.5c0-0.5-0.1-1-0.4-1.5c-0.3-0.5-0.6-0.8-1.1-1.1
		S131.2,117.4,130.7,117.4z"/>
	<path d="M143.8,116.7v7.4h-0.9v-1.3c-0.4,0.5-0.9,0.9-1.4,1.1s-1,0.4-1.6,0.4c-1.1,0-2-0.4-2.7-1.1s-1.1-1.7-1.1-2.8
		c0-1.1,0.4-2,1.1-2.7s1.7-1.1,2.7-1.1c0.6,0,1.2,0.1,1.7,0.4s0.9,0.6,1.3,1.2v-1.4H143.8z M140,117.4c-0.5,0-1,0.1-1.5,0.4
		s-0.8,0.6-1.1,1.1c-0.3,0.5-0.4,1-0.4,1.5c0,0.5,0.1,1,0.4,1.5c0.3,0.5,0.6,0.9,1.1,1.1c0.5,0.3,0.9,0.4,1.5,0.4
		c0.5,0,1-0.1,1.5-0.4c0.5-0.3,0.8-0.6,1.1-1.1c0.3-0.5,0.4-1,0.4-1.5c0-0.9-0.3-1.6-0.9-2.2S140.8,117.4,140,117.4z"/>
	<path d="M153.2,118.2l-0.8,0.5c-0.7-0.9-1.5-1.3-2.7-1.3c-0.9,0-1.7,0.3-2.3,0.9s-0.9,1.3-0.9,2.1c0,0.5,0.1,1.1,0.4,1.5
		c0.3,0.5,0.7,0.8,1.1,1.1c0.5,0.3,1,0.4,1.6,0.4c1.1,0,2-0.4,2.7-1.3l0.8,0.5c-0.4,0.5-0.8,1-1.4,1.2c-0.6,0.3-1.3,0.4-2,0.4
		c-1.2,0-2.2-0.4-2.9-1.1s-1.2-1.7-1.2-2.7c0-0.7,0.2-1.4,0.5-2s0.9-1.1,1.5-1.4s1.3-0.5,2.1-0.5c0.5,0,1,0.1,1.4,0.2
		s0.8,0.3,1.2,0.6S152.9,117.9,153.2,118.2z"/>
	<path d="M154.2,116.7h4.9v0.8h-2v6.6h-1v-6.6h-2V116.7z"/>
	<path d="M161.3,116.7v5.5l5.5-5.5h0.1v7.4h-1v-5.5l-5.4,5.5h-0.1v-7.4H161.3z"/>
	<path d="M168.2,116.7h4.9v0.8h-2v6.6h-1v-6.6h-2V116.7z"/>
	<path d="M180.6,121.7l0.8,0.4c-0.3,0.5-0.6,0.9-0.9,1.3s-0.7,0.6-1.2,0.7s-0.9,0.2-1.5,0.2c-1.2,0-2.2-0.4-2.8-1.2s-1-1.7-1-2.7
		c0-0.9,0.3-1.8,0.9-2.5c0.7-0.9,1.7-1.4,2.9-1.4c1.3,0,2.3,0.5,3,1.4c0.5,0.7,0.8,1.5,0.8,2.5H175c0,0.9,0.3,1.6,0.8,2.1
		s1.2,0.8,2,0.8c0.4,0,0.7-0.1,1.1-0.2c0.4-0.1,0.7-0.3,0.9-0.5C180.1,122.5,180.3,122.1,180.6,121.7z M180.6,119.6
		c-0.1-0.5-0.3-0.9-0.6-1.2c-0.2-0.3-0.6-0.6-1-0.7s-0.8-0.3-1.3-0.3c-0.7,0-1.4,0.2-1.9,0.7c-0.4,0.3-0.7,0.9-0.9,1.5H180.6z"/>
	<path d="M189.8,124.1h-1l-2.5-5.4l-2.5,5.4h-1l3.4-7.4h0.2L189.8,124.1z"/>
	<path d="M192.2,119.6h0.9c0.7,0,1.3,0.1,1.7,0.2s0.8,0.4,1.1,0.8s0.4,0.8,0.4,1.3c0,0.6-0.2,1.1-0.6,1.6s-1.1,0.7-1.9,0.7h-2.5
		v-7.4h1V119.6z M192.2,120.5v2.8h1.1c1.3,0,1.9-0.5,1.9-1.4c0-0.3-0.1-0.5-0.2-0.8s-0.3-0.4-0.6-0.5s-0.7-0.2-1.4-0.2H192.2z"/>
	<path d="M203.1,120.5h-4.3v3.6h-1v-7.4h1v3h4.3v-3h1v7.4h-1V120.5z"/>
	<path d="M209.7,116.5c1.1,0,2.1,0.4,2.8,1.2c0.7,0.8,1,1.7,1,2.7c0,1-0.4,1.9-1.1,2.7s-1.7,1.2-2.8,1.2c-1.1,0-2.1-0.4-2.8-1.2
		s-1.1-1.7-1.1-2.7c0-1,0.3-1.9,1-2.7C207.6,116.9,208.6,116.5,209.7,116.5z M209.7,117.4c-0.8,0-1.5,0.3-2.1,0.9s-0.9,1.3-0.9,2.1
		c0,0.5,0.1,1,0.4,1.5s0.6,0.8,1.1,1.1c0.4,0.3,0.9,0.4,1.5,0.4c0.5,0,1-0.1,1.5-0.4c0.4-0.3,0.8-0.6,1.1-1.1s0.4-1,0.4-1.5
		c0-0.8-0.3-1.5-0.9-2.1C211.2,117.7,210.5,117.4,209.7,117.4z"/>
	<path d="M222.6,118.2l-0.8,0.5c-0.7-0.9-1.5-1.3-2.7-1.3c-0.9,0-1.7,0.3-2.3,0.9s-0.9,1.3-0.9,2.1c0,0.5,0.1,1.1,0.4,1.5
		c0.3,0.5,0.7,0.8,1.1,1.1c0.5,0.3,1,0.4,1.6,0.4c1.1,0,2-0.4,2.7-1.3l0.8,0.5c-0.4,0.5-0.8,1-1.4,1.2c-0.6,0.3-1.3,0.4-2,0.4
		c-1.2,0-2.2-0.4-2.9-1.1s-1.2-1.7-1.2-2.7c0-0.7,0.2-1.4,0.5-2s0.9-1.1,1.5-1.4s1.3-0.5,2.1-0.5c0.5,0,1,0.1,1.4,0.2
		s0.8,0.3,1.2,0.6S222.3,117.9,222.6,118.2z"/>
	<path d="M223.6,116.7h4.9v0.8h-2v6.6h-1v-6.6h-2V116.7z"/>
	<path d="M230.7,119.6h0.9c0.7,0,1.3,0.1,1.7,0.2s0.8,0.4,1.1,0.8s0.4,0.8,0.4,1.3c0,0.6-0.2,1.1-0.6,1.6s-1.1,0.7-1.9,0.7h-2.5
		v-7.4h1V119.6z M230.8,120.5v2.8h1.1c1.3,0,1.9-0.5,1.9-1.4c0-0.3-0.1-0.5-0.2-0.8s-0.3-0.4-0.6-0.5s-0.7-0.2-1.4-0.2H230.8z"/>
</g>
<g>
	<path d="M69.2,146.2h7.1v10.1h-1v-9.1h-5.1v9.1h-1V146.2z"/>
	<path d="M86,148.8v7.4h-0.9V155c-0.4,0.5-0.9,0.9-1.4,1.1s-1,0.4-1.6,0.4c-1.1,0-2-0.4-2.7-1.1s-1.1-1.7-1.1-2.8
		c0-1.1,0.4-2,1.1-2.7s1.7-1.1,2.7-1.1c0.6,0,1.2,0.1,1.7,0.4s0.9,0.6,1.3,1.2v-1.4H86z M82.2,149.5c-0.5,0-1,0.1-1.5,0.4
		s-0.8,0.6-1.1,1.1c-0.3,0.5-0.4,1-0.4,1.5c0,0.5,0.1,1,0.4,1.5c0.3,0.5,0.6,0.9,1.1,1.1c0.5,0.3,0.9,0.4,1.5,0.4
		c0.5,0,1-0.1,1.5-0.4c0.5-0.3,0.8-0.6,1.1-1.1c0.3-0.5,0.4-1,0.4-1.5c0-0.9-0.3-1.6-0.9-2.2S83,149.5,82.2,149.5z"/>
	<path d="M87.3,148.8h1.1l2,2.7l2-2.7h1.2l-2.5,3.5l2.9,3.9h-1.2l-2.3-3.1l-2.3,3.1h-1.1l2.8-3.9L87.3,148.8z"/>
	<path d="M98.4,148.6c1.1,0,2.1,0.4,2.8,1.2c0.7,0.8,1,1.7,1,2.7c0,1-0.4,1.9-1.1,2.7s-1.7,1.2-2.8,1.2c-1.1,0-2.1-0.4-2.8-1.2
		s-1.1-1.7-1.1-2.7c0-1,0.3-1.9,1-2.7C96.3,149,97.3,148.6,98.4,148.6z M98.4,149.5c-0.8,0-1.5,0.3-2.1,0.9s-0.9,1.3-0.9,2.1
		c0,0.5,0.1,1,0.4,1.5s0.6,0.8,1.1,1.1c0.4,0.3,0.9,0.4,1.5,0.4c0.5,0,1-0.1,1.5-0.4c0.4-0.3,0.8-0.6,1.1-1.1s0.4-1,0.4-1.5
		c0-0.8-0.3-1.5-0.9-2.1C99.9,149.8,99.2,149.5,98.4,149.5z"/>
	<path d="M103.2,148.8h4.9v0.8h-2v6.6h-1v-6.6h-2V148.8z"/>
	<path d="M114.7,152.7h-4.3v3.6h-1v-7.4h1v3h4.3v-3h1v7.4h-1V152.7z"/>
	<path d="M118.8,151.7h0.9c0.7,0,1.3,0.1,1.7,0.2c0.4,0.1,0.8,0.4,1.1,0.8c0.3,0.4,0.4,0.8,0.4,1.3c0,0.6-0.2,1.1-0.6,1.6
		c-0.4,0.4-1.1,0.7-2,0.7h-2.5v-7.4h1V151.7z M118.8,152.6v2.8h1.1c1.3,0,1.9-0.5,1.9-1.4c0-0.3-0.1-0.5-0.2-0.8s-0.3-0.4-0.6-0.5
		s-0.7-0.2-1.4-0.2H118.8z M124.2,148.8h1v7.4h-1V148.8z"/>
	<path d="M133.5,153.8l0.8,0.4c-0.3,0.5-0.6,0.9-0.9,1.3s-0.7,0.6-1.2,0.7s-0.9,0.2-1.5,0.2c-1.2,0-2.2-0.4-2.8-1.2s-1-1.7-1-2.7
		c0-0.9,0.3-1.8,0.9-2.5c0.7-0.9,1.7-1.4,2.9-1.4c1.3,0,2.3,0.5,3,1.4c0.5,0.7,0.8,1.5,0.8,2.5h-6.7c0,0.9,0.3,1.6,0.8,2.1
		s1.2,0.8,2,0.8c0.4,0,0.7-0.1,1.1-0.2c0.4-0.1,0.7-0.3,0.9-0.5C132.9,154.6,133.2,154.3,133.5,153.8z M133.5,151.8
		c-0.1-0.5-0.3-0.9-0.6-1.2c-0.2-0.3-0.6-0.6-1-0.7s-0.8-0.3-1.3-0.3c-0.7,0-1.4,0.2-1.9,0.7c-0.4,0.3-0.7,0.9-0.9,1.5H133.5z"/>
	<path d="M141.4,151.9h0.5c0.3,0,0.6-0.1,0.9-0.3s0.4-0.5,0.4-0.9c0-0.3-0.1-0.6-0.3-0.9c-0.2-0.2-0.5-0.4-1-0.4
		c-0.5,0-1,0.2-1.5,0.6l-0.5-0.7c0.7-0.6,1.4-0.8,2.1-0.8c0.6,0,1.1,0.2,1.6,0.6s0.6,0.8,0.6,1.4c0,0.8-0.3,1.3-1,1.6
		c0.9,0.4,1.3,1,1.3,2c0,0.6-0.2,1.1-0.6,1.6s-1,0.7-1.9,0.7c-1,0-1.8-0.3-2.5-1l0.6-0.7c0.5,0.5,1,0.8,1.8,0.8
		c0.5,0,0.9-0.1,1.1-0.4s0.4-0.6,0.4-1c0-0.4-0.1-0.7-0.4-1s-0.6-0.4-1-0.4h-0.6V151.9z"/>
	<path d="M152.4,153.8l0.8,0.4c-0.3,0.5-0.6,0.9-0.9,1.3s-0.7,0.6-1.2,0.7s-0.9,0.2-1.5,0.2c-1.2,0-2.2-0.4-2.8-1.2s-1-1.7-1-2.7
		c0-0.9,0.3-1.8,0.9-2.5c0.7-0.9,1.7-1.4,2.9-1.4c1.3,0,2.3,0.5,3,1.4c0.5,0.7,0.8,1.5,0.8,2.5h-6.7c0,0.9,0.3,1.6,0.8,2.1
		s1.2,0.8,2,0.8c0.4,0,0.7-0.1,1.1-0.2c0.4-0.1,0.7-0.3,0.9-0.5C151.8,154.6,152.1,154.3,152.4,153.8z M152.4,151.8
		c-0.1-0.5-0.3-0.9-0.6-1.2c-0.2-0.3-0.6-0.6-1-0.7s-0.8-0.3-1.3-0.3c-0.7,0-1.4,0.2-1.9,0.7c-0.4,0.3-0.7,0.9-0.9,1.5H152.4z"/>
	<path d="M163.3,148.8h0.3l2.5,7.4h-1l-1.8-5.5l-2.9,5.5h-0.2l-2.9-5.5l-1.8,5.5h-1l2.5-7.4h0.3l3,5.8L163.3,148.8z"/>
	<path d="M173.8,156.2h-1l-2.5-5.4l-2.5,5.4h-1l3.4-7.4h0.2L173.8,156.2z"/>
	<path d="M176.2,148.8v5.5l5.5-5.5h0.1v7.4h-1v-5.5l-5.4,5.5h-0.1v-7.4H176.2z"/>
</g>
<g>
	<path d="M310.9,30.2V20.1h5v1h-4v3.2h0.5c1.3,0,2.2,0.1,2.7,0.3s1,0.6,1.3,1s0.5,1,0.5,1.6c0,0.8-0.3,1.4-0.9,2s-1.4,0.9-2.4,0.9
		H310.9z M311.8,25.3v3.9h1.2c0.7,0,1.3-0.1,1.6-0.2s0.6-0.4,0.8-0.7s0.3-0.6,0.3-1c0-0.5-0.1-0.9-0.4-1.2s-0.6-0.5-1.1-0.6
		s-1.1-0.2-1.9-0.2H311.8z"/>
	<path d="M322.2,22.5c1.1,0,2.1,0.4,2.8,1.2c0.7,0.8,1,1.7,1,2.7c0,1-0.4,1.9-1.1,2.7s-1.7,1.2-2.8,1.2c-1.1,0-2.1-0.4-2.8-1.2
		s-1.1-1.7-1.1-2.7c0-1,0.3-1.9,1-2.7C320.1,22.9,321.1,22.5,322.2,22.5z M322.2,23.5c-0.8,0-1.5,0.3-2.1,0.9s-0.9,1.3-0.9,2.1
		c0,0.5,0.1,1,0.4,1.5s0.6,0.8,1.1,1.1c0.4,0.3,0.9,0.4,1.5,0.4c0.5,0,1-0.1,1.5-0.4c0.4-0.3,0.8-0.6,1.1-1.1s0.4-1,0.4-1.5
		c0-0.8-0.3-1.5-0.9-2.1C323.7,23.8,323,23.5,322.2,23.5z"/>
	<path d="M334.2,30.2h-1l-2.5-5.4l-2.5,5.4h-1l3.4-7.4h0.2L334.2,30.2z"/>
	<path d="M339.2,22.5c1.1,0,2.1,0.4,2.8,1.2c0.7,0.8,1,1.7,1,2.7c0,1-0.4,1.9-1.1,2.7s-1.7,1.2-2.8,1.2c-1.1,0-2.1-0.4-2.8-1.2
		s-1.1-1.7-1.1-2.7c0-1,0.3-1.9,1-2.7C337.1,22.9,338,22.5,339.2,22.5z M339.2,23.5c-0.8,0-1.5,0.3-2.1,0.9s-0.9,1.3-0.9,2.1
		c0,0.5,0.1,1,0.4,1.5s0.6,0.8,1.1,1.1c0.4,0.3,0.9,0.4,1.5,0.4c0.5,0,1-0.1,1.5-0.4c0.4-0.3,0.8-0.6,1.1-1.1s0.4-1,0.4-1.5
		c0-0.8-0.3-1.5-0.9-2.1C340.6,23.8,340,23.5,339.2,23.5z"/>
	<path d="M344,22.7h4.9v0.8h-2v6.6h-1v-6.6h-2V22.7z"/>
	<path d="M357.6,22.7v7.4h-0.9v-1.3c-0.4,0.5-0.9,0.9-1.4,1.1s-1,0.4-1.6,0.4c-1.1,0-2-0.4-2.7-1.1s-1.1-1.7-1.1-2.8
		c0-1.1,0.4-2,1.1-2.7s1.7-1.1,2.7-1.1c0.6,0,1.2,0.1,1.7,0.4s0.9,0.6,1.3,1.2v-1.4H357.6z M353.8,23.5c-0.5,0-1,0.1-1.5,0.4
		s-0.8,0.6-1.1,1.1c-0.3,0.5-0.4,1-0.4,1.5c0,0.5,0.1,1,0.4,1.5c0.3,0.5,0.6,0.9,1.1,1.1c0.5,0.3,0.9,0.4,1.5,0.4
		c0.5,0,1-0.1,1.5-0.4c0.5-0.3,0.8-0.6,1.1-1.1c0.3-0.5,0.4-1,0.4-1.5c0-0.9-0.3-1.6-0.9-2.2S354.6,23.5,353.8,23.5z"/>
	<path d="M365.8,30.2h-2.2v-7.4h2.1c0.8,0,1.4,0.2,1.8,0.6c0.4,0.4,0.5,0.8,0.5,1.3c0,0.8-0.3,1.3-1,1.5c1,0.3,1.4,1,1.4,2
		C368.5,29.5,367.6,30.2,365.8,30.2z M364.6,23.5v2.3h0.6c0.6,0,0.9,0,1.1-0.1c0.2,0,0.3-0.2,0.5-0.3c0.2-0.2,0.2-0.4,0.2-0.7
		c0-0.3-0.1-0.6-0.2-0.8c-0.2-0.2-0.3-0.3-0.5-0.4c-0.2,0-0.5-0.1-1.1-0.1H364.6z M364.6,26.7v2.6h1c0.5,0,0.8,0,1-0.1
		c0.2-0.1,0.4-0.2,0.5-0.4s0.2-0.5,0.2-0.8c0-0.4-0.1-0.7-0.4-1s-0.6-0.4-1-0.4H364.6z"/>
	<path d="M376.4,27.7l0.8,0.4c-0.3,0.5-0.6,0.9-0.9,1.3s-0.7,0.6-1.2,0.7s-0.9,0.2-1.5,0.2c-1.2,0-2.2-0.4-2.8-1.2s-1-1.7-1-2.7
		c0-0.9,0.3-1.8,0.9-2.5c0.7-0.9,1.7-1.4,2.9-1.4c1.3,0,2.3,0.5,3,1.4c0.5,0.7,0.8,1.5,0.8,2.5h-6.7c0,0.9,0.3,1.6,0.8,2.1
		s1.2,0.8,2,0.8c0.4,0,0.7-0.1,1.1-0.2c0.4-0.1,0.7-0.3,0.9-0.5C375.9,28.5,376.1,28.2,376.4,27.7z M376.4,25.7
		c-0.1-0.5-0.3-0.9-0.6-1.2c-0.2-0.3-0.6-0.6-1-0.7s-0.8-0.3-1.3-0.3c-0.7,0-1.4,0.2-1.9,0.7c-0.4,0.3-0.7,0.9-0.9,1.5H376.4z"/>
	<path d="M379.3,22.7h1v1.4c0.4-0.5,0.8-0.9,1.3-1.2s1-0.4,1.6-0.4c1.1,0,2,0.4,2.7,1.1c0.8,0.8,1.1,1.7,1.1,2.7
		c0,1.1-0.4,2-1.1,2.8c-0.7,0.8-1.6,1.1-2.7,1.1c-0.6,0-1.1-0.1-1.6-0.4s-0.9-0.6-1.3-1.1v4h-1V22.7z M383.1,23.5
		c-0.8,0-1.5,0.3-2.1,0.9c-0.6,0.6-0.8,1.3-0.8,2.2c0,0.6,0.1,1.1,0.4,1.5c0.3,0.5,0.6,0.8,1.1,1.1s1,0.4,1.5,0.4
		c0.5,0,1-0.1,1.4-0.4s0.8-0.6,1.1-1.1c0.3-0.5,0.4-1,0.4-1.5c0-0.5-0.1-1-0.4-1.5c-0.3-0.5-0.6-0.8-1.1-1.1S383.6,23.5,383.1,23.5z
		"/>
	<path d="M388,22.7h1.1l2,2.7l2-2.7h1.2l-2.5,3.5l2.9,3.9h-1.2l-2.3-3.1l-2.3,3.1h-1.1l2.8-3.9L388,22.7z"/>
	<path d="M399.1,22.5c1.1,0,2.1,0.4,2.8,1.2c0.7,0.8,1,1.7,1,2.7c0,1-0.4,1.9-1.1,2.7s-1.7,1.2-2.8,1.2c-1.1,0-2.1-0.4-2.8-1.2
		s-1.1-1.7-1.1-2.7c0-1,0.3-1.9,1-2.7C397,22.9,397.9,22.5,399.1,22.5z M399.1,23.5c-0.8,0-1.5,0.3-2.1,0.9s-0.9,1.3-0.9,2.1
		c0,0.5,0.1,1,0.4,1.5s0.6,0.8,1.1,1.1c0.4,0.3,0.9,0.4,1.5,0.4c0.5,0,1-0.1,1.5-0.4c0.4-0.3,0.8-0.6,1.1-1.1s0.4-1,0.4-1.5
		c0-0.8-0.3-1.5-0.9-2.1C400.5,23.8,399.8,23.5,399.1,23.5z"/>
	<path d="M406.9,30.2h-2.2v-7.4h2.1c0.8,0,1.4,0.2,1.8,0.6c0.4,0.4,0.5,0.8,0.5,1.3c0,0.8-0.3,1.3-1,1.5c1,0.3,1.4,1,1.4,2
		C409.6,29.5,408.7,30.2,406.9,30.2z M405.7,23.5v2.3h0.6c0.6,0,0.9,0,1.1-0.1c0.2,0,0.3-0.2,0.5-0.3c0.2-0.2,0.2-0.4,0.2-0.7
		c0-0.3-0.1-0.6-0.2-0.8c-0.2-0.2-0.3-0.3-0.5-0.4c-0.2,0-0.5-0.1-1.1-0.1H405.7z M405.7,26.7v2.6h1c0.5,0,0.8,0,1-0.1
		c0.2-0.1,0.4-0.2,0.5-0.4s0.2-0.5,0.2-0.8c0-0.4-0.1-0.7-0.4-1s-0.6-0.4-1-0.4H405.7z"/>
	<path d="M412.2,25.7h0.9c0.7,0,1.3,0.1,1.7,0.2c0.4,0.1,0.8,0.4,1.1,0.8c0.3,0.4,0.4,0.8,0.4,1.3c0,0.6-0.2,1.1-0.6,1.6
		c-0.4,0.4-1.1,0.7-2,0.7h-2.5v-7.4h1V25.7z M412.2,26.5v2.8h1.1c1.3,0,1.9-0.5,1.9-1.4c0-0.3-0.1-0.5-0.2-0.8s-0.3-0.4-0.6-0.5
		s-0.7-0.2-1.4-0.2H412.2z M417.6,22.7h1v7.4h-1V22.7z"/>
	<path d="M426.9,27.7l0.8,0.4c-0.3,0.5-0.6,0.9-0.9,1.3s-0.7,0.6-1.2,0.7s-0.9,0.2-1.5,0.2c-1.2,0-2.2-0.4-2.8-1.2s-1-1.7-1-2.7
		c0-0.9,0.3-1.8,0.9-2.5c0.7-0.9,1.7-1.4,2.9-1.4c1.3,0,2.3,0.5,3,1.4c0.5,0.7,0.8,1.5,0.8,2.5h-6.7c0,0.9,0.3,1.6,0.8,2.1
		s1.2,0.8,2,0.8c0.4,0,0.7-0.1,1.1-0.2c0.4-0.1,0.7-0.3,0.9-0.5C426.3,28.5,426.6,28.2,426.9,27.7z M426.9,25.7
		c-0.1-0.5-0.3-0.9-0.6-1.2c-0.2-0.3-0.6-0.6-1-0.7s-0.8-0.3-1.3-0.3c-0.7,0-1.4,0.2-1.9,0.7c-0.4,0.3-0.7,0.9-0.9,1.5H426.9z"/>
</g>
<g>
	<path d="M310.9,64V53.9h5v1h-4v3.2h0.5c1.3,0,2.2,0.1,2.7,0.3c0.6,0.2,1,0.6,1.3,1c0.3,0.5,0.5,1,0.5,1.6c0,0.8-0.3,1.4-0.9,2
		c-0.6,0.6-1.4,0.9-2.4,0.9H310.9z M311.8,59.1V63h1.2c0.7,0,1.3-0.1,1.6-0.2s0.6-0.4,0.8-0.7c0.2-0.3,0.3-0.6,0.3-1
		c0-0.5-0.1-0.9-0.4-1.2c-0.3-0.3-0.6-0.5-1.1-0.6s-1.1-0.2-1.9-0.2H311.8z"/>
	<path d="M322.2,56.4c1.1,0,2.1,0.4,2.8,1.2c0.7,0.8,1,1.7,1,2.7c0,1-0.4,1.9-1.1,2.7c-0.7,0.8-1.7,1.2-2.8,1.2
		c-1.1,0-2.1-0.4-2.8-1.2c-0.7-0.8-1.1-1.7-1.1-2.7c0-1,0.3-1.9,1-2.7C320.1,56.8,321.1,56.4,322.2,56.4z M322.2,57.3
		c-0.8,0-1.5,0.3-2.1,0.9s-0.9,1.3-0.9,2.1c0,0.5,0.1,1,0.4,1.5s0.6,0.8,1.1,1.1c0.4,0.3,0.9,0.4,1.5,0.4c0.5,0,1-0.1,1.5-0.4
		c0.4-0.3,0.8-0.6,1.1-1.1s0.4-1,0.4-1.5c0-0.8-0.3-1.5-0.9-2.1C323.7,57.6,323,57.3,322.2,57.3z"/>
	<path d="M334.2,64h-1l-2.5-5.4l-2.5,5.4h-1l3.4-7.4h0.2L334.2,64z"/>
	<path d="M339.2,56.4c1.1,0,2.1,0.4,2.8,1.2c0.7,0.8,1,1.7,1,2.7c0,1-0.4,1.9-1.1,2.7c-0.7,0.8-1.7,1.2-2.8,1.2
		c-1.1,0-2.1-0.4-2.8-1.2c-0.7-0.8-1.1-1.7-1.1-2.7c0-1,0.3-1.9,1-2.7C337.1,56.8,338,56.4,339.2,56.4z M339.2,57.3
		c-0.8,0-1.5,0.3-2.1,0.9s-0.9,1.3-0.9,2.1c0,0.5,0.1,1,0.4,1.5s0.6,0.8,1.1,1.1c0.4,0.3,0.9,0.4,1.5,0.4c0.5,0,1-0.1,1.5-0.4
		c0.4-0.3,0.8-0.6,1.1-1.1s0.4-1,0.4-1.5c0-0.8-0.3-1.5-0.9-2.1C340.6,57.6,340,57.3,339.2,57.3z"/>
	<path d="M344,56.6h4.9v0.8h-2V64h-1v-6.6h-2V56.6z"/>
	<path d="M357.6,56.6V64h-0.9v-1.3c-0.4,0.5-0.9,0.9-1.4,1.1s-1,0.4-1.6,0.4c-1.1,0-2-0.4-2.7-1.1c-0.7-0.8-1.1-1.7-1.1-2.8
		c0-1.1,0.4-2,1.1-2.7c0.8-0.8,1.7-1.1,2.7-1.1c0.6,0,1.2,0.1,1.7,0.4s0.9,0.6,1.3,1.2v-1.4H357.6z M353.8,57.3
		c-0.5,0-1,0.1-1.5,0.4s-0.8,0.6-1.1,1.1c-0.3,0.5-0.4,1-0.4,1.5c0,0.5,0.1,1,0.4,1.5s0.6,0.9,1.1,1.1c0.5,0.3,0.9,0.4,1.5,0.4
		c0.5,0,1-0.1,1.5-0.4c0.5-0.3,0.8-0.6,1.1-1.1c0.3-0.5,0.4-1,0.4-1.5c0-0.9-0.3-1.6-0.9-2.2S354.6,57.3,353.8,57.3z"/>
	<path d="M363.6,56.6h6.2V64h-1v-6.5h-4.3V64h-1V56.6z"/>
	<path d="M378.3,61.5l0.8,0.4c-0.3,0.5-0.6,0.9-0.9,1.3c-0.3,0.3-0.7,0.6-1.2,0.7c-0.4,0.2-0.9,0.2-1.5,0.2c-1.2,0-2.2-0.4-2.8-1.2
		c-0.7-0.8-1-1.7-1-2.7c0-0.9,0.3-1.8,0.9-2.5c0.7-0.9,1.7-1.4,2.9-1.4c1.3,0,2.3,0.5,3,1.4c0.5,0.7,0.8,1.5,0.8,2.5h-6.7
		c0,0.9,0.3,1.6,0.8,2.1c0.5,0.6,1.2,0.8,2,0.8c0.4,0,0.7-0.1,1.1-0.2c0.4-0.1,0.7-0.3,0.9-0.5S378,62,378.3,61.5z M378.3,59.5
		c-0.1-0.5-0.3-0.9-0.6-1.2c-0.2-0.3-0.6-0.6-1-0.7c-0.4-0.2-0.8-0.3-1.3-0.3c-0.7,0-1.4,0.2-1.9,0.7c-0.4,0.3-0.7,0.9-0.9,1.5
		H378.3z"/>
	<path d="M381.1,56.6h1v1.4c0.4-0.5,0.8-0.9,1.3-1.2s1-0.4,1.6-0.4c1.1,0,2,0.4,2.7,1.1c0.8,0.8,1.1,1.7,1.1,2.7
		c0,1.1-0.4,2-1.1,2.8c-0.7,0.8-1.6,1.1-2.7,1.1c-0.6,0-1.1-0.1-1.6-0.4s-0.9-0.6-1.3-1.1v4h-1V56.6z M384.9,57.3
		c-0.8,0-1.5,0.3-2.1,0.9c-0.6,0.6-0.8,1.3-0.8,2.2c0,0.6,0.1,1.1,0.4,1.5s0.6,0.8,1.1,1.1c0.5,0.3,1,0.4,1.5,0.4
		c0.5,0,1-0.1,1.4-0.4c0.5-0.3,0.8-0.6,1.1-1.1c0.3-0.5,0.4-1,0.4-1.5c0-0.5-0.1-1-0.4-1.5c-0.3-0.5-0.6-0.8-1.1-1.1
		S385.5,57.3,384.9,57.3z"/>
	<path d="M396.9,61.5l0.8,0.4c-0.3,0.5-0.6,0.9-0.9,1.3c-0.3,0.3-0.7,0.6-1.2,0.7c-0.4,0.2-0.9,0.2-1.5,0.2c-1.2,0-2.2-0.4-2.8-1.2
		c-0.7-0.8-1-1.7-1-2.7c0-0.9,0.3-1.8,0.9-2.5c0.7-0.9,1.7-1.4,2.9-1.4c1.3,0,2.3,0.5,3,1.4c0.5,0.7,0.8,1.5,0.8,2.5h-6.7
		c0,0.9,0.3,1.6,0.8,2.1c0.5,0.6,1.2,0.8,2,0.8c0.4,0,0.7-0.1,1.1-0.2c0.4-0.1,0.7-0.3,0.9-0.5S396.6,62,396.9,61.5z M396.9,59.5
		c-0.1-0.5-0.3-0.9-0.6-1.2c-0.2-0.3-0.6-0.6-1-0.7c-0.4-0.2-0.8-0.3-1.3-0.3c-0.7,0-1.4,0.2-1.9,0.7c-0.4,0.3-0.7,0.9-0.9,1.5
		H396.9z"/>
	<path d="M398.9,56.6h1.1l2,2.7l2-2.7h1.2l-2.5,3.5l2.9,3.9h-1.2l-2.3-3.1l-2.3,3.1h-1.1l2.8-3.9L398.9,56.6z"/>
	<path d="M410,56.4c1.1,0,2.1,0.4,2.8,1.2c0.7,0.8,1,1.7,1,2.7c0,1-0.4,1.9-1.1,2.7c-0.7,0.8-1.7,1.2-2.8,1.2
		c-1.1,0-2.1-0.4-2.8-1.2c-0.7-0.8-1.1-1.7-1.1-2.7c0-1,0.3-1.9,1-2.7C407.9,56.8,408.8,56.4,410,56.4z M410,57.3
		c-0.8,0-1.5,0.3-2.1,0.9s-0.9,1.3-0.9,2.1c0,0.5,0.1,1,0.4,1.5s0.6,0.8,1.1,1.1c0.4,0.3,0.9,0.4,1.5,0.4c0.5,0,1-0.1,1.5-0.4
		c0.4-0.3,0.8-0.6,1.1-1.1s0.4-1,0.4-1.5c0-0.8-0.3-1.5-0.9-2.1C411.4,57.6,410.8,57.3,410,57.3z"/>
	<path d="M415.7,63.2l2.9-6.6h0.5l2.9,6.6h0.9v1.8h-0.9v-1h-6.2v1h-0.9v-1.8H415.7z M418.8,58l-2.2,5.1h4.3L418.8,58z"/>
	<path d="M429.4,60.4h-4.3V64h-1v-7.4h1v3h4.3v-3h1V64h-1V60.4z"/>
	<path d="M433.4,59.5h0.9c0.7,0,1.3,0.1,1.7,0.2c0.4,0.1,0.8,0.4,1.1,0.8c0.3,0.4,0.4,0.8,0.4,1.3c0,0.6-0.2,1.1-0.6,1.6
		c-0.4,0.4-1.1,0.7-2,0.7h-2.5v-7.4h1V59.5z M433.5,60.4v2.8h1.1c1.3,0,1.9-0.5,1.9-1.4c0-0.3-0.1-0.5-0.2-0.8
		c-0.1-0.3-0.3-0.4-0.6-0.5c-0.3-0.1-0.7-0.2-1.4-0.2H433.5z M438.9,56.6h1V64h-1V56.6z"/>
	<path d="M448.1,61.5l0.8,0.4c-0.3,0.5-0.6,0.9-0.9,1.3c-0.3,0.3-0.7,0.6-1.2,0.7c-0.4,0.2-0.9,0.2-1.5,0.2c-1.2,0-2.2-0.4-2.8-1.2
		c-0.7-0.8-1-1.7-1-2.7c0-0.9,0.3-1.8,0.9-2.5c0.7-0.9,1.7-1.4,2.9-1.4c1.3,0,2.3,0.5,3,1.4c0.5,0.7,0.8,1.5,0.8,2.5h-6.7
		c0,0.9,0.3,1.6,0.8,2.1c0.5,0.6,1.2,0.8,2,0.8c0.4,0,0.7-0.1,1.1-0.2c0.4-0.1,0.7-0.3,0.9-0.5S447.8,62,448.1,61.5z M448.1,59.5
		c-0.1-0.5-0.3-0.9-0.6-1.2c-0.2-0.3-0.6-0.6-1-0.7c-0.4-0.2-0.8-0.3-1.3-0.3c-0.7,0-1.4,0.2-1.9,0.7c-0.4,0.3-0.7,0.9-0.9,1.5
		H448.1z"/>
</g>
<g>
	<path d="M310.9,94.4V84.4h5v1h-4v3.2h0.5c1.3,0,2.2,0.1,2.7,0.3c0.6,0.2,1,0.6,1.3,1c0.3,0.5,0.5,1,0.5,1.6c0,0.8-0.3,1.4-0.9,2
		c-0.6,0.6-1.4,0.9-2.4,0.9H310.9z M311.8,89.6v3.9h1.2c0.7,0,1.3-0.1,1.6-0.2s0.6-0.4,0.8-0.7c0.2-0.3,0.3-0.6,0.3-1
		c0-0.5-0.1-0.9-0.4-1.2c-0.3-0.3-0.6-0.5-1.1-0.6s-1.1-0.2-1.9-0.2H311.8z"/>
	<path d="M322.2,86.8c1.1,0,2.1,0.4,2.8,1.2c0.7,0.8,1,1.7,1,2.7c0,1-0.4,1.9-1.1,2.7c-0.7,0.8-1.7,1.2-2.8,1.2
		c-1.1,0-2.1-0.4-2.8-1.2c-0.7-0.8-1.1-1.7-1.1-2.7c0-1,0.3-1.9,1-2.7C320.1,87.2,321.1,86.8,322.2,86.8z M322.2,87.7
		c-0.8,0-1.5,0.3-2.1,0.9s-0.9,1.3-0.9,2.1c0,0.5,0.1,1,0.4,1.5s0.6,0.8,1.1,1.1c0.4,0.3,0.9,0.4,1.5,0.4c0.5,0,1-0.1,1.5-0.4
		c0.4-0.3,0.8-0.6,1.1-1.1s0.4-1,0.4-1.5c0-0.8-0.3-1.5-0.9-2.1C323.7,88,323,87.7,322.2,87.7z"/>
	<path d="M334.2,94.4h-1l-2.5-5.4l-2.5,5.4h-1l3.4-7.4h0.2L334.2,94.4z"/>
	<path d="M339.2,86.8c1.1,0,2.1,0.4,2.8,1.2c0.7,0.8,1,1.7,1,2.7c0,1-0.4,1.9-1.1,2.7c-0.7,0.8-1.7,1.2-2.8,1.2
		c-1.1,0-2.1-0.4-2.8-1.2c-0.7-0.8-1.1-1.7-1.1-2.7c0-1,0.3-1.9,1-2.7C337.1,87.2,338,86.8,339.2,86.8z M339.2,87.7
		c-0.8,0-1.5,0.3-2.1,0.9s-0.9,1.3-0.9,2.1c0,0.5,0.1,1,0.4,1.5s0.6,0.8,1.1,1.1c0.4,0.3,0.9,0.4,1.5,0.4c0.5,0,1-0.1,1.5-0.4
		c0.4-0.3,0.8-0.6,1.1-1.1s0.4-1,0.4-1.5c0-0.8-0.3-1.5-0.9-2.1C340.6,88,340,87.7,339.2,87.7z"/>
	<path d="M344,87h4.9v0.8h-2v6.6h-1v-6.6h-2V87z"/>
	<path d="M357.6,87v7.4h-0.9v-1.3c-0.4,0.5-0.9,0.9-1.4,1.1s-1,0.4-1.6,0.4c-1.1,0-2-0.4-2.7-1.1c-0.7-0.8-1.1-1.7-1.1-2.8
		c0-1.1,0.4-2,1.1-2.7c0.8-0.8,1.7-1.1,2.7-1.1c0.6,0,1.2,0.1,1.7,0.4s0.9,0.6,1.3,1.2V87H357.6z M353.8,87.7c-0.5,0-1,0.1-1.5,0.4
		s-0.8,0.6-1.1,1.1c-0.3,0.5-0.4,1-0.4,1.5c0,0.5,0.1,1,0.4,1.5s0.6,0.9,1.1,1.1c0.5,0.3,0.9,0.4,1.5,0.4c0.5,0,1-0.1,1.5-0.4
		c0.5-0.3,0.8-0.6,1.1-1.1c0.3-0.5,0.4-1,0.4-1.5c0-0.9-0.3-1.6-0.9-2.2S354.6,87.7,353.8,87.7z"/>
	<path d="M368.9,90.8h-4.3v3.6h-1V87h1v3h4.3v-3h1v7.4h-1V90.8z"/>
	<path d="M372.9,87v5.5l5.5-5.5h0.1v7.4h-1V89l-5.4,5.5H372V87H372.9z"/>
	<path d="M381.9,90.1h0.5c0.3,0,0.6-0.1,0.9-0.3c0.3-0.2,0.4-0.5,0.4-0.9c0-0.3-0.1-0.6-0.3-0.9c-0.2-0.2-0.5-0.4-1-0.4
		c-0.5,0-1,0.2-1.5,0.6l-0.5-0.7c0.7-0.6,1.4-0.8,2.1-0.8c0.6,0,1.1,0.2,1.6,0.6s0.6,0.8,0.6,1.4c0,0.8-0.3,1.3-1,1.6
		c0.9,0.4,1.3,1,1.3,2c0,0.6-0.2,1.1-0.6,1.6s-1,0.7-1.9,0.7c-1,0-1.8-0.3-2.5-1l0.6-0.7c0.5,0.5,1,0.8,1.8,0.8
		c0.5,0,0.9-0.1,1.1-0.4s0.4-0.6,0.4-1c0-0.4-0.1-0.7-0.4-1c-0.3-0.3-0.6-0.4-1-0.4h-0.6V90.1z"/>
	<path d="M387.5,87v5.5L393,87h0.1v7.4h-1V89l-5.4,5.5h-0.1V87H387.5z"/>
	<path d="M400.4,90.8h-4.3v3.6h-1V87h1v3h4.3v-3h1v7.4h-1V90.8z"/>
	<path d="M408.8,90.8h-4.3v3.6h-1V87h1v3h4.3v-3h1v7.4h-1V90.8z"/>
	<path d="M412.9,89.9h0.9c0.7,0,1.3,0.1,1.7,0.2c0.4,0.1,0.8,0.4,1.1,0.8c0.3,0.4,0.4,0.8,0.4,1.3c0,0.6-0.2,1.1-0.6,1.6
		c-0.4,0.4-1.1,0.7-2,0.7h-2.5V87h1V89.9z M412.9,90.8v2.8h1.1c1.3,0,1.9-0.5,1.9-1.4c0-0.3-0.1-0.5-0.2-0.8
		c-0.1-0.3-0.3-0.4-0.6-0.5c-0.3-0.1-0.7-0.2-1.4-0.2H412.9z M418.3,87h1v7.4h-1V87z"/>
	<path d="M427.6,92l0.8,0.4c-0.3,0.5-0.6,0.9-0.9,1.3c-0.3,0.3-0.7,0.6-1.2,0.7c-0.4,0.2-0.9,0.2-1.5,0.2c-1.2,0-2.2-0.4-2.8-1.2
		c-0.7-0.8-1-1.7-1-2.7c0-0.9,0.3-1.8,0.9-2.5c0.7-0.9,1.7-1.4,2.9-1.4c1.3,0,2.3,0.5,3,1.4c0.5,0.7,0.8,1.5,0.8,2.5h-6.7
		c0,0.9,0.3,1.6,0.8,2.1c0.5,0.6,1.2,0.8,2,0.8c0.4,0,0.7-0.1,1.1-0.2c0.4-0.1,0.7-0.3,0.9-0.5S427.3,92.4,427.6,92z M427.6,89.9
		c-0.1-0.5-0.3-0.9-0.6-1.2c-0.2-0.3-0.6-0.6-1-0.7c-0.4-0.2-0.8-0.3-1.3-0.3c-0.7,0-1.4,0.2-1.9,0.7c-0.4,0.3-0.7,0.9-0.9,1.5
		H427.6z"/>
</g>
<g>
	<path d="M310.9,116h2c0.8,0,1.4,0.1,1.8,0.3c0.4,0.2,0.8,0.5,1,0.9c0.2,0.4,0.4,0.8,0.4,1.3c0,0.4-0.1,0.9-0.3,1.2
		c-0.2,0.4-0.5,0.7-1,0.9c0.5,0.2,0.9,0.4,1.2,0.6s0.5,0.5,0.7,0.9c0.2,0.3,0.2,0.7,0.2,1.1c0,0.8-0.3,1.5-0.9,2
		c-0.6,0.6-1.4,0.8-2.4,0.8h-2.8V116z M311.9,117v3.2h0.6c0.7,0,1.2-0.1,1.5-0.2s0.6-0.3,0.8-0.6s0.3-0.6,0.3-0.9
		c0-0.5-0.2-0.8-0.5-1.1c-0.3-0.3-0.8-0.4-1.5-0.4H311.9z M311.9,121.2v3.9h1.2c0.7,0,1.3-0.1,1.6-0.2s0.6-0.4,0.8-0.7
		c0.2-0.3,0.3-0.6,0.3-1c0-0.4-0.1-0.8-0.4-1.2c-0.3-0.3-0.7-0.6-1.2-0.7c-0.3-0.1-0.9-0.1-1.8-0.1H311.9z"/>
	<path d="M322.3,118.5c1.1,0,2.1,0.4,2.8,1.2c0.7,0.8,1,1.7,1,2.7c0,1-0.4,1.9-1.1,2.7c-0.7,0.8-1.7,1.2-2.8,1.2
		c-1.1,0-2.1-0.4-2.8-1.2c-0.7-0.8-1.1-1.7-1.1-2.7c0-1,0.3-1.9,1-2.7C320.2,118.9,321.1,118.5,322.3,118.5z M322.3,119.4
		c-0.8,0-1.5,0.3-2.1,0.9s-0.9,1.3-0.9,2.1c0,0.5,0.1,1,0.4,1.5s0.6,0.8,1.1,1.1c0.4,0.3,0.9,0.4,1.5,0.4c0.5,0,1-0.1,1.5-0.4
		c0.4-0.3,0.8-0.6,1.1-1.1s0.4-1,0.4-1.5c0-0.8-0.3-1.5-0.9-2.1C323.7,119.7,323.1,119.4,322.3,119.4z"/>
	<path d="M328,125.3l2.9-6.6h0.5l2.9,6.6h0.9v1.8h-0.9v-1H328v1h-0.9v-1.8H328z M331.1,120.1l-2.2,5.1h4.3L331.1,120.1z"/>
	<path d="M341.7,122.5h-4.3v3.6h-1v-7.4h1v3h4.3v-3h1v7.4h-1V122.5z"/>
	<path d="M345.7,121.6h0.9c0.7,0,1.3,0.1,1.7,0.2c0.4,0.1,0.8,0.4,1.1,0.8c0.3,0.4,0.4,0.8,0.4,1.3c0,0.6-0.2,1.1-0.6,1.6
		c-0.4,0.4-1.1,0.7-2,0.7h-2.5v-7.4h1V121.6z M345.7,122.5v2.8h1.1c1.3,0,1.9-0.5,1.9-1.4c0-0.3-0.1-0.5-0.2-0.8
		c-0.1-0.3-0.3-0.4-0.6-0.5c-0.3-0.1-0.7-0.2-1.4-0.2H345.7z M351.1,118.6h1v7.4h-1V118.6z"/>
	<path d="M360.4,123.6l0.8,0.4c-0.3,0.5-0.6,0.9-0.9,1.3c-0.3,0.3-0.7,0.6-1.2,0.7c-0.4,0.2-0.9,0.3-1.5,0.3c-1.2,0-2.2-0.4-2.8-1.2
		c-0.7-0.8-1-1.7-1-2.7c0-0.9,0.3-1.8,0.9-2.5c0.7-0.9,1.7-1.4,2.9-1.4c1.3,0,2.3,0.5,3,1.4c0.5,0.7,0.8,1.5,0.8,2.5h-6.7
		c0,0.9,0.3,1.6,0.8,2.1c0.5,0.6,1.2,0.8,2,0.8c0.4,0,0.7-0.1,1.1-0.2c0.4-0.1,0.7-0.3,0.9-0.5C359.8,124.5,360.1,124.1,360.4,123.6
		z M360.4,121.6c-0.1-0.5-0.3-0.9-0.6-1.2c-0.2-0.3-0.6-0.6-1-0.7c-0.4-0.2-0.8-0.3-1.3-0.3c-0.7,0-1.4,0.2-1.9,0.7
		c-0.4,0.3-0.7,0.9-0.9,1.5H360.4z"/>
	<path d="M370.6,118.5c1.1,0,2.1,0.4,2.8,1.2c0.7,0.8,1,1.7,1,2.7c0,1-0.4,1.9-1.1,2.7c-0.7,0.8-1.7,1.2-2.8,1.2
		c-1.1,0-2.1-0.4-2.8-1.2c-0.7-0.8-1.1-1.7-1.1-2.7c0-1,0.3-1.9,1-2.7C368.5,118.9,369.5,118.5,370.6,118.5z M370.6,119.4
		c-0.8,0-1.5,0.3-2.1,0.9s-0.9,1.3-0.9,2.1c0,0.5,0.1,1,0.4,1.5s0.6,0.8,1.1,1.1c0.4,0.3,0.9,0.4,1.5,0.4c0.5,0,1-0.1,1.5-0.4
		c0.4-0.3,0.8-0.6,1.1-1.1s0.4-1,0.4-1.5c0-0.8-0.3-1.5-0.9-2.1C372.1,119.7,371.4,119.4,370.6,119.4z"/>
	<path d="M383.4,115.6v0.9c-0.5,0.1-1.2,0.1-2.3,0.2c-0.8,0-1.4,0.1-1.9,0.2c-0.4,0.1-0.8,0.2-1.1,0.5c-0.3,0.2-0.6,0.6-0.8,1
		s-0.4,1-0.4,1.5l-0.1,1c0.3-0.9,0.7-1.5,1.3-1.9s1.3-0.6,2-0.6c1.1,0,2,0.4,2.8,1.2c0.7,0.8,1.1,1.7,1.1,2.8c0,1.1-0.4,2-1.1,2.7
		s-1.7,1.1-2.8,1.1c-1.1,0-2.1-0.4-2.9-1.3c-0.8-0.8-1.2-2.2-1.2-4c0-1.3,0.1-2.2,0.4-2.9c0.3-0.7,0.6-1.1,1-1.4
		c0.4-0.3,0.9-0.5,1.5-0.7c0.6-0.2,1.7-0.3,3.3-0.3C382.6,115.7,383.1,115.7,383.4,115.6z M382.9,122.4c0-0.8-0.3-1.5-0.9-2.1
		c-0.6-0.6-1.3-0.9-2-0.9c-0.8,0-1.5,0.3-2,0.9c-0.6,0.6-0.9,1.3-0.9,2.1c0,0.8,0.3,1.5,0.8,2.1c0.6,0.6,1.2,0.9,2.1,0.9
		c0.8,0,1.5-0.3,2.1-0.9C382.6,123.9,382.9,123.2,382.9,122.4z"/>
	<path d="M387.3,121.6h0.9c0.7,0,1.3,0.1,1.7,0.2c0.4,0.1,0.8,0.4,1.1,0.8s0.4,0.8,0.4,1.3c0,0.6-0.2,1.1-0.6,1.6
		c-0.4,0.4-1.1,0.7-1.9,0.7h-2.5v-6.6H385v-0.9h2.3V121.6z M387.3,122.4v2.9h1.1c1.3,0,2-0.5,2-1.4c0-0.3-0.1-0.6-0.3-0.9
		c-0.2-0.2-0.4-0.4-0.7-0.5c-0.3-0.1-0.7-0.1-1.3-0.1H387.3z"/>
	<path d="M399.2,123.6l0.8,0.4c-0.3,0.5-0.6,0.9-0.9,1.3c-0.3,0.3-0.7,0.6-1.2,0.7c-0.4,0.2-0.9,0.3-1.5,0.3c-1.2,0-2.2-0.4-2.8-1.2
		c-0.7-0.8-1-1.7-1-2.7c0-0.9,0.3-1.8,0.9-2.5c0.7-0.9,1.7-1.4,2.9-1.4c1.3,0,2.3,0.5,3,1.4c0.5,0.7,0.8,1.5,0.8,2.5h-6.7
		c0,0.9,0.3,1.6,0.8,2.1c0.5,0.6,1.2,0.8,2,0.8c0.4,0,0.7-0.1,1.1-0.2c0.4-0.1,0.7-0.3,0.9-0.5C398.6,124.5,398.9,124.1,399.2,123.6
		z M399.2,121.6c-0.1-0.5-0.3-0.9-0.6-1.2c-0.2-0.3-0.6-0.6-1-0.7c-0.4-0.2-0.8-0.3-1.3-0.3c-0.7,0-1.4,0.2-1.9,0.7
		c-0.4,0.3-0.7,0.9-0.9,1.5H399.2z"/>
	<path d="M402,118.6h1v3.1l3.4-3.1h1.3l-3.8,3.4l4.1,4h-1.4l-3.4-3.4l-0.3,0.3v3.2h-1V118.6z"/>
	<path d="M408.2,118.6h4.9v0.8h-2v6.6h-1v-6.6h-2V118.6z"/>
	<path d="M415.4,121.6h0.9c0.7,0,1.3,0.1,1.7,0.2c0.4,0.1,0.8,0.4,1.1,0.8c0.3,0.4,0.4,0.8,0.4,1.3c0,0.6-0.2,1.1-0.6,1.6
		c-0.4,0.4-1.1,0.7-2,0.7h-2.5v-7.4h1V121.6z M415.4,122.5v2.8h1.1c1.3,0,1.9-0.5,1.9-1.4c0-0.3-0.1-0.5-0.2-0.8
		c-0.1-0.3-0.3-0.4-0.6-0.5c-0.3-0.1-0.7-0.2-1.4-0.2H415.4z M420.8,118.6h1v7.4h-1V118.6z"/>
</g>
<g>
	<path d="M310.1,140.4h1.1l3,6.8l2.8-6.9h1.1l-3.8,9c-0.4,0.8-1,1.3-1.9,1.3c-0.4,0-0.7-0.1-1-0.2c-0.3-0.1-0.7-0.5-1.2-1l0.7-0.6
		c0.5,0.5,0.8,0.8,1,0.8s0.3,0.1,0.5,0.1c0.3,0,0.5-0.1,0.7-0.2c0.2-0.1,0.4-0.5,0.6-1.1L310.1,140.4z"/>
	<path d="M319.8,143h1v1.4c0.4-0.5,0.8-0.9,1.3-1.2s1-0.4,1.6-0.4c1.1,0,2,0.4,2.7,1.1c0.8,0.8,1.1,1.7,1.1,2.7c0,1.1-0.4,2-1.1,2.8
		c-0.7,0.8-1.6,1.1-2.7,1.1c-0.6,0-1.1-0.1-1.6-0.4s-0.9-0.6-1.3-1.1v4h-1V143z M323.6,143.7c-0.8,0-1.5,0.3-2.1,0.9
		c-0.6,0.6-0.8,1.3-0.8,2.2c0,0.6,0.1,1.1,0.4,1.5s0.6,0.8,1.1,1.1c0.5,0.3,1,0.4,1.5,0.4c0.5,0,1-0.1,1.4-0.4
		c0.5-0.3,0.8-0.6,1.1-1.1c0.3-0.5,0.4-1,0.4-1.5c0-0.5-0.1-1-0.4-1.5c-0.3-0.5-0.6-0.8-1.1-1.1S324.1,143.7,323.6,143.7z"/>
	<path d="M336.4,139.9v0.9c-0.5,0.1-1.2,0.1-2.3,0.2c-0.8,0-1.4,0.1-1.9,0.2c-0.4,0.1-0.8,0.2-1.1,0.5c-0.3,0.2-0.6,0.6-0.8,1
		s-0.4,1-0.4,1.5l-0.1,1c0.3-0.9,0.7-1.5,1.3-1.9s1.3-0.6,2-0.6c1.1,0,2,0.4,2.8,1.2c0.7,0.8,1.1,1.7,1.1,2.8c0,1.1-0.4,2-1.1,2.7
		s-1.7,1.1-2.8,1.1c-1.1,0-2.1-0.4-2.9-1.3c-0.8-0.8-1.2-2.2-1.2-4c0-1.3,0.1-2.2,0.4-2.9c0.3-0.7,0.6-1.1,1-1.4
		c0.4-0.3,0.9-0.5,1.5-0.7c0.6-0.2,1.7-0.3,3.3-0.3C335.7,140,336.1,140,336.4,139.9z M335.9,146.7c0-0.8-0.3-1.5-0.9-2.1
		c-0.6-0.6-1.3-0.9-2-0.9c-0.8,0-1.5,0.3-2,0.9c-0.6,0.6-0.9,1.3-0.9,2.1c0,0.8,0.3,1.5,0.8,2.1c0.6,0.6,1.2,0.9,2.1,0.9
		c0.8,0,1.5-0.3,2.1-0.9C335.6,148.2,335.9,147.5,335.9,146.7z"/>
	<path d="M346.1,143v7.4h-0.9v-1.3c-0.4,0.5-0.9,0.9-1.4,1.1s-1,0.4-1.6,0.4c-1.1,0-2-0.4-2.7-1.1c-0.7-0.8-1.1-1.7-1.1-2.8
		c0-1.1,0.4-2,1.1-2.7c0.8-0.8,1.7-1.1,2.7-1.1c0.6,0,1.2,0.1,1.7,0.4s0.9,0.6,1.3,1.2V143H346.1z M342.3,143.7
		c-0.5,0-1,0.1-1.5,0.4s-0.8,0.6-1.1,1.1c-0.3,0.5-0.4,1-0.4,1.5c0,0.5,0.1,1,0.4,1.5s0.6,0.9,1.1,1.1c0.5,0.3,0.9,0.4,1.5,0.4
		c0.5,0,1-0.1,1.5-0.4c0.5-0.3,0.8-0.6,1.1-1.1c0.3-0.5,0.4-1,0.4-1.5c0-0.9-0.3-1.6-0.9-2.2S343.1,143.7,342.3,143.7z"/>
	<path d="M353.5,146.8h-4.3v3.6h-1V143h1v3h4.3v-3h1v7.4h-1V146.8z"/>
	<path d="M357.6,143v5.5l5.5-5.5h0.1v7.4h-1v-5.5l-5.4,5.5h-0.1V143H357.6z"/>
	<path d="M366.5,146.1h0.5c0.3,0,0.6-0.1,0.9-0.3c0.3-0.2,0.4-0.5,0.4-0.9c0-0.3-0.1-0.6-0.3-0.9c-0.2-0.2-0.5-0.4-1-0.4
		c-0.5,0-1,0.2-1.5,0.6l-0.5-0.7c0.7-0.6,1.4-0.8,2.1-0.8c0.6,0,1.1,0.2,1.6,0.6s0.6,0.8,0.6,1.4c0,0.8-0.3,1.3-1,1.6
		c0.9,0.4,1.3,1,1.3,2c0,0.6-0.2,1.1-0.6,1.6s-1,0.7-1.9,0.7c-1,0-1.8-0.3-2.5-1l0.6-0.7c0.5,0.5,1,0.8,1.8,0.8
		c0.5,0,0.9-0.1,1.1-0.4s0.4-0.6,0.4-1c0-0.4-0.1-0.7-0.4-1c-0.3-0.3-0.6-0.4-1-0.4h-0.6V146.1z"/>
	<path d="M372.1,143v5.5l5.5-5.5h0.1v7.4h-1v-5.5l-5.4,5.5h-0.1V143H372.1z"/>
	<path d="M379.8,143h1v1.4c0.4-0.5,0.8-0.9,1.3-1.2s1-0.4,1.6-0.4c1.1,0,2,0.4,2.7,1.1c0.8,0.8,1.1,1.7,1.1,2.7c0,1.1-0.4,2-1.1,2.8
		c-0.7,0.8-1.6,1.1-2.7,1.1c-0.6,0-1.1-0.1-1.6-0.4s-0.9-0.6-1.3-1.1v4h-1V143z M383.6,143.7c-0.8,0-1.5,0.3-2.1,0.9
		c-0.6,0.6-0.8,1.3-0.8,2.2c0,0.6,0.1,1.1,0.4,1.5s0.6,0.8,1.1,1.1c0.5,0.3,1,0.4,1.5,0.4c0.5,0,1-0.1,1.4-0.4
		c0.5-0.3,0.8-0.6,1.1-1.1c0.3-0.5,0.4-1,0.4-1.5c0-0.5-0.1-1-0.4-1.5c-0.3-0.5-0.6-0.8-1.1-1.1S384.2,143.7,383.6,143.7z"/>
	<path d="M392.8,142.8c1.1,0,2.1,0.4,2.8,1.2c0.7,0.8,1,1.7,1,2.7c0,1-0.4,1.9-1.1,2.7c-0.7,0.8-1.7,1.2-2.8,1.2
		c-1.1,0-2.1-0.4-2.8-1.2c-0.7-0.8-1.1-1.7-1.1-2.7c0-1,0.3-1.9,1-2.7C390.7,143.2,391.7,142.8,392.8,142.8z M392.8,143.7
		c-0.8,0-1.5,0.3-2.1,0.9s-0.9,1.3-0.9,2.1c0,0.5,0.1,1,0.4,1.5s0.6,0.8,1.1,1.1c0.4,0.3,0.9,0.4,1.5,0.4c0.5,0,1-0.1,1.5-0.4
		c0.4-0.3,0.8-0.6,1.1-1.1s0.4-1,0.4-1.5c0-0.8-0.3-1.5-0.9-2.1C394.3,144,393.6,143.7,392.8,143.7z"/>
	<path d="M400.7,150.4h-2.2V143h2.1c0.8,0,1.4,0.2,1.8,0.6c0.4,0.4,0.5,0.8,0.5,1.3c0,0.8-0.3,1.3-1,1.5c1,0.3,1.4,1,1.4,2
		C403.4,149.7,402.5,150.4,400.7,150.4z M399.5,143.8v2.3h0.6c0.6,0,0.9,0,1.1-0.1c0.2,0,0.3-0.2,0.5-0.3c0.2-0.2,0.2-0.4,0.2-0.7
		c0-0.3-0.1-0.6-0.2-0.8c-0.2-0.2-0.3-0.3-0.5-0.4c-0.2,0-0.5-0.1-1.1-0.1H399.5z M399.5,147v2.6h1c0.5,0,0.8,0,1-0.1
		c0.2-0.1,0.4-0.2,0.5-0.4s0.2-0.5,0.2-0.8c0-0.4-0.1-0.7-0.4-1c-0.3-0.2-0.6-0.4-1-0.4H399.5z"/>
	<path d="M412.5,143v7.4h-0.9v-1.3c-0.4,0.5-0.9,0.9-1.4,1.1s-1,0.4-1.6,0.4c-1.1,0-2-0.4-2.7-1.1c-0.7-0.8-1.1-1.7-1.1-2.8
		c0-1.1,0.4-2,1.1-2.7c0.8-0.8,1.7-1.1,2.7-1.1c0.6,0,1.2,0.1,1.7,0.4s0.9,0.6,1.3,1.2V143H412.5z M408.6,143.7
		c-0.5,0-1,0.1-1.5,0.4s-0.8,0.6-1.1,1.1c-0.3,0.5-0.4,1-0.4,1.5c0,0.5,0.1,1,0.4,1.5s0.6,0.9,1.1,1.1c0.5,0.3,0.9,0.4,1.5,0.4
		c0.5,0,1-0.1,1.5-0.4c0.5-0.3,0.8-0.6,1.1-1.1c0.3-0.5,0.4-1,0.4-1.5c0-0.9-0.3-1.6-0.9-2.2S409.5,143.7,408.6,143.7z"/>
	<path d="M419.9,146.8h-4.3v3.6h-1V143h1v3h4.3v-3h1v7.4h-1V146.8z"/>
	<path d="M428.3,146.8h-4.3v3.6h-1V143h1v3h4.3v-3h1v7.4h-1V146.8z"/>
	<path d="M432.3,145.9h0.9c0.7,0,1.3,0.1,1.7,0.2c0.4,0.1,0.8,0.4,1.1,0.8c0.3,0.4,0.4,0.8,0.4,1.3c0,0.6-0.2,1.1-0.6,1.6
		c-0.4,0.4-1.1,0.7-2,0.7h-2.5V143h1V145.9z M432.3,146.8v2.8h1.1c1.3,0,1.9-0.5,1.9-1.4c0-0.3-0.1-0.5-0.2-0.8
		c-0.1-0.3-0.3-0.4-0.6-0.5c-0.3-0.1-0.7-0.2-1.4-0.2H432.3z M437.7,143h1v7.4h-1V143z"/>
	<path d="M447,147.9l0.8,0.4c-0.3,0.5-0.6,0.9-0.9,1.3c-0.3,0.3-0.7,0.6-1.2,0.7c-0.4,0.2-0.9,0.2-1.5,0.2c-1.2,0-2.2-0.4-2.8-1.2
		c-0.7-0.8-1-1.7-1-2.7c0-0.9,0.3-1.8,0.9-2.5c0.7-0.9,1.7-1.4,2.9-1.4c1.3,0,2.3,0.5,3,1.4c0.5,0.7,0.8,1.5,0.8,2.5h-6.7
		c0,0.9,0.3,1.6,0.8,2.1c0.5,0.6,1.2,0.8,2,0.8c0.4,0,0.7-0.1,1.1-0.2c0.4-0.1,0.7-0.3,0.9-0.5S446.7,148.4,447,147.9z M447,145.9
		c-0.1-0.5-0.3-0.9-0.6-1.2c-0.2-0.3-0.6-0.6-1-0.7c-0.4-0.2-0.8-0.3-1.3-0.3c-0.7,0-1.4,0.2-1.9,0.7c-0.4,0.3-0.7,0.9-0.9,1.5H447z
		"/>
	<path d="M309.9,159.8h4.9v0.8h-2v6.6h-1v-6.6h-2V159.8z"/>
	<path d="M322.3,164.7l0.8,0.4c-0.3,0.5-0.6,0.9-0.9,1.3c-0.3,0.3-0.7,0.6-1.2,0.7c-0.4,0.2-0.9,0.2-1.5,0.2c-1.2,0-2.2-0.4-2.8-1.2
		c-0.7-0.8-1-1.7-1-2.7c0-0.9,0.3-1.8,0.9-2.5c0.7-0.9,1.7-1.4,2.9-1.4c1.3,0,2.3,0.5,3,1.4c0.5,0.7,0.8,1.5,0.8,2.5h-6.7
		c0,0.9,0.3,1.6,0.8,2.1c0.5,0.6,1.2,0.8,2,0.8c0.4,0,0.7-0.1,1.1-0.2c0.4-0.1,0.7-0.3,0.9-0.5S322,165.2,322.3,164.7z M322.3,162.7
		c-0.1-0.5-0.3-0.9-0.6-1.2c-0.2-0.3-0.6-0.6-1-0.7c-0.4-0.2-0.8-0.3-1.3-0.3c-0.7,0-1.4,0.2-1.9,0.7c-0.4,0.3-0.7,0.9-0.9,1.5
		H322.3z"/>
	<path d="M325.2,159.8h1v1.4c0.4-0.5,0.8-0.9,1.3-1.2s1-0.4,1.6-0.4c1.1,0,2,0.4,2.7,1.1c0.8,0.8,1.1,1.7,1.1,2.7
		c0,1.1-0.4,2-1.1,2.8c-0.7,0.8-1.6,1.1-2.7,1.1c-0.6,0-1.1-0.1-1.6-0.4s-0.9-0.6-1.3-1.1v4h-1V159.8z M329,160.5
		c-0.8,0-1.5,0.3-2.1,0.9c-0.6,0.6-0.8,1.3-0.8,2.2c0,0.6,0.1,1.1,0.4,1.5s0.6,0.8,1.1,1.1c0.5,0.3,1,0.4,1.5,0.4
		c0.5,0,1-0.1,1.4-0.4c0.5-0.3,0.8-0.6,1.1-1.1c0.3-0.5,0.4-1,0.4-1.5c0-0.5-0.1-1-0.4-1.5c-0.3-0.5-0.6-0.8-1.1-1.1
		S329.5,160.5,329,160.5z"/>
	<path d="M334.7,159.8h1v1.4c0.4-0.5,0.8-0.9,1.3-1.2s1-0.4,1.6-0.4c1.1,0,2,0.4,2.7,1.1c0.8,0.8,1.1,1.7,1.1,2.7
		c0,1.1-0.4,2-1.1,2.8c-0.7,0.8-1.6,1.1-2.7,1.1c-0.6,0-1.1-0.1-1.6-0.4s-0.9-0.6-1.3-1.1v4h-1V159.8z M338.6,160.5
		c-0.8,0-1.5,0.3-2.1,0.9c-0.6,0.6-0.8,1.3-0.8,2.2c0,0.6,0.1,1.1,0.4,1.5s0.6,0.8,1.1,1.1c0.5,0.3,1,0.4,1.5,0.4
		c0.5,0,1-0.1,1.4-0.4c0.5-0.3,0.8-0.6,1.1-1.1c0.3-0.5,0.4-1,0.4-1.5c0-0.5-0.1-1-0.4-1.5c-0.3-0.5-0.6-0.8-1.1-1.1
		S339.1,160.5,338.6,160.5z"/>
	<path d="M345.2,159.8v5.5l5.5-5.5h0.1v7.4h-1v-5.5l-5.4,5.5h-0.1v-7.4H345.2z"/>
	<path d="M352.1,159.8h4.9v0.8h-2v6.6h-1v-6.6h-2V159.8z"/>
	<path d="M361.8,159.6c1.1,0,2.1,0.4,2.8,1.2c0.7,0.8,1,1.7,1,2.7c0,1-0.4,1.9-1.1,2.7c-0.7,0.8-1.7,1.2-2.8,1.2
		c-1.1,0-2.1-0.4-2.8-1.2c-0.7-0.8-1.1-1.7-1.1-2.7c0-1,0.3-1.9,1-2.7C359.7,160,360.6,159.6,361.8,159.6z M361.8,160.5
		c-0.8,0-1.5,0.3-2.1,0.9s-0.9,1.3-0.9,2.1c0,0.5,0.1,1,0.4,1.5s0.6,0.8,1.1,1.1c0.4,0.3,0.9,0.4,1.5,0.4c0.5,0,1-0.1,1.5-0.4
		c0.4-0.3,0.8-0.6,1.1-1.1s0.4-1,0.4-1.5c0-0.8-0.3-1.5-0.9-2.1C363.2,160.8,362.6,160.5,361.8,160.5z"/>
	<path d="M367.4,159.8h1v1.4c0.4-0.5,0.8-0.9,1.3-1.2s1-0.4,1.6-0.4c1.1,0,2,0.4,2.7,1.1c0.8,0.8,1.1,1.7,1.1,2.7
		c0,1.1-0.4,2-1.1,2.8c-0.7,0.8-1.6,1.1-2.7,1.1c-0.6,0-1.1-0.1-1.6-0.4s-0.9-0.6-1.3-1.1v4h-1V159.8z M371.3,160.5
		c-0.8,0-1.5,0.3-2.1,0.9c-0.6,0.6-0.8,1.3-0.8,2.2c0,0.6,0.1,1.1,0.4,1.5s0.6,0.8,1.1,1.1c0.5,0.3,1,0.4,1.5,0.4
		c0.5,0,1-0.1,1.4-0.4c0.5-0.3,0.8-0.6,1.1-1.1c0.3-0.5,0.4-1,0.4-1.5c0-0.5-0.1-1-0.4-1.5c-0.3-0.5-0.6-0.8-1.1-1.1
		S371.8,160.5,371.3,160.5z"/>
	<path d="M377.9,159.8v5.5l5.5-5.5h0.1v7.4h-1v-5.5l-5.4,5.5H377v-7.4H377.9z"/>
	<path d="M386.6,159.8v5.5l5.5-5.5h0.1v7.4h-1v-5.5l-5.4,5.5h-0.1v-7.4H386.6z"/>
</g>
</svg>
