<?xml version="1.0" encoding="utf-8"?>
<!-- Generator: Adobe Illustrator 19.1.0, SVG Export Plug-In . SVG Version: 6.00 Build 0)  -->
<svg version="1.1" id="Слой_1" xmlns="http://www.w3.org/2000/svg" xmlns:xlink="http://www.w3.org/1999/xlink" x="0px" y="0px"
	 viewBox="-242 201 155 79" style="enable-background:new -242 201 155 79;" xml:space="preserve">
<style type="text/css">
	.st0{fill:url(#SVGID_1_);}
	.st1{enable-background:new    ;}
	.st2{fill:none;}
</style>
<linearGradient id="SVGID_1_" gradientUnits="userSpaceOnUse" x1="-206.6048" y1="628.0571" x2="-206.6048" y2="770.3571" gradientTransform="matrix(6.123234e-017 1 1 -6.123234e-017 -863.8571 431.4048)">
	<stop  offset="0" style="stop-color:#FFFFFF"/>
	<stop  offset="0.25" style="stop-color:#C6DBEF"/>
	<stop  offset="0.5" style="stop-color:#6BAED6"/>
	<stop  offset="0.75" style="stop-color:#2171B5"/>
	<stop  offset="1" style="stop-color:#08306B"/>
</linearGradient>
<rect x="-235.8" y="210.8" class="st0" width="142.3" height="28"/>
<g class="st1">
	<path d="M-115.6,247h-1c0.2-0.8,0.5-1.5,1.1-1.9s1.2-0.7,1.9-0.7c0.5,0,1,0.1,1.5,0.4c0.5,0.2,0.8,0.6,1.1,1
		c0.2,0.4,0.4,0.8,0.4,1.3c0,0.9-0.4,1.6-1.3,2.1c0.5,0.2,0.9,0.5,1.2,0.9c0.4,0.5,0.7,1.1,0.7,1.8c0,0.6-0.2,1.1-0.5,1.6
		c-0.3,0.5-0.7,0.9-1.2,1.2s-1.1,0.4-1.7,0.4c-0.9,0-1.6-0.2-2.2-0.7c-0.6-0.5-1-1.2-1.1-2.2h1c0.2,0.7,0.4,1.1,0.7,1.4
		c0.4,0.4,0.9,0.6,1.6,0.6c0.7,0,1.3-0.2,1.8-0.7s0.7-1,0.7-1.5c0-0.4-0.1-0.8-0.3-1.1c-0.2-0.3-0.5-0.6-0.9-0.8
		c-0.4-0.2-0.9-0.3-1.7-0.3v-0.9c0.5,0,0.9-0.1,1.3-0.2c0.4-0.2,0.7-0.4,0.8-0.6c0.2-0.3,0.3-0.5,0.3-0.8c0-0.4-0.2-0.8-0.5-1.1
		c-0.3-0.3-0.8-0.5-1.3-0.5c-0.4,0-0.8,0.1-1.1,0.4C-115.2,246-115.4,246.4-115.6,247z"/>
	<path d="M-102.9,244.7v1h-3.6l-0.5,2.7c0.4-0.1,0.8-0.2,1.2-0.2c0.9,0,1.7,0.3,2.3,0.9c0.6,0.6,0.9,1.4,0.9,2.4
		c0,0.7-0.2,1.3-0.5,1.8s-0.7,1-1.2,1.3c-0.5,0.3-1.1,0.4-1.8,0.4c-0.8,0-1.5-0.2-2.1-0.7c-0.6-0.5-0.9-1.1-1-1.9h1
		c0.1,0.4,0.2,0.7,0.4,0.9c0.2,0.2,0.4,0.4,0.7,0.6c0.3,0.1,0.6,0.2,1,0.2c0.7,0,1.2-0.3,1.7-0.8c0.5-0.5,0.7-1.1,0.7-1.9
		c0-0.7-0.2-1.2-0.6-1.7s-1-0.6-1.7-0.6c-0.6,0-1.3,0.2-2.2,0.5l0.9-5H-102.9z"/>
	<path d="M-101.5,249.7c0-1.3,0.1-2.4,0.4-3.1c0.3-0.7,0.7-1.3,1.2-1.6s1.1-0.6,1.7-0.6c0.7,0,1.2,0.2,1.8,0.6
		c0.5,0.4,0.9,0.9,1.3,1.7c0.3,0.8,0.5,1.8,0.5,3c0,1.3-0.2,2.3-0.5,3c-0.3,0.7-0.7,1.3-1.3,1.7c-0.5,0.4-1.1,0.6-1.8,0.6
		c-0.6,0-1.2-0.2-1.7-0.6s-0.9-0.9-1.2-1.7C-101.4,252.1-101.5,251-101.5,249.7z M-100.6,249.7c0,1.1,0.1,2,0.3,2.6
		c0.2,0.6,0.5,1,0.9,1.3c0.4,0.3,0.8,0.5,1.3,0.5c0.4,0,0.9-0.1,1.3-0.4s0.7-0.7,0.9-1.3c0.3-0.7,0.4-1.6,0.4-2.6
		c0-1-0.1-1.8-0.3-2.5s-0.5-1.1-0.9-1.4c-0.4-0.3-0.8-0.4-1.2-0.4c-0.4,0-0.9,0.1-1.3,0.4s-0.7,0.7-0.9,1.3
		C-100.5,247.7-100.6,248.6-100.6,249.7z"/>
</g>
<g class="st1">
	<path d="M-235.3,249.7c0-1.3,0.1-2.4,0.4-3.1s0.7-1.3,1.2-1.6s1.1-0.6,1.7-0.6c0.7,0,1.2,0.2,1.8,0.6c0.5,0.4,0.9,0.9,1.3,1.7
		s0.5,1.8,0.5,3c0,1.3-0.2,2.3-0.5,3s-0.7,1.3-1.3,1.7c-0.5,0.4-1.1,0.6-1.8,0.6c-0.6,0-1.2-0.2-1.7-0.6s-0.9-0.9-1.2-1.7
		C-235.2,252.1-235.3,251-235.3,249.7z M-234.4,249.7c0,1.1,0.1,2,0.3,2.6c0.2,0.6,0.5,1,0.9,1.3c0.4,0.3,0.8,0.5,1.3,0.5
		c0.4,0,0.9-0.1,1.3-0.4s0.7-0.7,0.9-1.3c0.3-0.7,0.4-1.6,0.4-2.6c0-1-0.1-1.8-0.3-2.5s-0.5-1.1-0.9-1.4s-0.8-0.4-1.2-0.4
		c-0.4,0-0.9,0.1-1.3,0.4s-0.7,0.7-0.9,1.3C-234.3,247.7-234.4,248.6-234.4,249.7z"/>
</g>
<g class="st1">
	<path d="M-134.8,263h4.9v0.8h-2v6.6h-1v-6.6h-2V263z"/>
	<path d="M-115.2,262.2l-0.8,0.6c-0.4-0.6-1-1-1.6-1.3c-0.6-0.3-1.3-0.4-2-0.4c-0.8,0-1.5,0.2-2.2,0.6c-0.7,0.4-1.2,0.9-1.6,1.6
		c-0.4,0.6-0.6,1.4-0.6,2.2c0,1.2,0.4,2.2,1.3,3.1s1.9,1.2,3.2,1.2c1.4,0,2.6-0.6,3.5-1.7l0.8,0.6c-0.5,0.6-1.1,1.1-1.9,1.5
		c-0.8,0.3-1.6,0.5-2.5,0.5c-1.8,0-3.1-0.6-4.2-1.8c-0.9-1-1.3-2.2-1.3-3.6c0-1.5,0.5-2.7,1.5-3.7c1-1,2.3-1.5,3.9-1.5
		c0.9,0,1.8,0.2,2.5,0.6C-116.3,261-115.7,261.5-115.2,262.2z"/>
	<path d="M-108.7,260.1l-4.2,11.7h-1l4.2-11.7H-108.7z"/>
	<path d="M-106.2,263.8v6.6h-1V263h3.8v0.8H-106.2z"/>
	<path d="M-94.7,263v7.4h-0.9v-1.3c-0.4,0.5-0.9,0.9-1.3,1.1s-1,0.4-1.6,0.4c-1.1,0-2-0.4-2.7-1.1c-0.7-0.8-1.1-1.7-1.1-2.8
		c0-1.1,0.4-2,1.1-2.7s1.7-1.1,2.7-1.1c0.6,0,1.2,0.1,1.7,0.4c0.5,0.3,0.9,0.6,1.3,1.2V263H-94.7z M-98.6,263.7
		c-0.5,0-1,0.1-1.5,0.4c-0.5,0.3-0.8,0.6-1.1,1.1c-0.3,0.5-0.4,1-0.4,1.5c0,0.5,0.1,1,0.4,1.5c0.3,0.5,0.6,0.8,1.1,1.1
		s0.9,0.4,1.5,0.4c0.5,0,1-0.1,1.5-0.4c0.5-0.3,0.8-0.6,1.1-1.1c0.3-0.5,0.4-1,0.4-1.5c0-0.9-0.3-1.6-0.8-2.2
		C-97,264-97.7,263.7-98.6,263.7z"/>
</g>
<rect x="-242" y="201" class="st2" width="155" height="79"/>
</svg>
