<?xml version="1.0" encoding="utf-8"?>
<!-- Generator: Adobe Illustrator 19.1.0, SVG Export Plug-In . SVG Version: 6.00 Build 0)  -->
<svg version="1.1" id="Слой_1" xmlns="http://www.w3.org/2000/svg" xmlns:xlink="http://www.w3.org/1999/xlink" x="0px" y="0px"
	 viewBox="0 0 82 182" style="enable-background:new 0 0 82 182;" xml:space="preserve">
<style type="text/css">
	.st0{fill:url(#SVGID_1_);}
	.st1{fill:none;}
</style>
<linearGradient id="SVGID_1_" gradientUnits="userSpaceOnUse" x1="25.369" y1="173.9048" x2="25.369" y2="31.6429">
	<stop  offset="0" style="stop-color:#FFFFFF"/>
	<stop  offset="0.25" style="stop-color:#C6DBEF"/>
	<stop  offset="0.5" style="stop-color:#6BAED6"/>
	<stop  offset="0.75" style="stop-color:#2171B5"/>
	<stop  offset="1" style="stop-color:#08306B"/>
</linearGradient>
<rect x="11.4" y="31.6" class="st0" width="28" height="142.3"/>
<g>
	<path d="M46.9,33.4h-1c0.2-0.8,0.5-1.5,1.1-1.9s1.2-0.7,1.9-0.7c0.5,0,1,0.1,1.5,0.4s0.8,0.6,1.1,1s0.4,0.8,0.4,1.3
		c0,0.9-0.4,1.6-1.3,2.1c0.5,0.2,0.9,0.5,1.2,0.9c0.4,0.5,0.7,1.1,0.7,1.8c0,0.6-0.2,1.1-0.5,1.6s-0.7,0.9-1.2,1.2s-1.1,0.4-1.7,0.4
		c-0.9,0-1.6-0.2-2.2-0.7s-1-1.2-1.1-2.2h1c0.2,0.7,0.4,1.1,0.7,1.4c0.4,0.4,0.9,0.6,1.6,0.6c0.7,0,1.3-0.2,1.8-0.7s0.7-1,0.7-1.5
		c0-0.4-0.1-0.8-0.3-1.1s-0.5-0.6-0.9-0.8s-0.9-0.3-1.7-0.3v-0.9c0.5,0,0.9-0.1,1.3-0.2s0.7-0.4,0.8-0.6s0.3-0.5,0.3-0.8
		c0-0.4-0.2-0.8-0.5-1.1s-0.8-0.5-1.3-0.5c-0.4,0-0.8,0.1-1.1,0.4S47.1,32.9,46.9,33.4z"/>
	<path d="M59.6,31.1v1h-3.6l-0.5,2.7c0.4-0.1,0.8-0.2,1.2-0.2c0.9,0,1.7,0.3,2.3,0.9s0.9,1.4,0.9,2.4c0,0.7-0.2,1.3-0.5,1.8
		s-0.7,1-1.2,1.3s-1.1,0.4-1.8,0.4c-0.8,0-1.5-0.2-2.1-0.7s-0.9-1.1-1-1.9h1c0.1,0.4,0.2,0.7,0.4,0.9s0.4,0.4,0.7,0.6s0.6,0.2,1,0.2
		c0.7,0,1.2-0.3,1.7-0.8s0.7-1.1,0.7-1.9c0-0.7-0.2-1.2-0.6-1.7c-0.4-0.4-1-0.6-1.7-0.6c-0.6,0-1.3,0.2-2.2,0.5l0.9-5H59.6z"/>
	<path d="M61,36.1c0-1.3,0.1-2.4,0.4-3.1s0.7-1.3,1.2-1.6s1.1-0.6,1.7-0.6c0.7,0,1.2,0.2,1.8,0.6s0.9,0.9,1.3,1.7s0.5,1.8,0.5,3
		c0,1.3-0.2,2.3-0.5,3s-0.7,1.3-1.3,1.7s-1.1,0.6-1.8,0.6c-0.6,0-1.2-0.2-1.7-0.6s-0.9-0.9-1.2-1.7S61,37.5,61,36.1z M61.9,36.2
		c0,1.1,0.1,2,0.3,2.6s0.5,1,0.9,1.3c0.4,0.3,0.8,0.5,1.3,0.5c0.4,0,0.9-0.1,1.3-0.4c0.4-0.3,0.7-0.7,0.9-1.3
		c0.3-0.7,0.4-1.6,0.4-2.6c0-1-0.1-1.8-0.3-2.5s-0.5-1.1-0.9-1.4s-0.8-0.4-1.2-0.4c-0.4,0-0.9,0.1-1.3,0.4s-0.7,0.7-0.9,1.3
		S61.9,35,61.9,36.2z"/>
</g>
<g>
	<path d="M45.5,164.2c0-1.3,0.1-2.4,0.4-3.1s0.7-1.3,1.2-1.6c0.5-0.4,1.1-0.6,1.7-0.6c0.7,0,1.2,0.2,1.8,0.6s0.9,0.9,1.3,1.7
		s0.5,1.8,0.5,3c0,1.3-0.2,2.3-0.5,3c-0.3,0.7-0.7,1.3-1.3,1.7c-0.5,0.4-1.1,0.6-1.8,0.6c-0.6,0-1.2-0.2-1.7-0.6s-0.9-0.9-1.2-1.7
		S45.5,165.5,45.5,164.2z M46.4,164.2c0,1.1,0.1,2,0.3,2.6c0.2,0.6,0.5,1,0.9,1.3c0.4,0.3,0.8,0.5,1.3,0.5c0.4,0,0.9-0.1,1.3-0.4
		s0.7-0.7,0.9-1.3c0.3-0.7,0.4-1.6,0.4-2.6c0-1-0.1-1.8-0.3-2.5s-0.5-1.1-0.9-1.4s-0.8-0.4-1.2-0.4c-0.4,0-0.9,0.1-1.3,0.4
		s-0.7,0.7-0.9,1.3C46.6,162.2,46.4,163.1,46.4,164.2z"/>
</g>
<g>
	<path d="M28,13.2h4.9V14h-2v6.6h-1V14h-2V13.2z"/>
	<path d="M47.6,12.5l-0.8,0.6c-0.4-0.6-1-1-1.6-1.3s-1.3-0.4-2-0.4c-0.8,0-1.5,0.2-2.2,0.6s-1.2,0.9-1.6,1.6s-0.6,1.4-0.6,2.2
		c0,1.2,0.4,2.2,1.3,3.1s1.9,1.2,3.2,1.2c1.4,0,2.6-0.6,3.5-1.7l0.8,0.6c-0.5,0.6-1.1,1.1-1.9,1.5s-1.6,0.5-2.5,0.5
		c-1.8,0-3.1-0.6-4.2-1.8c-0.9-1-1.3-2.2-1.3-3.6c0-1.5,0.5-2.7,1.5-3.7s2.3-1.5,3.9-1.5c0.9,0,1.8,0.2,2.5,0.6S47.1,11.8,47.6,12.5
		z"/>
	<path d="M54.1,10.3L49.9,22h-1L53,10.3H54.1z"/>
	<path d="M56.5,14v6.6h-1v-7.4h3.8V14H56.5z"/>
	<path d="M68,13.2v7.4h-0.9v-1.3c-0.4,0.5-0.9,0.9-1.4,1.1s-1,0.4-1.6,0.4c-1.1,0-2-0.4-2.7-1.1s-1.1-1.7-1.1-2.8
		c0-1.1,0.4-2,1.1-2.7s1.7-1.1,2.7-1.1c0.6,0,1.2,0.1,1.7,0.4s0.9,0.6,1.3,1.2v-1.4H68z M64.2,13.9c-0.5,0-1,0.1-1.5,0.4
		s-0.8,0.6-1.1,1.1c-0.3,0.5-0.4,1-0.4,1.5c0,0.5,0.1,1,0.4,1.5c0.3,0.5,0.6,0.9,1.1,1.1c0.5,0.3,0.9,0.4,1.5,0.4
		c0.5,0,1-0.1,1.5-0.4c0.5-0.3,0.8-0.6,1.1-1.1c0.3-0.5,0.4-1,0.4-1.5c0-0.9-0.3-1.6-0.9-2.2S65,13.9,64.2,13.9z"/>
</g>
<rect class="st1" width="82" height="182"/>
</svg>
